{"glyphs":{"0":{"ha":833,"x_min":38,"x_max":796,"o":"m 417 -12 q 135 118 233 -12 q 38 496 38 249 q 135 869 38 739 q 417 999 233 999 q 698 869 600 999 q 796 496 796 739 q 698 118 796 249 q 417 -12 600 -12 m 417 183 q 513 256 483 183 q 542 496 542 329 q 513 731 542 658 q 417 803 483 803 q 321 731 350 803 q 292 496 292 658 q 321 256 292 329 q 417 183 350 183 z "},"1":{"ha":833,"x_min":128,"x_max":814,"o":"m 340 121 l 340 774 l 460 774 l 142 592 l 142 815 l 447 989 l 600 989 l 600 121 l 340 121 m 128 0 l 128 207 l 814 207 l 814 0 l 128 0 z "},"2":{"ha":835,"x_min":43,"x_max":776,"o":"m 79 0 l 79 192 l 401 528 q 469 619 446 575 q 492 704 492 663 q 463 776 492 753 q 378 800 433 800 q 254 777 319 800 q 125 711 189 754 l 43 896 q 198 973 103 944 q 392 1001 293 1001 q 578 967 499 1001 q 702 870 658 933 q 746 722 746 807 q 712 565 746 635 q 596 408 678 494 l 333 140 l 297 207 l 776 207 l 776 0 l 79 0 z "},"3":{"ha":833,"x_min":29,"x_max":772,"o":"m 388 -11 q 186 17 283 -11 q 29 94 89 46 l 111 279 q 242 213 175 235 q 375 190 308 190 q 493 215 458 190 q 528 297 528 239 q 494 376 528 353 q 381 400 460 400 l 226 400 l 226 600 l 354 600 q 466 621 432 600 q 500 692 500 642 q 467 772 500 744 q 376 800 435 800 q 251 777 317 800 q 125 711 185 754 l 43 896 q 199 973 103 944 q 394 1001 296 1001 q 580 968 501 1001 q 702 874 658 935 q 746 729 746 813 q 701 587 746 646 q 574 503 657 528 l 576 514 q 721 428 669 492 q 772 269 772 365 q 668 64 772 139 q 388 -11 564 -11 z "},"4":{"ha":833,"x_min":38,"x_max":817,"o":"m 433 0 l 433 668 l 482 668 l 231 308 l 231 365 l 817 365 l 817 167 l 38 167 l 38 358 l 481 989 l 689 989 l 689 0 l 433 0 z "},"5":{"ha":833,"x_min":57,"x_max":800,"o":"m 399 -11 q 208 17 303 -11 q 57 94 114 46 l 138 279 q 269 213 203 235 q 403 190 336 190 q 518 222 481 190 q 556 318 556 253 q 538 390 556 361 q 486 435 519 419 q 406 450 453 450 q 321 437 367 450 q 238 403 275 424 l 94 403 l 94 989 l 747 989 l 747 792 l 347 792 l 347 558 l 271 572 q 365 630 314 611 q 483 649 417 649 q 647 608 576 649 q 759 497 718 568 q 800 329 800 425 q 751 149 800 225 q 611 31 701 72 q 399 -11 521 -11 z "},"6":{"ha":833,"x_min":36,"x_max":799,"o":"m 450 -12 q 144 116 253 -12 q 36 485 36 244 q 88 762 36 646 q 238 940 140 878 q 468 1001 335 1001 q 649 974 561 1001 q 799 896 738 947 l 717 711 q 589 780 650 760 q 481 800 528 800 q 341 722 388 800 q 294 490 294 644 l 294 471 l 271 503 q 318 581 285 547 q 399 633 351 614 q 501 651 447 651 q 654 610 588 651 q 759 495 721 568 q 797 329 797 422 q 753 152 797 229 q 630 31 708 75 q 450 -12 551 -12 m 436 188 q 522 224 490 188 q 554 318 554 260 q 523 415 554 379 q 436 450 492 450 q 374 434 401 450 q 333 388 347 418 q 318 318 318 358 q 333 250 318 279 q 374 204 347 221 q 436 188 401 188 z "},"7":{"ha":833,"x_min":50,"x_max":785,"o":"m 354 0 l 76 0 l 543 851 l 542 782 l 50 782 l 50 989 l 785 989 l 785 794 l 354 0 z "},"8":{"ha":833,"x_min":26,"x_max":807,"o":"m 417 -11 q 216 23 304 -11 q 77 120 128 57 q 26 272 26 183 q 94 441 26 376 q 279 519 161 506 l 278 497 q 114 579 176 517 q 51 732 51 642 q 100 876 51 815 q 231 969 149 936 q 417 1001 314 1001 q 602 969 519 1001 q 733 876 685 936 q 782 732 782 815 q 719 576 782 639 q 558 499 656 514 l 557 519 q 740 438 672 503 q 807 272 807 374 q 756 120 807 183 q 617 23 706 57 q 417 -11 529 -11 m 417 185 q 524 212 481 185 q 567 293 567 239 q 525 377 567 346 q 417 421 483 408 q 308 377 350 408 q 267 293 267 346 q 310 212 267 239 q 417 185 353 185 m 417 579 q 503 620 468 592 q 539 701 539 649 q 503 781 539 757 q 417 806 468 806 q 330 781 365 806 q 294 701 294 757 q 330 620 294 649 q 417 579 365 592 z "},"9":{"ha":833,"x_min":35,"x_max":796,"o":"m 382 1001 q 688 873 581 1001 q 796 504 796 744 q 744 227 796 343 q 595 49 692 111 q 365 -12 499 -12 q 184 15 272 -12 q 35 93 96 42 l 117 278 q 245 209 185 229 q 353 189 306 189 q 492 267 446 189 q 539 499 539 344 l 539 518 l 563 486 q 515 408 549 442 q 433 356 481 375 q 331 338 386 338 q 179 379 246 338 q 74 494 113 421 q 35 660 35 567 q 80 837 35 760 q 203 958 125 914 q 382 1001 281 1001 m 397 801 q 310 765 342 801 q 279 671 279 729 q 310 574 279 610 q 397 539 342 539 q 459 555 432 539 q 501 601 486 571 q 515 671 515 631 q 501 739 515 710 q 459 785 486 768 q 397 801 432 801 z "},"A":{"ha":1068,"x_min":-32,"x_max":1100,"o":"m 229 0 l -32 0 l 431 989 l 636 989 l 1100 0 l 843 0 l 508 779 l 565 779 l 229 0 m 182 204 l 283 400 l 768 400 l 868 204 l 182 204 z "},"Á":{"ha":1068,"x_min":-32,"x_max":1100,"o":"m 229 0 l -32 0 l 431 989 l 636 989 l 1100 0 l 843 0 l 508 779 l 565 779 l 229 0 m 182 204 l 283 400 l 768 400 l 868 204 l 182 204 m 608 1074 l 457 1074 l 601 1293 l 826 1293 l 608 1074 z "},"Ă":{"ha":1068,"x_min":-32,"x_max":1100,"o":"m 229 0 l -32 0 l 431 989 l 636 989 l 1100 0 l 843 0 l 508 779 l 565 779 l 229 0 m 182 204 l 283 400 l 768 400 l 868 204 l 182 204 m 533 1085 q 369 1124 438 1085 q 275 1239 300 1164 l 382 1285 q 445 1240 404 1253 q 533 1228 486 1228 q 620 1240 579 1228 q 683 1285 661 1253 l 790 1239 q 697 1124 765 1164 q 533 1085 628 1085 z "},"Ắ":{"ha":1068,"x_min":-32,"x_max":1100,"o":"m 229 0 l -32 0 l 431 989 l 636 989 l 1100 0 l 843 0 l 508 779 l 565 779 l 229 0 m 182 204 l 283 400 l 768 400 l 868 204 l 182 204 m 533 1067 q 369 1106 438 1067 q 275 1221 300 1146 l 354 1254 q 429 1204 376 1224 q 533 1185 482 1185 q 637 1204 585 1185 q 711 1254 689 1224 l 790 1221 q 697 1106 765 1146 q 533 1067 628 1067 m 604 1225 l 461 1225 l 601 1422 l 808 1422 l 604 1225 z "},"Ặ":{"ha":1068,"x_min":-32,"x_max":1100,"o":"m 229 0 l -32 0 l 431 989 l 636 989 l 1100 0 l 843 0 l 508 779 l 565 779 l 229 0 m 182 204 l 283 400 l 768 400 l 868 204 l 182 204 m 424 -79 l 644 -79 l 644 -289 l 424 -289 l 424 -79 m 533 1085 q 369 1124 438 1085 q 275 1239 300 1164 l 382 1285 q 445 1240 404 1253 q 533 1228 486 1228 q 620 1240 579 1228 q 683 1285 661 1253 l 790 1239 q 697 1124 765 1164 q 533 1085 628 1085 z "},"Ằ":{"ha":1068,"x_min":-32,"x_max":1100,"o":"m 229 0 l -32 0 l 431 989 l 636 989 l 1100 0 l 843 0 l 508 779 l 565 779 l 229 0 m 182 204 l 283 400 l 768 400 l 868 204 l 182 204 m 533 1067 q 369 1106 438 1067 q 275 1221 300 1146 l 354 1254 q 429 1204 376 1224 q 533 1185 482 1185 q 637 1204 585 1185 q 711 1254 689 1224 l 790 1221 q 697 1106 765 1146 q 533 1067 628 1067 m 461 1225 l 257 1422 l 464 1422 l 604 1225 l 461 1225 z "},"Ẳ":{"ha":1068,"x_min":-32,"x_max":1100,"o":"m 229 0 l -32 0 l 431 989 l 636 989 l 1100 0 l 843 0 l 508 779 l 565 779 l 229 0 m 182 204 l 283 400 l 768 400 l 868 204 l 182 204 m 533 1067 q 369 1106 438 1067 q 275 1221 300 1146 l 354 1254 q 429 1204 376 1224 q 533 1185 482 1185 q 637 1204 585 1185 q 711 1254 689 1224 l 790 1221 q 697 1106 765 1146 q 533 1067 628 1067 m 590 1238 l 590 1228 l 474 1228 l 474 1257 q 488 1291 474 1278 q 519 1311 501 1304 q 551 1322 538 1318 q 565 1329 565 1325 q 557 1340 565 1335 q 522 1346 549 1346 q 490 1342 510 1346 q 446 1331 469 1339 l 415 1406 q 475 1423 442 1415 q 557 1431 508 1431 q 668 1408 626 1431 q 710 1350 710 1385 q 692 1306 710 1321 q 650 1283 674 1292 q 608 1265 626 1275 q 590 1238 590 1256 z "},"Ẵ":{"ha":1068,"x_min":-32,"x_max":1100,"o":"m 229 0 l -32 0 l 431 989 l 636 989 l 1100 0 l 843 0 l 508 779 l 565 779 l 229 0 m 182 204 l 283 400 l 768 400 l 868 204 l 182 204 m 533 1067 q 369 1106 438 1067 q 275 1221 300 1146 l 354 1254 q 429 1204 376 1224 q 533 1185 482 1185 q 637 1204 585 1185 q 711 1254 689 1224 l 790 1221 q 697 1106 765 1146 q 533 1067 628 1067 m 282 1281 q 304 1356 282 1322 q 364 1408 326 1389 q 444 1428 401 1428 q 510 1419 479 1428 q 570 1401 542 1410 q 625 1393 599 1393 q 663 1399 647 1393 q 683 1424 679 1404 l 783 1424 q 761 1349 783 1382 q 701 1296 739 1315 q 621 1276 664 1276 q 555 1285 586 1276 q 495 1302 524 1293 q 440 1311 467 1311 q 402 1306 418 1311 q 382 1281 386 1300 l 282 1281 z "},"Â":{"ha":1068,"x_min":-32,"x_max":1100,"o":"m 229 0 l -32 0 l 431 989 l 636 989 l 1100 0 l 843 0 l 508 779 l 565 779 l 229 0 m 182 204 l 283 400 l 768 400 l 868 204 l 182 204 m 453 1074 l 271 1074 l 464 1293 l 601 1293 l 794 1074 l 613 1074 l 533 1182 l 453 1074 z "},"Ấ":{"ha":1068,"x_min":-32,"x_max":1100,"o":"m 229 0 l -32 0 l 431 989 l 636 989 l 1100 0 l 843 0 l 508 779 l 565 779 l 229 0 m 182 204 l 283 400 l 768 400 l 868 204 l 182 204 m 449 1074 l 271 1074 l 464 1263 l 601 1263 l 794 1074 l 617 1074 l 533 1156 l 449 1074 m 786 1225 l 669 1225 l 760 1422 l 957 1422 l 786 1225 z "},"Ậ":{"ha":1068,"x_min":-32,"x_max":1100,"o":"m 229 0 l -32 0 l 431 989 l 636 989 l 1100 0 l 843 0 l 508 779 l 565 779 l 229 0 m 182 204 l 283 400 l 768 400 l 868 204 l 182 204 m 424 -79 l 644 -79 l 644 -289 l 424 -289 l 424 -79 m 453 1074 l 271 1074 l 464 1293 l 601 1293 l 794 1074 l 613 1074 l 533 1182 l 453 1074 z "},"Ầ":{"ha":1068,"x_min":-32,"x_max":1100,"o":"m 229 0 l -32 0 l 431 989 l 636 989 l 1100 0 l 843 0 l 508 779 l 565 779 l 229 0 m 182 204 l 283 400 l 768 400 l 868 204 l 182 204 m 449 1074 l 271 1074 l 464 1263 l 601 1263 l 794 1074 l 617 1074 l 533 1156 l 449 1074 m 729 1225 l 553 1422 l 751 1422 l 846 1225 l 729 1225 z "},"Ẩ":{"ha":1068,"x_min":-32,"x_max":1100,"o":"m 229 0 l -32 0 l 431 989 l 636 989 l 1100 0 l 843 0 l 508 779 l 565 779 l 229 0 m 182 204 l 283 400 l 768 400 l 868 204 l 182 204 m 449 1074 l 271 1074 l 464 1263 l 601 1263 l 794 1074 l 617 1074 l 533 1156 l 449 1074 m 785 1238 l 785 1228 l 668 1228 l 668 1257 q 682 1291 668 1278 q 714 1311 696 1304 q 746 1322 732 1318 q 760 1329 760 1325 q 751 1340 760 1335 q 718 1346 743 1346 q 685 1342 706 1346 q 640 1331 664 1339 l 610 1406 q 670 1423 636 1415 q 751 1431 704 1431 q 863 1408 822 1431 q 904 1350 904 1385 q 886 1306 904 1321 q 844 1283 868 1292 q 803 1265 821 1275 q 785 1238 785 1256 z "},"Ẫ":{"ha":1068,"x_min":-32,"x_max":1100,"o":"m 229 0 l -32 0 l 431 989 l 636 989 l 1100 0 l 843 0 l 508 779 l 565 779 l 229 0 m 182 204 l 283 400 l 768 400 l 868 204 l 182 204 m 449 1074 l 271 1074 l 464 1263 l 601 1263 l 794 1074 l 617 1074 l 533 1156 l 449 1074 m 282 1289 q 304 1366 282 1332 q 364 1419 326 1400 q 444 1439 401 1439 q 510 1429 479 1439 q 570 1410 542 1419 q 625 1400 599 1400 q 663 1406 647 1400 q 683 1433 679 1411 l 783 1433 q 761 1356 783 1390 q 701 1303 739 1322 q 621 1283 664 1283 q 555 1293 586 1283 q 495 1313 524 1303 q 440 1324 467 1324 q 402 1317 418 1324 q 382 1289 386 1311 l 282 1289 z "},"Ȁ":{"ha":1068,"x_min":-32,"x_max":1100,"o":"m 229 0 l -32 0 l 431 989 l 636 989 l 1100 0 l 843 0 l 508 779 l 565 779 l 229 0 m 182 204 l 283 400 l 768 400 l 868 204 l 182 204 m 575 1074 l 433 1293 l 593 1293 l 697 1074 l 575 1074 m 368 1074 l 228 1293 l 386 1293 l 490 1074 l 368 1074 z "},"Ä":{"ha":1068,"x_min":-32,"x_max":1100,"o":"m 229 0 l -32 0 l 431 989 l 636 989 l 1100 0 l 843 0 l 508 779 l 565 779 l 229 0 m 182 204 l 283 400 l 768 400 l 868 204 l 182 204 m 561 1289 l 783 1289 l 783 1079 l 561 1079 l 561 1289 m 282 1289 l 504 1289 l 504 1079 l 282 1079 l 282 1289 z "},"Ạ":{"ha":1068,"x_min":-32,"x_max":1100,"o":"m 229 0 l -32 0 l 431 989 l 636 989 l 1100 0 l 843 0 l 508 779 l 565 779 l 229 0 m 182 204 l 283 400 l 768 400 l 868 204 l 182 204 m 424 -79 l 644 -79 l 644 -289 l 424 -289 l 424 -79 z "},"À":{"ha":1068,"x_min":-32,"x_max":1100,"o":"m 229 0 l -32 0 l 431 989 l 636 989 l 1100 0 l 843 0 l 508 779 l 565 779 l 229 0 m 182 204 l 283 400 l 768 400 l 868 204 l 182 204 m 457 1074 l 239 1293 l 464 1293 l 608 1074 l 457 1074 z "},"Ả":{"ha":1068,"x_min":-32,"x_max":1100,"o":"m 229 0 l -32 0 l 431 989 l 636 989 l 1100 0 l 843 0 l 508 779 l 565 779 l 229 0 m 182 204 l 283 400 l 768 400 l 868 204 l 182 204 m 590 1093 l 590 1074 l 474 1074 l 474 1106 q 488 1142 474 1129 q 519 1161 501 1154 q 551 1174 538 1168 q 565 1188 565 1179 q 557 1203 565 1197 q 522 1210 549 1210 q 490 1206 510 1210 q 446 1196 469 1203 l 415 1274 q 475 1291 442 1283 q 557 1299 508 1299 q 668 1272 626 1299 q 710 1210 710 1246 q 692 1167 710 1182 q 650 1142 674 1151 q 608 1122 626 1132 q 590 1093 590 1111 z "},"Ȃ":{"ha":1068,"x_min":-32,"x_max":1100,"o":"m 229 0 l -32 0 l 431 989 l 636 989 l 1100 0 l 843 0 l 508 779 l 565 779 l 229 0 m 182 204 l 283 400 l 768 400 l 868 204 l 182 204 m 533 1283 q 697 1244 628 1283 q 790 1129 765 1204 l 683 1085 q 620 1128 661 1115 q 533 1142 579 1142 q 445 1128 486 1142 q 382 1085 404 1115 l 275 1129 q 369 1244 300 1204 q 533 1283 438 1283 z "},"Ā":{"ha":1068,"x_min":-32,"x_max":1100,"o":"m 229 0 l -32 0 l 431 989 l 636 989 l 1100 0 l 843 0 l 508 779 l 565 779 l 229 0 m 182 204 l 283 400 l 768 400 l 868 204 l 182 204 m 310 1108 l 310 1258 l 756 1258 l 756 1108 l 310 1108 z "},"Ą":{"ha":1068,"x_min":-32,"x_max":1100,"o":"m 182 204 l 283 400 l 768 400 l 868 204 l 182 204 m 1067 -139 l 1092 -251 q 1018 -272 1056 -265 q 942 -278 981 -278 q 811 -236 865 -278 q 757 -122 757 -194 q 787 -24 757 -68 q 871 44 817 19 l 843 0 l 508 779 l 565 779 l 229 0 l -32 0 l 431 989 l 636 989 l 1100 0 l 1010 0 q 940 -24 968 0 q 911 -85 911 -47 q 932 -137 911 -119 q 992 -154 953 -154 q 1028 -150 1010 -154 q 1067 -139 1047 -146 z "},"Å":{"ha":1068,"x_min":-32,"x_max":1100,"o":"m 535 939 q 422 983 468 939 q 376 1094 376 1028 q 422 1204 376 1160 q 535 1249 468 1249 q 647 1204 600 1249 q 693 1094 693 1160 q 647 983 693 1028 q 535 939 600 939 m 535 1032 q 576 1051 560 1032 q 593 1094 593 1069 q 576 1137 593 1119 q 535 1154 560 1154 q 493 1137 510 1154 q 476 1094 476 1119 q 493 1051 476 1069 q 535 1032 510 1032 m 229 0 l -32 0 l 431 989 l 636 989 l 1100 0 l 843 0 l 508 779 l 565 779 l 229 0 m 182 204 l 283 400 l 768 400 l 868 204 l 182 204 z "},"Ǻ":{"ha":1068,"x_min":-32,"x_max":1100,"o":"m -32 0 l 431 989 l 636 989 l 1100 0 l 843 0 l 508 779 l 565 779 l 229 0 l -32 0 m 182 204 l 283 400 l 768 400 l 868 204 l 182 204 m 535 939 q 422 983 468 939 q 376 1094 376 1028 q 422 1204 376 1160 q 535 1249 468 1249 q 647 1204 600 1249 q 693 1094 693 1160 q 647 983 693 1028 q 535 939 600 939 m 535 1032 q 576 1051 560 1032 q 593 1094 593 1069 q 576 1137 593 1119 q 535 1154 560 1154 q 493 1137 510 1154 q 476 1094 476 1119 q 493 1051 476 1069 q 535 1032 510 1032 m 672 1140 l 574 1214 l 678 1329 l 900 1329 l 672 1140 z "},"Ã":{"ha":1068,"x_min":-32,"x_max":1100,"o":"m 229 0 l -32 0 l 431 989 l 636 989 l 1100 0 l 843 0 l 508 779 l 565 779 l 229 0 m 182 204 l 283 400 l 768 400 l 868 204 l 182 204 m 282 1075 q 331 1245 282 1193 q 444 1297 379 1297 q 510 1280 479 1297 q 570 1245 542 1263 q 625 1228 599 1228 q 663 1244 647 1228 q 683 1293 679 1260 l 783 1293 q 735 1123 783 1175 q 621 1071 686 1071 q 555 1088 586 1071 q 495 1123 524 1106 q 440 1140 467 1140 q 402 1124 418 1140 q 382 1075 386 1108 l 282 1075 z "},"Æ":{"ha":1408,"x_min":-60,"x_max":1364,"o":"m -60 0 l 571 989 l 1364 989 l 1364 789 l 665 789 l 711 822 l 222 0 l -60 0 m 188 204 l 289 400 l 769 400 l 828 204 l 188 204 m 757 0 l 704 872 l 938 872 l 981 200 l 1364 200 l 1364 0 l 757 0 m 799 403 l 799 603 l 1335 603 l 1335 403 l 799 403 z "},"Ǽ":{"ha":1408,"x_min":-60,"x_max":1364,"o":"m -60 0 l 571 989 l 1364 989 l 1364 789 l 665 789 l 711 822 l 222 0 l -60 0 m 188 204 l 289 400 l 769 400 l 828 204 l 188 204 m 757 0 l 704 872 l 938 872 l 981 200 l 1364 200 l 1364 0 l 757 0 m 799 403 l 799 603 l 1335 603 l 1335 403 l 799 403 m 786 1074 l 635 1074 l 779 1293 l 1004 1293 l 786 1074 z "},"B":{"ha":975,"x_min":89,"x_max":936,"o":"m 89 0 l 89 989 l 569 989 q 816 919 724 989 q 908 732 908 850 q 863 591 908 651 q 735 507 818 531 l 735 518 q 884 431 832 494 q 936 271 936 367 q 841 74 936 149 q 582 0 746 0 l 89 0 m 343 197 l 551 197 q 659 221 626 197 q 692 300 692 244 q 660 380 692 356 q 551 404 628 404 l 343 404 l 343 197 m 343 601 l 525 601 q 631 624 597 601 q 664 694 664 646 q 630 769 664 746 q 525 792 596 792 l 343 792 l 343 601 z "},"C":{"ha":951,"x_min":63,"x_max":904,"o":"m 569 -12 q 300 51 414 -12 q 124 228 186 114 q 63 496 63 343 q 124 761 63 647 q 300 938 186 875 q 569 1001 414 1001 q 758 972 667 1001 q 904 893 849 943 l 825 708 q 700 775 761 754 q 575 796 639 796 q 392 721 457 796 q 328 496 328 646 q 392 269 328 346 q 575 193 457 193 q 700 214 639 193 q 825 281 761 235 l 904 96 q 758 17 849 46 q 569 -12 667 -12 z "},"Ć":{"ha":951,"x_min":63,"x_max":904,"o":"m 569 -12 q 300 51 414 -12 q 124 228 186 114 q 63 496 63 343 q 124 761 63 647 q 300 938 186 875 q 569 1001 414 1001 q 758 972 667 1001 q 904 893 849 943 l 825 708 q 700 775 761 754 q 575 796 639 796 q 392 721 457 796 q 328 496 328 646 q 392 269 328 346 q 575 193 457 193 q 700 214 639 193 q 825 281 761 235 l 904 96 q 758 17 849 46 q 569 -12 667 -12 m 633 1074 l 482 1074 l 626 1293 l 851 1293 l 633 1074 z "},"Č":{"ha":951,"x_min":63,"x_max":904,"o":"m 569 -12 q 300 51 414 -12 q 124 228 186 114 q 63 496 63 343 q 124 761 63 647 q 300 938 186 875 q 569 1001 414 1001 q 758 972 667 1001 q 904 893 849 943 l 825 708 q 700 775 761 754 q 575 796 639 796 q 392 721 457 796 q 328 496 328 646 q 392 269 328 346 q 575 193 457 193 q 700 214 639 193 q 825 281 761 235 l 904 96 q 758 17 849 46 q 569 -12 667 -12 m 638 1293 l 819 1293 l 626 1074 l 489 1074 l 296 1293 l 478 1293 l 558 1183 l 638 1293 z "},"Ç":{"ha":951,"x_min":63,"x_max":904,"o":"m 569 -12 q 300 51 414 -12 q 124 228 186 114 q 63 496 63 343 q 124 761 63 647 q 300 938 186 875 q 569 1001 414 1001 q 758 972 667 1001 q 904 893 849 943 l 825 708 q 700 775 761 754 q 575 796 639 796 q 392 721 457 796 q 328 496 328 646 q 392 269 328 346 q 575 193 457 193 q 700 214 639 193 q 825 281 761 235 l 904 96 q 758 17 849 46 q 569 -12 667 -12 z "},"Ḉ":{"ha":951,"x_min":63,"x_max":904,"o":"m 569 -12 q 300 51 414 -12 q 124 228 186 114 q 63 496 63 343 q 124 761 63 647 q 300 938 186 875 q 569 1001 414 1001 q 758 972 667 1001 q 904 893 849 943 l 825 708 q 700 775 761 754 q 575 796 639 796 q 392 721 457 796 q 328 496 328 646 q 392 269 328 346 q 575 193 457 193 q 700 214 639 193 q 825 281 761 235 l 904 96 q 758 17 849 46 q 569 -12 667 -12 m 531 -278 q 464 -272 501 -278 q 396 -254 426 -265 l 411 -164 q 474 -178 447 -174 q 522 -183 500 -183 q 564 -177 546 -183 q 582 -153 582 -171 q 538 -129 582 -129 q 514 -131 526 -129 q 493 -136 501 -133 l 465 -106 l 483 28 l 611 28 l 594 -79 l 535 -67 q 572 -58 549 -61 q 610 -56 594 -56 q 699 -83 668 -56 q 731 -153 731 -110 q 681 -242 731 -207 q 531 -278 631 -278 m 633 1074 l 482 1074 l 626 1293 l 851 1293 l 633 1074 z "},"Ĉ":{"ha":951,"x_min":63,"x_max":904,"o":"m 569 -12 q 300 51 414 -12 q 124 228 186 114 q 63 496 63 343 q 124 761 63 647 q 300 938 186 875 q 569 1001 414 1001 q 758 972 667 1001 q 904 893 849 943 l 825 708 q 700 775 761 754 q 575 796 639 796 q 392 721 457 796 q 328 496 328 646 q 392 269 328 346 q 575 193 457 193 q 700 214 639 193 q 825 281 761 235 l 904 96 q 758 17 849 46 q 569 -12 667 -12 m 478 1074 l 296 1074 l 489 1293 l 626 1293 l 819 1074 l 638 1074 l 558 1182 l 478 1074 z "},"Ċ":{"ha":951,"x_min":63,"x_max":904,"o":"m 569 -12 q 300 51 414 -12 q 124 228 186 114 q 63 496 63 343 q 124 761 63 647 q 300 938 186 875 q 569 1001 414 1001 q 758 972 667 1001 q 904 893 849 943 l 825 708 q 700 775 761 754 q 575 796 639 796 q 392 721 457 796 q 328 496 328 646 q 392 269 328 346 q 575 193 457 193 q 700 214 639 193 q 825 281 761 235 l 904 96 q 758 17 849 46 q 569 -12 667 -12 m 426 1297 l 689 1297 l 689 1071 l 426 1071 l 426 1297 z "},"D":{"ha":1085,"x_min":89,"x_max":1021,"o":"m 89 0 l 89 989 l 493 989 q 776 930 658 989 q 958 760 894 871 q 1021 496 1021 650 q 958 229 1021 340 q 778 59 896 118 q 493 0 660 0 l 89 0 m 350 208 l 475 208 q 691 280 619 208 q 763 496 763 351 q 475 781 763 781 l 350 781 l 350 208 z "},"Ǆ":{"ha":1931,"x_min":89,"x_max":1882,"o":"m 89 0 l 89 989 l 493 989 q 776 930 658 989 q 958 760 894 871 q 1021 496 1021 650 q 958 229 1021 340 q 778 59 896 118 q 493 0 660 0 l 89 0 m 350 208 l 475 208 q 691 280 619 208 q 763 496 763 351 q 475 781 763 781 l 350 781 l 350 208 z "},"Ð":{"ha":1136,"x_min":24,"x_max":1072,"o":"m 24 401 l 24 596 l 657 596 l 657 401 l 24 401 m 140 0 l 140 989 l 546 989 q 828 930 710 989 q 1009 760 946 871 q 1072 496 1072 650 q 1010 229 1072 340 q 829 59 947 118 q 546 0 711 0 l 140 0 m 401 208 l 526 208 q 742 280 671 208 q 813 496 813 351 q 526 781 813 781 l 401 781 l 401 208 z "},"Ď":{"ha":1085,"x_min":89,"x_max":1021,"o":"m 89 0 l 89 989 l 493 989 q 776 930 658 989 q 958 760 894 871 q 1021 496 1021 650 q 958 229 1021 340 q 778 59 896 118 q 493 0 660 0 l 89 0 m 350 208 l 475 208 q 691 280 619 208 q 763 496 763 351 q 475 781 763 781 l 350 781 l 350 208 m 621 1293 l 803 1293 l 610 1074 l 472 1074 l 279 1293 l 461 1293 l 542 1183 l 621 1293 z "},"Đ":{"ha":1136,"x_min":24,"x_max":1072,"o":"m 24 401 l 24 596 l 657 596 l 657 401 l 24 401 m 140 0 l 140 989 l 546 989 q 828 930 710 989 q 1009 760 946 871 q 1072 496 1072 650 q 1010 229 1072 340 q 829 59 947 118 q 546 0 711 0 l 140 0 m 401 208 l 526 208 q 742 280 671 208 q 813 496 813 351 q 526 781 813 781 l 401 781 l 401 208 z "},"Ḍ":{"ha":1085,"x_min":89,"x_max":1021,"o":"m 89 0 l 89 989 l 493 989 q 776 930 658 989 q 958 760 894 871 q 1021 496 1021 650 q 958 229 1021 340 q 778 59 896 118 q 493 0 660 0 l 89 0 m 350 208 l 475 208 q 691 280 619 208 q 763 496 763 351 q 475 781 763 781 l 350 781 l 350 208 m 431 -79 l 651 -79 l 651 -289 l 431 -289 l 431 -79 z "},"Ḏ":{"ha":1085,"x_min":89,"x_max":1021,"o":"m 89 0 l 89 989 l 493 989 q 776 930 658 989 q 958 760 894 871 q 1021 496 1021 650 q 958 229 1021 340 q 778 59 896 118 q 493 0 660 0 l 89 0 m 350 208 l 475 208 q 691 280 619 208 q 763 496 763 351 q 475 781 763 781 l 350 781 l 350 208 m 318 -254 l 318 -114 l 764 -114 l 764 -254 l 318 -254 z "},"ǅ":{"ha":1828,"x_min":89,"x_max":1785,"o":"m 89 0 l 89 989 l 493 989 q 776 930 658 989 q 958 760 894 871 q 1021 496 1021 650 q 958 229 1021 340 q 778 59 896 118 q 493 0 660 0 l 89 0 m 350 208 l 475 208 q 691 280 619 208 q 763 496 763 351 q 475 781 763 781 l 350 781 l 350 208 z "},"E":{"ha":839,"x_min":89,"x_max":794,"o":"m 89 0 l 89 989 l 794 989 l 794 789 l 343 789 l 343 603 l 765 603 l 765 403 l 343 403 l 343 200 l 794 200 l 794 0 l 89 0 z "},"É":{"ha":839,"x_min":89,"x_max":794,"o":"m 89 0 l 89 989 l 794 989 l 794 789 l 343 789 l 343 603 l 765 603 l 765 403 l 343 403 l 343 200 l 794 200 l 794 0 l 89 0 m 542 1074 l 390 1074 l 535 1293 l 760 1293 l 542 1074 z "},"Ĕ":{"ha":839,"x_min":89,"x_max":794,"o":"m 89 0 l 89 989 l 794 989 l 794 789 l 343 789 l 343 603 l 765 603 l 765 403 l 343 403 l 343 200 l 794 200 l 794 0 l 89 0 m 467 1085 q 302 1124 371 1085 q 208 1239 233 1164 l 315 1285 q 378 1240 338 1253 q 467 1228 419 1228 q 553 1240 513 1228 q 617 1285 594 1253 l 724 1239 q 630 1124 699 1164 q 467 1085 561 1085 z "},"Ě":{"ha":839,"x_min":89,"x_max":794,"o":"m 89 0 l 89 989 l 794 989 l 794 789 l 343 789 l 343 603 l 765 603 l 765 403 l 343 403 l 343 200 l 794 200 l 794 0 l 89 0 m 546 1293 l 728 1293 l 535 1074 l 397 1074 l 204 1293 l 386 1293 l 467 1183 l 546 1293 z "},"Ȩ":{"ha":839,"x_min":89,"x_max":794,"o":"m 89 0 l 89 989 l 794 989 l 794 789 l 343 789 l 343 603 l 765 603 l 765 403 l 343 403 l 343 200 l 794 200 l 794 0 l 89 0 m 439 -278 q 372 -272 410 -278 q 304 -254 335 -265 l 319 -164 q 382 -178 356 -174 q 431 -183 408 -183 q 472 -177 454 -183 q 490 -153 490 -171 q 446 -129 490 -129 q 422 -131 435 -129 q 401 -136 410 -133 l 374 -106 l 392 28 l 519 28 l 503 -79 l 443 -67 q 480 -58 457 -61 q 518 -56 503 -56 q 608 -83 576 -56 q 639 -153 639 -110 q 589 -242 639 -207 q 439 -278 539 -278 z "},"Ḝ":{"ha":839,"x_min":89,"x_max":794,"o":"m 89 0 l 89 989 l 794 989 l 794 789 l 343 789 l 343 603 l 765 603 l 765 403 l 343 403 l 343 200 l 794 200 l 794 0 l 89 0 m 439 -278 q 372 -272 410 -278 q 304 -254 335 -265 l 319 -164 q 382 -178 356 -174 q 431 -183 408 -183 q 472 -177 454 -183 q 490 -153 490 -171 q 446 -129 490 -129 q 422 -131 435 -129 q 401 -136 410 -133 l 374 -106 l 392 28 l 519 28 l 503 -79 l 443 -67 q 480 -58 457 -61 q 518 -56 503 -56 q 608 -83 576 -56 q 639 -153 639 -110 q 589 -242 639 -207 q 439 -278 539 -278 m 467 1085 q 302 1124 371 1085 q 208 1239 233 1164 l 315 1285 q 378 1240 338 1253 q 467 1228 419 1228 q 553 1240 513 1228 q 617 1285 594 1253 l 724 1239 q 630 1124 699 1164 q 467 1085 561 1085 z "},"Ê":{"ha":839,"x_min":89,"x_max":794,"o":"m 89 0 l 89 989 l 794 989 l 794 789 l 343 789 l 343 603 l 765 603 l 765 403 l 343 403 l 343 200 l 794 200 l 794 0 l 89 0 m 386 1074 l 204 1074 l 397 1293 l 535 1293 l 728 1074 l 546 1074 l 467 1182 l 386 1074 z "},"Ế":{"ha":839,"x_min":89,"x_max":890,"o":"m 89 0 l 89 989 l 794 989 l 794 789 l 343 789 l 343 603 l 765 603 l 765 403 l 343 403 l 343 200 l 794 200 l 794 0 l 89 0 m 382 1074 l 204 1074 l 397 1263 l 535 1263 l 728 1074 l 550 1074 l 467 1156 l 382 1074 m 719 1225 l 603 1225 l 693 1422 l 890 1422 l 719 1225 z "},"Ệ":{"ha":839,"x_min":89,"x_max":794,"o":"m 89 0 l 89 989 l 794 989 l 794 789 l 343 789 l 343 603 l 765 603 l 765 403 l 343 403 l 343 200 l 794 200 l 794 0 l 89 0 m 356 -79 l 576 -79 l 576 -289 l 356 -289 l 356 -79 m 386 1074 l 204 1074 l 397 1293 l 535 1293 l 728 1074 l 546 1074 l 467 1182 l 386 1074 z "},"Ề":{"ha":839,"x_min":89,"x_max":794,"o":"m 89 0 l 89 989 l 794 989 l 794 789 l 343 789 l 343 603 l 765 603 l 765 403 l 343 403 l 343 200 l 794 200 l 794 0 l 89 0 m 382 1074 l 204 1074 l 397 1263 l 535 1263 l 728 1074 l 550 1074 l 467 1156 l 382 1074 m 663 1225 l 486 1422 l 685 1422 l 779 1225 l 663 1225 z "},"Ể":{"ha":839,"x_min":89,"x_max":838,"o":"m 89 0 l 89 989 l 794 989 l 794 789 l 343 789 l 343 603 l 765 603 l 765 403 l 343 403 l 343 200 l 794 200 l 794 0 l 89 0 m 382 1074 l 204 1074 l 397 1263 l 535 1263 l 728 1074 l 550 1074 l 467 1156 l 382 1074 m 718 1238 l 718 1228 l 601 1228 l 601 1257 q 615 1291 601 1278 q 647 1311 629 1304 q 679 1322 665 1318 q 693 1329 693 1325 q 685 1340 693 1335 q 651 1346 676 1346 q 618 1342 639 1346 q 574 1331 597 1339 l 543 1406 q 603 1423 569 1415 q 685 1431 638 1431 q 797 1408 756 1431 q 838 1350 838 1385 q 819 1306 838 1321 q 778 1283 801 1292 q 736 1265 754 1275 q 718 1238 718 1256 z "},"Ễ":{"ha":839,"x_min":89,"x_max":794,"o":"m 89 0 l 89 989 l 794 989 l 794 789 l 343 789 l 343 603 l 765 603 l 765 403 l 343 403 l 343 200 l 794 200 l 794 0 l 89 0 m 382 1074 l 204 1074 l 397 1263 l 535 1263 l 728 1074 l 550 1074 l 467 1156 l 382 1074 m 215 1289 q 238 1366 215 1332 q 297 1419 260 1400 q 378 1439 335 1439 q 444 1429 413 1439 q 503 1410 475 1419 q 558 1400 532 1400 q 597 1406 581 1400 q 617 1433 613 1411 l 717 1433 q 694 1356 717 1390 q 635 1303 672 1322 q 554 1283 597 1283 q 488 1293 519 1283 q 428 1313 457 1303 q 374 1324 400 1324 q 335 1317 351 1324 q 315 1289 319 1311 l 215 1289 z "},"Ȅ":{"ha":839,"x_min":89,"x_max":794,"o":"m 89 0 l 89 989 l 794 989 l 794 789 l 343 789 l 343 603 l 765 603 l 765 403 l 343 403 l 343 200 l 794 200 l 794 0 l 89 0 m 508 1074 l 367 1293 l 526 1293 l 631 1074 l 508 1074 m 301 1074 l 161 1293 l 319 1293 l 424 1074 l 301 1074 z "},"Ë":{"ha":839,"x_min":89,"x_max":794,"o":"m 89 0 l 89 989 l 794 989 l 794 789 l 343 789 l 343 603 l 765 603 l 765 403 l 343 403 l 343 200 l 794 200 l 794 0 l 89 0 m 494 1289 l 717 1289 l 717 1079 l 494 1079 l 494 1289 m 215 1289 l 438 1289 l 438 1079 l 215 1079 l 215 1289 z "},"Ė":{"ha":839,"x_min":89,"x_max":794,"o":"m 89 0 l 89 989 l 794 989 l 794 789 l 343 789 l 343 603 l 765 603 l 765 403 l 343 403 l 343 200 l 794 200 l 794 0 l 89 0 m 335 1297 l 597 1297 l 597 1071 l 335 1071 l 335 1297 z "},"Ẹ":{"ha":839,"x_min":89,"x_max":794,"o":"m 89 0 l 89 989 l 794 989 l 794 789 l 343 789 l 343 603 l 765 603 l 765 403 l 343 403 l 343 200 l 794 200 l 794 0 l 89 0 m 356 -79 l 576 -79 l 576 -289 l 356 -289 l 356 -79 z "},"È":{"ha":839,"x_min":89,"x_max":794,"o":"m 89 0 l 89 989 l 794 989 l 794 789 l 343 789 l 343 603 l 765 603 l 765 403 l 343 403 l 343 200 l 794 200 l 794 0 l 89 0 m 390 1074 l 172 1293 l 397 1293 l 542 1074 l 390 1074 z "},"Ẻ":{"ha":839,"x_min":89,"x_max":794,"o":"m 89 0 l 89 989 l 794 989 l 794 789 l 343 789 l 343 603 l 765 603 l 765 403 l 343 403 l 343 200 l 794 200 l 794 0 l 89 0 m 524 1093 l 524 1074 l 407 1074 l 407 1106 q 421 1142 407 1129 q 453 1161 435 1154 q 485 1174 471 1168 q 499 1188 499 1179 q 490 1203 499 1197 q 456 1210 482 1210 q 423 1206 443 1210 q 379 1196 403 1203 l 349 1274 q 408 1291 375 1283 q 490 1299 442 1299 q 601 1272 560 1299 q 643 1210 643 1246 q 625 1167 643 1182 q 583 1142 607 1151 q 542 1122 560 1132 q 524 1093 524 1111 z "},"Ȇ":{"ha":839,"x_min":89,"x_max":794,"o":"m 89 0 l 89 989 l 794 989 l 794 789 l 343 789 l 343 603 l 765 603 l 765 403 l 343 403 l 343 200 l 794 200 l 794 0 l 89 0 m 467 1283 q 630 1244 561 1283 q 724 1129 699 1204 l 617 1085 q 553 1128 594 1115 q 467 1142 513 1142 q 378 1128 419 1142 q 315 1085 338 1115 l 208 1129 q 302 1244 233 1204 q 467 1283 371 1283 z "},"Ē":{"ha":839,"x_min":89,"x_max":794,"o":"m 89 0 l 89 989 l 794 989 l 794 789 l 343 789 l 343 603 l 765 603 l 765 403 l 343 403 l 343 200 l 794 200 l 794 0 l 89 0 m 243 1108 l 243 1258 l 689 1258 l 689 1108 l 243 1108 z "},"Ḗ":{"ha":839,"x_min":89,"x_max":794,"o":"m 89 0 l 89 989 l 794 989 l 794 789 l 343 789 l 343 603 l 765 603 l 765 403 l 343 403 l 343 200 l 794 200 l 794 0 l 89 0 m 243 1108 l 243 1258 l 689 1258 l 689 1108 l 243 1108 m 542 1299 l 390 1299 l 535 1518 l 760 1518 l 542 1299 z "},"Ḕ":{"ha":839,"x_min":89,"x_max":794,"o":"m 89 0 l 89 989 l 794 989 l 794 789 l 343 789 l 343 603 l 765 603 l 765 403 l 343 403 l 343 200 l 794 200 l 794 0 l 89 0 m 243 1108 l 243 1258 l 689 1258 l 689 1108 l 243 1108 m 390 1299 l 172 1518 l 397 1518 l 542 1299 l 390 1299 z "},"Ę":{"ha":839,"x_min":89,"x_max":851,"o":"m 828 -139 l 851 -251 q 778 -272 817 -265 q 703 -278 740 -278 q 569 -234 621 -278 q 518 -122 518 -190 q 608 28 518 -24 l 636 0 l 89 0 l 89 989 l 794 989 l 794 789 l 343 789 l 343 603 l 765 603 l 765 403 l 343 403 l 343 200 l 794 200 l 794 0 l 760 0 q 698 -22 722 0 q 674 -85 674 -44 q 694 -137 674 -119 q 751 -154 714 -154 q 789 -150 769 -154 q 828 -139 808 -146 z "},"Ẽ":{"ha":839,"x_min":89,"x_max":794,"o":"m 89 0 l 89 989 l 794 989 l 794 789 l 343 789 l 343 603 l 765 603 l 765 403 l 343 403 l 343 200 l 794 200 l 794 0 l 89 0 m 215 1075 q 264 1245 215 1193 q 378 1297 313 1297 q 444 1280 413 1297 q 503 1245 475 1263 q 558 1228 532 1228 q 597 1244 581 1228 q 617 1293 613 1260 l 717 1293 q 668 1123 717 1175 q 554 1071 619 1071 q 488 1088 519 1071 q 428 1123 457 1106 q 374 1140 400 1140 q 335 1124 351 1140 q 315 1075 319 1108 l 215 1075 z "},"F":{"ha":811,"x_min":89,"x_max":779,"o":"m 89 0 l 89 989 l 779 989 l 779 785 l 346 785 l 346 604 l 751 604 l 751 401 l 346 401 l 346 0 l 89 0 z "},"G":{"ha":1043,"x_min":63,"x_max":967,"o":"m 589 -12 q 308 49 426 -12 q 126 224 190 110 q 63 496 63 338 q 126 764 63 650 q 306 940 190 878 q 579 1001 422 1001 q 781 974 686 1001 q 936 897 876 946 l 854 713 q 722 777 785 757 q 588 797 660 797 q 391 723 456 797 q 326 496 326 649 q 394 261 326 338 q 601 185 461 185 q 693 192 646 185 q 789 214 740 199 l 732 139 l 732 382 l 560 382 l 560 558 l 967 558 l 967 63 q 852 21 914 38 q 724 -4 790 4 q 589 -12 657 -12 z "},"Ğ":{"ha":1043,"x_min":63,"x_max":967,"o":"m 589 -12 q 308 49 426 -12 q 126 224 190 110 q 63 496 63 338 q 126 764 63 650 q 306 940 190 878 q 579 1001 422 1001 q 781 974 686 1001 q 936 897 876 946 l 854 713 q 722 777 785 757 q 588 797 660 797 q 391 723 456 797 q 326 496 326 649 q 394 261 326 338 q 601 185 461 185 q 693 192 646 185 q 789 214 740 199 l 732 139 l 732 382 l 560 382 l 560 558 l 967 558 l 967 63 q 852 21 914 38 q 724 -4 790 4 q 589 -12 657 -12 m 579 1085 q 415 1124 483 1085 q 321 1239 346 1164 l 428 1285 q 491 1240 450 1253 q 579 1228 532 1228 q 666 1240 625 1228 q 729 1285 707 1253 l 836 1239 q 742 1124 811 1164 q 579 1085 674 1085 z "},"Ǧ":{"ha":1043,"x_min":63,"x_max":967,"o":"m 589 -12 q 308 49 426 -12 q 126 224 190 110 q 63 496 63 338 q 126 764 63 650 q 306 940 190 878 q 579 1001 422 1001 q 781 974 686 1001 q 936 897 876 946 l 854 713 q 722 777 785 757 q 588 797 660 797 q 391 723 456 797 q 326 496 326 649 q 394 261 326 338 q 601 185 461 185 q 693 192 646 185 q 789 214 740 199 l 732 139 l 732 382 l 560 382 l 560 558 l 967 558 l 967 63 q 852 21 914 38 q 724 -4 790 4 q 589 -12 657 -12 m 658 1293 l 840 1293 l 647 1074 l 510 1074 l 317 1293 l 499 1293 l 579 1183 l 658 1293 z "},"Ĝ":{"ha":1043,"x_min":63,"x_max":967,"o":"m 589 -12 q 308 49 426 -12 q 126 224 190 110 q 63 496 63 338 q 126 764 63 650 q 306 940 190 878 q 579 1001 422 1001 q 781 974 686 1001 q 936 897 876 946 l 854 713 q 722 777 785 757 q 588 797 660 797 q 391 723 456 797 q 326 496 326 649 q 394 261 326 338 q 601 185 461 185 q 693 192 646 185 q 789 214 740 199 l 732 139 l 732 382 l 560 382 l 560 558 l 967 558 l 967 63 q 852 21 914 38 q 724 -4 790 4 q 589 -12 657 -12 m 499 1074 l 317 1074 l 510 1293 l 647 1293 l 840 1074 l 658 1074 l 579 1182 l 499 1074 z "},"Ģ":{"ha":1043,"x_min":63,"x_max":967,"o":"m 589 -12 q 308 49 426 -12 q 126 224 190 110 q 63 496 63 338 q 126 764 63 650 q 306 940 190 878 q 579 1001 422 1001 q 781 974 686 1001 q 936 897 876 946 l 854 713 q 722 777 785 757 q 588 797 660 797 q 391 723 456 797 q 326 496 326 649 q 394 261 326 338 q 601 185 461 185 q 693 192 646 185 q 789 214 740 199 l 732 139 l 732 382 l 560 382 l 560 558 l 967 558 l 967 63 q 852 21 914 38 q 724 -4 790 4 q 589 -12 657 -12 m 707 -89 l 707 -182 q 688 -299 707 -247 q 618 -394 668 -350 l 532 -336 q 572 -284 561 -311 q 583 -226 583 -257 l 635 -267 l 468 -267 l 468 -89 l 707 -89 z "},"Ġ":{"ha":1043,"x_min":63,"x_max":967,"o":"m 589 -12 q 308 49 426 -12 q 126 224 190 110 q 63 496 63 338 q 126 764 63 650 q 306 940 190 878 q 579 1001 422 1001 q 781 974 686 1001 q 936 897 876 946 l 854 713 q 722 777 785 757 q 588 797 660 797 q 391 723 456 797 q 326 496 326 649 q 394 261 326 338 q 601 185 461 185 q 693 192 646 185 q 789 214 740 199 l 732 139 l 732 382 l 560 382 l 560 558 l 967 558 l 967 63 q 852 21 914 38 q 724 -4 790 4 q 589 -12 657 -12 m 447 1297 l 710 1297 l 710 1071 l 447 1071 l 447 1297 z "},"Ḡ":{"ha":1043,"x_min":63,"x_max":967,"o":"m 589 -12 q 308 49 426 -12 q 126 224 190 110 q 63 496 63 338 q 126 764 63 650 q 306 940 190 878 q 579 1001 422 1001 q 781 974 686 1001 q 936 897 876 946 l 854 713 q 722 777 785 757 q 588 797 660 797 q 391 723 456 797 q 326 496 326 649 q 394 261 326 338 q 601 185 461 185 q 693 192 646 185 q 789 214 740 199 l 732 139 l 732 382 l 560 382 l 560 558 l 967 558 l 967 63 q 852 21 914 38 q 724 -4 790 4 q 589 -12 657 -12 m 356 1108 l 356 1258 l 801 1258 l 801 1108 l 356 1108 z "},"H":{"ha":1089,"x_min":89,"x_max":1000,"o":"m 744 0 l 744 989 l 1000 989 l 1000 0 l 744 0 m 89 0 l 89 989 l 344 989 l 344 0 l 89 0 m 165 400 l 165 604 l 899 604 l 899 400 l 165 400 z "},"Ħ":{"ha":1192,"x_min":24,"x_max":1167,"o":"m 24 706 l 24 894 l 1167 894 l 1167 706 l 24 706 m 796 0 l 796 989 l 1051 989 l 1051 0 l 796 0 m 140 0 l 140 989 l 396 989 l 396 0 l 140 0 m 218 400 l 218 604 l 957 604 l 957 400 l 218 400 z "},"Ḫ":{"ha":1089,"x_min":89,"x_max":1000,"o":"m 744 0 l 744 989 l 1000 989 l 1000 0 l 744 0 m 89 0 l 89 989 l 344 989 l 344 0 l 89 0 m 165 400 l 165 604 l 899 604 l 899 400 l 165 400 m 544 -326 q 426 -303 483 -326 q 328 -233 369 -281 q 272 -114 288 -185 l 379 -69 q 455 -149 413 -125 q 544 -174 497 -174 q 633 -149 590 -174 q 708 -69 675 -125 l 815 -114 q 759 -233 800 -186 q 662 -303 718 -281 q 544 -326 606 -326 z "},"Ĥ":{"ha":1089,"x_min":89,"x_max":1000,"o":"m 744 0 l 744 989 l 1000 989 l 1000 0 l 744 0 m 89 0 l 89 989 l 344 989 l 344 0 l 89 0 m 165 400 l 165 604 l 899 604 l 899 400 l 165 400 m 464 1074 l 282 1074 l 475 1293 l 613 1293 l 806 1074 l 624 1074 l 544 1182 l 464 1074 z "},"Ḥ":{"ha":1089,"x_min":89,"x_max":1000,"o":"m 744 0 l 744 989 l 1000 989 l 1000 0 l 744 0 m 89 0 l 89 989 l 344 989 l 344 0 l 89 0 m 165 400 l 165 604 l 899 604 l 899 400 l 165 400 m 433 -79 l 654 -79 l 654 -289 l 433 -289 l 433 -79 z "},"I":{"ha":439,"x_min":89,"x_max":350,"o":"m 89 0 l 89 989 l 350 989 l 350 0 l 89 0 z "},"Í":{"ha":439,"x_min":89,"x_max":511,"o":"m 89 0 l 89 989 l 350 989 l 350 0 l 89 0 m 293 1074 l 142 1074 l 286 1293 l 511 1293 l 293 1074 z "},"Ĭ":{"ha":439,"x_min":-40,"x_max":475,"o":"m 89 0 l 89 989 l 350 989 l 350 0 l 89 0 m 218 1085 q 53 1124 122 1085 q -40 1239 -15 1164 l 67 1285 q 130 1240 89 1253 q 218 1228 171 1228 q 305 1240 264 1228 q 368 1285 346 1253 l 475 1239 q 381 1124 450 1164 q 218 1085 313 1085 z "},"Î":{"ha":439,"x_min":-44,"x_max":479,"o":"m 89 0 l 89 989 l 350 989 l 350 0 l 89 0 m 138 1074 l -44 1074 l 149 1293 l 286 1293 l 479 1074 l 297 1074 l 218 1182 l 138 1074 z "},"Ȉ":{"ha":439,"x_min":-87,"x_max":382,"o":"m 89 0 l 89 989 l 350 989 l 350 0 l 89 0 m 260 1074 l 118 1293 l 278 1293 l 382 1074 l 260 1074 m 53 1074 l -87 1293 l 71 1293 l 175 1074 l 53 1074 z "},"Ï":{"ha":439,"x_min":-33,"x_max":468,"o":"m 89 0 l 89 989 l 350 989 l 350 0 l 89 0 m 246 1289 l 468 1289 l 468 1079 l 246 1079 l 246 1289 m -33 1289 l 189 1289 l 189 1079 l -33 1079 l -33 1289 z "},"Ḯ":{"ha":439,"x_min":-33,"x_max":511,"o":"m 89 0 l 89 989 l 350 989 l 350 0 l 89 0 m 246 1289 l 468 1289 l 468 1079 l 246 1079 l 246 1289 m -33 1289 l 189 1289 l 189 1079 l -33 1079 l -33 1289 m 293 1299 l 142 1299 l 286 1518 l 511 1518 l 293 1299 z "},"İ":{"ha":439,"x_min":86,"x_max":350,"o":"m 89 0 l 89 989 l 350 989 l 350 0 l 89 0 m 86 1297 l 349 1297 l 349 1071 l 86 1071 l 86 1297 z "},"Ị":{"ha":439,"x_min":89,"x_max":350,"o":"m 89 0 l 89 989 l 350 989 l 350 0 l 89 0 m 107 -79 l 328 -79 l 328 -289 l 107 -289 l 107 -79 z "},"Ì":{"ha":439,"x_min":-76,"x_max":350,"o":"m 89 0 l 89 989 l 350 989 l 350 0 l 89 0 m 142 1074 l -76 1293 l 149 1293 l 293 1074 l 142 1074 z "},"Ỉ":{"ha":439,"x_min":89,"x_max":394,"o":"m 89 0 l 89 989 l 350 989 l 350 0 l 89 0 m 275 1093 l 275 1074 l 158 1074 l 158 1106 q 172 1142 158 1129 q 204 1161 186 1154 q 236 1174 222 1168 q 250 1188 250 1179 q 242 1203 250 1197 q 207 1210 233 1210 q 174 1206 194 1210 q 131 1196 154 1203 l 100 1274 q 160 1291 126 1283 q 242 1299 193 1299 q 353 1272 311 1299 q 394 1210 394 1246 q 376 1167 394 1182 q 335 1142 358 1151 q 293 1122 311 1132 q 275 1093 275 1111 z "},"Ȋ":{"ha":439,"x_min":-40,"x_max":475,"o":"m 89 0 l 89 989 l 350 989 l 350 0 l 89 0 m 218 1283 q 381 1244 313 1283 q 475 1129 450 1204 l 368 1085 q 305 1128 346 1115 q 218 1142 264 1142 q 130 1128 171 1142 q 67 1085 89 1115 l -40 1129 q 53 1244 -15 1204 q 218 1283 122 1283 z "},"Ī":{"ha":439,"x_min":-6,"x_max":440,"o":"m 89 0 l 89 989 l 350 989 l 350 0 l 89 0 m -6 1108 l -6 1258 l 440 1258 l 440 1108 l -6 1108 z "},"Į":{"ha":439,"x_min":56,"x_max":390,"o":"m 242 -278 q 110 -236 165 -278 q 56 -118 56 -194 q 85 -24 56 -68 q 176 51 115 21 l 161 0 l 89 0 l 89 989 l 350 989 l 350 0 l 325 0 q 242 -24 274 0 q 211 -85 211 -47 q 232 -137 211 -119 q 292 -154 253 -154 q 328 -150 310 -154 q 365 -139 346 -146 l 390 -251 q 318 -272 356 -265 q 242 -278 281 -278 z "},"Ĩ":{"ha":439,"x_min":-33,"x_max":468,"o":"m 89 0 l 89 989 l 350 989 l 350 0 l 89 0 m -33 1075 q 15 1245 -33 1193 q 129 1297 64 1297 q 195 1280 164 1297 q 255 1245 226 1263 q 310 1228 283 1228 q 348 1244 332 1228 q 368 1293 364 1260 l 468 1293 q 419 1123 468 1175 q 306 1071 371 1071 q 240 1088 271 1071 q 180 1123 208 1106 q 125 1140 151 1140 q 87 1124 103 1140 q 67 1075 71 1108 l -33 1075 z "},"J":{"ha":560,"x_min":3,"x_max":469,"o":"m 3 -249 l 3 -40 q 134 -46 90 -50 q 193 -15 178 -42 q 208 74 208 13 l 208 989 l 469 989 l 469 78 q 428 -137 469 -56 q 284 -247 386 -218 q 3 -249 182 -275 z "},"Ĵ":{"ha":560,"x_min":3,"x_max":599,"o":"m 3 -249 l 3 -40 q 134 -46 90 -50 q 193 -15 178 -42 q 208 74 208 13 l 208 989 l 469 989 l 469 78 q 428 -137 469 -56 q 284 -247 386 -218 q 3 -249 182 -275 m 257 1074 l 75 1074 l 268 1293 l 406 1293 l 599 1074 l 417 1074 l 338 1182 l 257 1074 z "},"K":{"ha":981,"x_min":89,"x_max":1056,"o":"m 746 0 l 299 507 l 735 989 l 1040 989 l 533 444 l 554 576 l 1056 0 l 746 0 m 89 0 l 89 989 l 350 989 l 350 0 l 89 0 z "},"Ķ":{"ha":981,"x_min":89,"x_max":1056,"o":"m 746 0 l 299 507 l 735 989 l 1040 989 l 533 444 l 554 576 l 1056 0 l 746 0 m 89 0 l 89 989 l 350 989 l 350 0 l 89 0 m 611 -89 l 611 -182 q 592 -299 611 -247 q 522 -394 572 -350 l 436 -336 q 476 -284 465 -311 q 488 -226 488 -257 l 539 -267 l 372 -267 l 372 -89 l 611 -89 z "},"L":{"ha":804,"x_min":89,"x_max":768,"o":"m 89 0 l 89 989 l 350 989 l 350 211 l 768 211 l 768 0 l 89 0 z "},"Ǉ":{"ha":1311,"x_min":89,"x_max":1222,"o":"m 89 0 l 89 989 l 350 989 l 350 211 l 726 211 l 726 0 l 89 0 m 754 -249 l 754 -40 q 886 -46 842 -50 q 946 -15 931 -42 q 961 74 961 13 l 961 989 l 1222 989 l 1222 78 q 1181 -137 1222 -56 q 1037 -247 1139 -218 q 754 -249 935 -275 z "},"Ĺ":{"ha":804,"x_min":89,"x_max":768,"o":"m 89 0 l 89 989 l 350 989 l 350 211 l 768 211 l 768 0 l 89 0 m 293 1074 l 142 1074 l 286 1293 l 511 1293 l 293 1074 z "},"Ľ":{"ha":804,"x_min":89,"x_max":768,"o":"m 89 0 l 89 989 l 350 989 l 350 211 l 768 211 l 768 0 l 89 0 m 589 715 l 475 715 l 475 989 l 625 989 l 589 715 z "},"Ļ":{"ha":804,"x_min":89,"x_max":768,"o":"m 89 0 l 89 989 l 350 989 l 350 211 l 768 211 l 768 0 l 89 0 m 558 -89 l 558 -182 q 539 -299 558 -247 q 469 -394 519 -350 l 383 -336 q 424 -284 413 -311 q 435 -226 435 -257 l 486 -267 l 319 -267 l 319 -89 l 558 -89 z "},"Ŀ":{"ha":804,"x_min":89,"x_max":768,"o":"m 89 0 l 89 989 l 350 989 l 350 211 l 768 211 l 768 0 l 89 0 m 442 607 l 701 607 l 701 383 l 442 383 l 442 607 z "},"Ḷ":{"ha":804,"x_min":89,"x_max":768,"o":"m 89 0 l 89 989 l 350 989 l 350 211 l 768 211 l 768 0 l 89 0 m 329 -79 l 550 -79 l 550 -289 l 329 -289 l 329 -79 z "},"ǈ":{"ha":1206,"x_min":89,"x_max":1133,"o":"m 89 0 l 89 989 l 350 989 l 350 211 l 768 211 l 768 0 l 89 0 z "},"Ḻ":{"ha":804,"x_min":89,"x_max":768,"o":"m 89 0 l 89 989 l 350 989 l 350 211 l 768 211 l 768 0 l 89 0 m 217 -254 l 217 -114 l 663 -114 l 663 -254 l 217 -254 z "},"Ł":{"ha":857,"x_min":14,"x_max":821,"o":"m 14 242 l 14 460 l 656 831 l 656 610 l 14 242 m 140 0 l 140 989 l 401 989 l 401 211 l 821 211 l 821 0 l 140 0 z "},"M":{"ha":1183,"x_min":93,"x_max":1090,"o":"m 93 0 l 93 989 l 297 989 l 636 215 l 550 215 l 888 989 l 1090 989 l 1090 0 l 863 0 l 861 594 l 914 579 l 674 0 l 508 0 l 264 579 l 319 594 l 319 0 l 93 0 z "},"Ṃ":{"ha":1183,"x_min":93,"x_max":1090,"o":"m 93 0 l 93 989 l 297 989 l 636 215 l 550 215 l 888 989 l 1090 989 l 1090 0 l 863 0 l 861 594 l 914 579 l 674 0 l 508 0 l 264 579 l 319 594 l 319 0 l 93 0 m 479 -79 l 700 -79 l 700 -289 l 479 -289 l 479 -79 z "},"N":{"ha":1064,"x_min":89,"x_max":974,"o":"m 89 0 l 89 989 l 279 989 l 771 376 l 728 343 l 728 989 l 974 989 l 974 0 l 781 0 l 293 610 l 332 646 l 332 0 l 89 0 z "},"Ǌ":{"ha":1622,"x_min":89,"x_max":1533,"o":"m 89 0 l 89 989 l 279 989 l 771 376 l 728 343 l 728 989 l 974 989 l 974 0 l 781 0 l 293 610 l 332 646 l 332 0 l 89 0 m 1067 -249 l 1067 -40 q 1198 -46 1154 -50 q 1257 -15 1242 -42 q 1272 74 1272 13 l 1272 989 l 1533 989 l 1533 78 q 1492 -137 1533 -56 q 1348 -247 1450 -218 q 1067 -249 1246 -275 z "},"Ń":{"ha":1064,"x_min":89,"x_max":974,"o":"m 89 0 l 89 989 l 279 989 l 771 376 l 728 343 l 728 989 l 974 989 l 974 0 l 781 0 l 293 610 l 332 646 l 332 0 l 89 0 m 606 1074 l 454 1074 l 599 1293 l 824 1293 l 606 1074 z "},"Ň":{"ha":1064,"x_min":89,"x_max":974,"o":"m 89 0 l 89 989 l 279 989 l 771 376 l 728 343 l 728 989 l 974 989 l 974 0 l 781 0 l 293 610 l 332 646 l 332 0 l 89 0 m 610 1293 l 792 1293 l 599 1074 l 461 1074 l 268 1293 l 450 1293 l 531 1183 l 610 1293 z "},"Ņ":{"ha":1064,"x_min":89,"x_max":974,"o":"m 89 0 l 89 989 l 279 989 l 771 376 l 728 343 l 728 989 l 974 989 l 974 0 l 781 0 l 293 610 l 332 646 l 332 0 l 89 0 m 650 -89 l 650 -182 q 631 -299 650 -247 q 561 -394 611 -350 l 475 -336 q 515 -284 504 -311 q 526 -226 526 -257 l 578 -267 l 411 -267 l 411 -89 l 650 -89 z "},"Ṅ":{"ha":1064,"x_min":89,"x_max":974,"o":"m 89 0 l 89 989 l 279 989 l 771 376 l 728 343 l 728 989 l 974 989 l 974 0 l 781 0 l 293 610 l 332 646 l 332 0 l 89 0 m 399 1297 l 661 1297 l 661 1071 l 399 1071 l 399 1297 z "},"Ṇ":{"ha":1064,"x_min":89,"x_max":974,"o":"m 89 0 l 89 989 l 279 989 l 771 376 l 728 343 l 728 989 l 974 989 l 974 0 l 781 0 l 293 610 l 332 646 l 332 0 l 89 0 m 421 -79 l 642 -79 l 642 -289 l 421 -289 l 421 -79 z "},"Ŋ":{"ha":1064,"x_min":89,"x_max":974,"o":"m 728 989 l 974 989 l 974 54 q 894 -172 974 -94 q 661 -257 814 -249 l 517 -264 l 500 -71 l 614 -64 q 697 -31 668 -61 q 726 46 726 -1 l 726 146 l 772 13 l 293 610 l 332 646 l 332 0 l 89 0 l 89 989 l 279 989 l 771 376 l 728 343 l 728 989 z "},"ǋ":{"ha":1465,"x_min":89,"x_max":1393,"o":"m 89 0 l 89 989 l 279 989 l 771 376 l 728 343 l 728 989 l 974 989 l 974 0 l 781 0 l 293 610 l 332 646 l 332 0 l 89 0 z "},"Ṉ":{"ha":1064,"x_min":89,"x_max":974,"o":"m 89 0 l 89 989 l 279 989 l 771 376 l 728 343 l 728 989 l 974 989 l 974 0 l 781 0 l 293 610 l 332 646 l 332 0 l 89 0 m 308 -254 l 308 -114 l 754 -114 l 754 -254 l 308 -254 z "},"Ñ":{"ha":1064,"x_min":89,"x_max":974,"o":"m 89 0 l 89 989 l 279 989 l 771 376 l 728 343 l 728 989 l 974 989 l 974 0 l 781 0 l 293 610 l 332 646 l 332 0 l 89 0 m 279 1075 q 328 1245 279 1193 q 442 1297 376 1297 q 508 1280 476 1297 q 567 1245 539 1263 q 622 1228 596 1228 q 660 1244 644 1228 q 681 1293 676 1260 l 781 1293 q 732 1123 781 1175 q 618 1071 683 1071 q 552 1088 583 1071 q 492 1123 521 1106 q 438 1140 464 1140 q 399 1124 415 1140 q 379 1075 383 1108 l 279 1075 z "},"O":{"ha":1118,"x_min":63,"x_max":1054,"o":"m 560 -12 q 295 50 407 -12 q 123 226 183 113 q 63 496 63 340 q 124 764 63 650 q 296 940 185 878 q 560 1001 407 1001 q 823 940 713 1001 q 994 764 933 878 q 1054 496 1054 650 q 994 226 1054 340 q 823 50 933 113 q 560 -12 713 -12 m 560 186 q 733 264 668 186 q 797 496 797 342 q 733 726 797 649 q 560 803 668 803 q 388 726 451 803 q 324 496 324 650 q 388 263 324 340 q 560 186 451 186 z "},"Ó":{"ha":1118,"x_min":63,"x_max":1054,"o":"m 560 -12 q 295 50 407 -12 q 123 226 183 113 q 63 496 63 340 q 124 764 63 650 q 296 940 185 878 q 560 1001 407 1001 q 823 940 713 1001 q 994 764 933 878 q 1054 496 1054 650 q 994 226 1054 340 q 823 50 933 113 q 560 -12 713 -12 m 560 186 q 733 264 668 186 q 797 496 797 342 q 733 726 797 649 q 560 803 668 803 q 388 726 451 803 q 324 496 324 650 q 388 263 324 340 q 560 186 451 186 m 633 1074 l 482 1074 l 626 1293 l 851 1293 l 633 1074 z "},"Ŏ":{"ha":1118,"x_min":63,"x_max":1054,"o":"m 560 -12 q 295 50 407 -12 q 123 226 183 113 q 63 496 63 340 q 124 764 63 650 q 296 940 185 878 q 560 1001 407 1001 q 823 940 713 1001 q 994 764 933 878 q 1054 496 1054 650 q 994 226 1054 340 q 823 50 933 113 q 560 -12 713 -12 m 560 186 q 733 264 668 186 q 797 496 797 342 q 733 726 797 649 q 560 803 668 803 q 388 726 451 803 q 324 496 324 650 q 388 263 324 340 q 560 186 451 186 m 558 1085 q 394 1124 463 1085 q 300 1239 325 1164 l 407 1285 q 470 1240 429 1253 q 558 1228 511 1228 q 645 1240 604 1228 q 708 1285 686 1253 l 815 1239 q 722 1124 790 1164 q 558 1085 653 1085 z "},"Ô":{"ha":1118,"x_min":63,"x_max":1054,"o":"m 560 -12 q 295 50 407 -12 q 123 226 183 113 q 63 496 63 340 q 124 764 63 650 q 296 940 185 878 q 560 1001 407 1001 q 823 940 713 1001 q 994 764 933 878 q 1054 496 1054 650 q 994 226 1054 340 q 823 50 933 113 q 560 -12 713 -12 m 560 186 q 733 264 668 186 q 797 496 797 342 q 733 726 797 649 q 560 803 668 803 q 388 726 451 803 q 324 496 324 650 q 388 263 324 340 q 560 186 451 186 m 478 1074 l 296 1074 l 489 1293 l 626 1293 l 819 1074 l 638 1074 l 558 1182 l 478 1074 z "},"Ố":{"ha":1118,"x_min":63,"x_max":1054,"o":"m 560 -12 q 295 50 407 -12 q 123 226 183 113 q 63 496 63 340 q 124 764 63 650 q 296 940 185 878 q 560 1001 407 1001 q 823 940 713 1001 q 994 764 933 878 q 1054 496 1054 650 q 994 226 1054 340 q 823 50 933 113 q 560 -12 713 -12 m 560 186 q 733 264 668 186 q 797 496 797 342 q 733 726 797 649 q 560 803 668 803 q 388 726 451 803 q 324 496 324 650 q 388 263 324 340 q 560 186 451 186 m 474 1074 l 296 1074 l 489 1263 l 626 1263 l 819 1074 l 642 1074 l 558 1156 l 474 1074 m 811 1225 l 694 1225 l 785 1422 l 982 1422 l 811 1225 z "},"Ộ":{"ha":1118,"x_min":63,"x_max":1054,"o":"m 560 -12 q 295 50 407 -12 q 123 226 183 113 q 63 496 63 340 q 124 764 63 650 q 296 940 185 878 q 560 1001 407 1001 q 823 940 713 1001 q 994 764 933 878 q 1054 496 1054 650 q 994 226 1054 340 q 823 50 933 113 q 560 -12 713 -12 m 560 186 q 733 264 668 186 q 797 496 797 342 q 733 726 797 649 q 560 803 668 803 q 388 726 451 803 q 324 496 324 650 q 388 263 324 340 q 560 186 451 186 m 449 -79 l 669 -79 l 669 -289 l 449 -289 l 449 -79 m 478 1074 l 296 1074 l 489 1293 l 626 1293 l 819 1074 l 638 1074 l 558 1182 l 478 1074 z "},"Ồ":{"ha":1118,"x_min":63,"x_max":1054,"o":"m 560 -12 q 295 50 407 -12 q 123 226 183 113 q 63 496 63 340 q 124 764 63 650 q 296 940 185 878 q 560 1001 407 1001 q 823 940 713 1001 q 994 764 933 878 q 1054 496 1054 650 q 994 226 1054 340 q 823 50 933 113 q 560 -12 713 -12 m 560 186 q 733 264 668 186 q 797 496 797 342 q 733 726 797 649 q 560 803 668 803 q 388 726 451 803 q 324 496 324 650 q 388 263 324 340 q 560 186 451 186 m 474 1074 l 296 1074 l 489 1263 l 626 1263 l 819 1074 l 642 1074 l 558 1156 l 474 1074 m 754 1225 l 578 1422 l 776 1422 l 871 1225 l 754 1225 z "},"Ổ":{"ha":1118,"x_min":63,"x_max":1054,"o":"m 560 -12 q 295 50 407 -12 q 123 226 183 113 q 63 496 63 340 q 124 764 63 650 q 296 940 185 878 q 560 1001 407 1001 q 823 940 713 1001 q 994 764 933 878 q 1054 496 1054 650 q 994 226 1054 340 q 823 50 933 113 q 560 -12 713 -12 m 560 186 q 733 264 668 186 q 797 496 797 342 q 733 726 797 649 q 560 803 668 803 q 388 726 451 803 q 324 496 324 650 q 388 263 324 340 q 560 186 451 186 m 474 1074 l 296 1074 l 489 1263 l 626 1263 l 819 1074 l 642 1074 l 558 1156 l 474 1074 m 810 1238 l 810 1228 l 693 1228 l 693 1257 q 707 1291 693 1278 q 739 1311 721 1304 q 771 1322 757 1318 q 785 1329 785 1325 q 776 1340 785 1335 q 743 1346 768 1346 q 710 1342 731 1346 q 665 1331 689 1339 l 635 1406 q 695 1423 661 1415 q 776 1431 729 1431 q 888 1408 847 1431 q 929 1350 929 1385 q 911 1306 929 1321 q 869 1283 893 1292 q 828 1265 846 1275 q 810 1238 810 1256 z "},"Ỗ":{"ha":1118,"x_min":63,"x_max":1054,"o":"m 560 -12 q 295 50 407 -12 q 123 226 183 113 q 63 496 63 340 q 124 764 63 650 q 296 940 185 878 q 560 1001 407 1001 q 823 940 713 1001 q 994 764 933 878 q 1054 496 1054 650 q 994 226 1054 340 q 823 50 933 113 q 560 -12 713 -12 m 560 186 q 733 264 668 186 q 797 496 797 342 q 733 726 797 649 q 560 803 668 803 q 388 726 451 803 q 324 496 324 650 q 388 263 324 340 q 560 186 451 186 m 474 1074 l 296 1074 l 489 1263 l 626 1263 l 819 1074 l 642 1074 l 558 1156 l 474 1074 m 307 1289 q 329 1366 307 1332 q 389 1419 351 1400 q 469 1439 426 1439 q 535 1429 504 1439 q 595 1410 567 1419 q 650 1400 624 1400 q 688 1406 672 1400 q 708 1433 704 1411 l 808 1433 q 786 1356 808 1390 q 726 1303 764 1322 q 646 1283 689 1283 q 580 1293 611 1283 q 520 1313 549 1303 q 465 1324 492 1324 q 427 1317 443 1324 q 407 1289 411 1311 l 307 1289 z "},"Ȍ":{"ha":1118,"x_min":63,"x_max":1054,"o":"m 560 -12 q 295 50 407 -12 q 123 226 183 113 q 63 496 63 340 q 124 764 63 650 q 296 940 185 878 q 560 1001 407 1001 q 823 940 713 1001 q 994 764 933 878 q 1054 496 1054 650 q 994 226 1054 340 q 823 50 933 113 q 560 -12 713 -12 m 560 186 q 733 264 668 186 q 797 496 797 342 q 733 726 797 649 q 560 803 668 803 q 388 726 451 803 q 324 496 324 650 q 388 263 324 340 q 560 186 451 186 m 600 1074 l 458 1293 l 618 1293 l 722 1074 l 600 1074 m 393 1074 l 253 1293 l 411 1293 l 515 1074 l 393 1074 z "},"Ö":{"ha":1118,"x_min":63,"x_max":1054,"o":"m 560 -12 q 295 50 407 -12 q 123 226 183 113 q 63 496 63 340 q 124 764 63 650 q 296 940 185 878 q 560 1001 407 1001 q 823 940 713 1001 q 994 764 933 878 q 1054 496 1054 650 q 994 226 1054 340 q 823 50 933 113 q 560 -12 713 -12 m 560 186 q 733 264 668 186 q 797 496 797 342 q 733 726 797 649 q 560 803 668 803 q 388 726 451 803 q 324 496 324 650 q 388 263 324 340 q 560 186 451 186 m 586 1289 l 808 1289 l 808 1079 l 586 1079 l 586 1289 m 307 1289 l 529 1289 l 529 1079 l 307 1079 l 307 1289 z "},"Ȫ":{"ha":1118,"x_min":63,"x_max":1054,"o":"m 560 -12 q 295 50 407 -12 q 123 226 183 113 q 63 496 63 340 q 124 764 63 650 q 296 940 185 878 q 560 1001 407 1001 q 823 940 713 1001 q 994 764 933 878 q 1054 496 1054 650 q 994 226 1054 340 q 823 50 933 113 q 560 -12 713 -12 m 560 186 q 733 264 668 186 q 797 496 797 342 q 733 726 797 649 q 560 803 668 803 q 388 726 451 803 q 324 496 324 650 q 388 263 324 340 q 560 186 451 186 m 586 1289 l 808 1289 l 808 1079 l 586 1079 l 586 1289 m 307 1289 l 529 1289 l 529 1079 l 307 1079 l 307 1289 m 335 1333 l 335 1483 l 781 1483 l 781 1333 l 335 1333 z "},"Ȱ":{"ha":1118,"x_min":63,"x_max":1054,"o":"m 560 -12 q 295 50 407 -12 q 123 226 183 113 q 63 496 63 340 q 124 764 63 650 q 296 940 185 878 q 560 1001 407 1001 q 823 940 713 1001 q 994 764 933 878 q 1054 496 1054 650 q 994 226 1054 340 q 823 50 933 113 q 560 -12 713 -12 m 560 186 q 733 264 668 186 q 797 496 797 342 q 733 726 797 649 q 560 803 668 803 q 388 726 451 803 q 324 496 324 650 q 388 263 324 340 q 560 186 451 186 m 426 1297 l 689 1297 l 689 1071 l 426 1071 l 426 1297 m 335 1333 l 335 1483 l 781 1483 l 781 1333 l 335 1333 z "},"Ọ":{"ha":1118,"x_min":63,"x_max":1054,"o":"m 560 -12 q 295 50 407 -12 q 123 226 183 113 q 63 496 63 340 q 124 764 63 650 q 296 940 185 878 q 560 1001 407 1001 q 823 940 713 1001 q 994 764 933 878 q 1054 496 1054 650 q 994 226 1054 340 q 823 50 933 113 q 560 -12 713 -12 m 560 186 q 733 264 668 186 q 797 496 797 342 q 733 726 797 649 q 560 803 668 803 q 388 726 451 803 q 324 496 324 650 q 388 263 324 340 q 560 186 451 186 m 449 -79 l 669 -79 l 669 -289 l 449 -289 l 449 -79 z "},"Ò":{"ha":1118,"x_min":63,"x_max":1054,"o":"m 560 -12 q 295 50 407 -12 q 123 226 183 113 q 63 496 63 340 q 124 764 63 650 q 296 940 185 878 q 560 1001 407 1001 q 823 940 713 1001 q 994 764 933 878 q 1054 496 1054 650 q 994 226 1054 340 q 823 50 933 113 q 560 -12 713 -12 m 560 186 q 733 264 668 186 q 797 496 797 342 q 733 726 797 649 q 560 803 668 803 q 388 726 451 803 q 324 496 324 650 q 388 263 324 340 q 560 186 451 186 m 482 1074 l 264 1293 l 489 1293 l 633 1074 l 482 1074 z "},"Ỏ":{"ha":1118,"x_min":63,"x_max":1054,"o":"m 560 -12 q 295 50 407 -12 q 123 226 183 113 q 63 496 63 340 q 124 764 63 650 q 296 940 185 878 q 560 1001 407 1001 q 823 940 713 1001 q 994 764 933 878 q 1054 496 1054 650 q 994 226 1054 340 q 823 50 933 113 q 560 -12 713 -12 m 560 186 q 733 264 668 186 q 797 496 797 342 q 733 726 797 649 q 560 803 668 803 q 388 726 451 803 q 324 496 324 650 q 388 263 324 340 q 560 186 451 186 m 615 1093 l 615 1074 l 499 1074 l 499 1106 q 513 1142 499 1129 q 544 1161 526 1154 q 576 1174 563 1168 q 590 1188 590 1179 q 582 1203 590 1197 q 547 1210 574 1210 q 515 1206 535 1210 q 471 1196 494 1203 l 440 1274 q 500 1291 467 1283 q 582 1299 533 1299 q 693 1272 651 1299 q 735 1210 735 1246 q 717 1167 735 1182 q 675 1142 699 1151 q 633 1122 651 1132 q 615 1093 615 1111 z "},"Ơ":{"ha":1118,"x_min":63,"x_max":1054,"o":"m 560 -12 q 295 50 407 -12 q 123 226 183 113 q 63 496 63 340 q 124 764 63 650 q 297 940 185 878 q 563 1001 408 1001 q 647 995 613 1001 q 729 989 682 989 q 815 1019 790 989 q 839 1126 839 1050 l 839 1157 l 1054 1157 l 1054 1097 q 1026 981 1054 1032 q 951 901 999 931 q 843 872 904 872 l 872 906 q 1009 736 964 840 q 1054 496 1054 632 q 994 226 1054 340 q 824 50 935 113 q 560 -12 713 -12 m 560 186 q 733 264 668 186 q 797 496 797 342 q 733 726 797 649 q 560 803 668 803 q 388 726 451 803 q 324 496 324 650 q 388 263 324 340 q 560 186 451 186 z "},"Ớ":{"ha":1118,"x_min":63,"x_max":1054,"o":"m 560 -12 q 295 50 407 -12 q 123 226 183 113 q 63 496 63 340 q 124 764 63 650 q 297 940 185 878 q 563 1001 408 1001 q 647 995 613 1001 q 729 989 682 989 q 815 1019 790 989 q 839 1126 839 1050 l 839 1157 l 1054 1157 l 1054 1097 q 1026 981 1054 1032 q 951 901 999 931 q 843 872 904 872 l 872 906 q 1009 736 964 840 q 1054 496 1054 632 q 994 226 1054 340 q 824 50 935 113 q 560 -12 713 -12 m 560 186 q 733 264 668 186 q 797 496 797 342 q 733 726 797 649 q 560 803 668 803 q 388 726 451 803 q 324 496 324 650 q 388 263 324 340 q 560 186 451 186 m 633 1074 l 482 1074 l 626 1293 l 851 1293 l 633 1074 z "},"Ợ":{"ha":1118,"x_min":63,"x_max":1054,"o":"m 560 -12 q 295 50 407 -12 q 123 226 183 113 q 63 496 63 340 q 124 764 63 650 q 297 940 185 878 q 563 1001 408 1001 q 647 995 613 1001 q 729 989 682 989 q 815 1019 790 989 q 839 1126 839 1050 l 839 1157 l 1054 1157 l 1054 1097 q 1026 981 1054 1032 q 951 901 999 931 q 843 872 904 872 l 872 906 q 1009 736 964 840 q 1054 496 1054 632 q 994 226 1054 340 q 824 50 935 113 q 560 -12 713 -12 m 560 186 q 733 264 668 186 q 797 496 797 342 q 733 726 797 649 q 560 803 668 803 q 388 726 451 803 q 324 496 324 650 q 388 263 324 340 q 560 186 451 186 m 449 -79 l 669 -79 l 669 -289 l 449 -289 l 449 -79 z "},"Ờ":{"ha":1118,"x_min":63,"x_max":1054,"o":"m 560 -12 q 295 50 407 -12 q 123 226 183 113 q 63 496 63 340 q 124 764 63 650 q 297 940 185 878 q 563 1001 408 1001 q 647 995 613 1001 q 729 989 682 989 q 815 1019 790 989 q 839 1126 839 1050 l 839 1157 l 1054 1157 l 1054 1097 q 1026 981 1054 1032 q 951 901 999 931 q 843 872 904 872 l 872 906 q 1009 736 964 840 q 1054 496 1054 632 q 994 226 1054 340 q 824 50 935 113 q 560 -12 713 -12 m 560 186 q 733 264 668 186 q 797 496 797 342 q 733 726 797 649 q 560 803 668 803 q 388 726 451 803 q 324 496 324 650 q 388 263 324 340 q 560 186 451 186 m 482 1074 l 264 1293 l 489 1293 l 633 1074 l 482 1074 z "},"Ở":{"ha":1118,"x_min":63,"x_max":1054,"o":"m 560 -12 q 295 50 407 -12 q 123 226 183 113 q 63 496 63 340 q 124 764 63 650 q 297 940 185 878 q 563 1001 408 1001 q 647 995 613 1001 q 729 989 682 989 q 815 1019 790 989 q 839 1126 839 1050 l 839 1157 l 1054 1157 l 1054 1097 q 1026 981 1054 1032 q 951 901 999 931 q 843 872 904 872 l 872 906 q 1009 736 964 840 q 1054 496 1054 632 q 994 226 1054 340 q 824 50 935 113 q 560 -12 713 -12 m 560 186 q 733 264 668 186 q 797 496 797 342 q 733 726 797 649 q 560 803 668 803 q 388 726 451 803 q 324 496 324 650 q 388 263 324 340 q 560 186 451 186 m 615 1093 l 615 1074 l 499 1074 l 499 1106 q 513 1142 499 1129 q 544 1161 526 1154 q 576 1174 563 1168 q 590 1188 590 1179 q 582 1203 590 1197 q 547 1210 574 1210 q 515 1206 535 1210 q 471 1196 494 1203 l 440 1274 q 500 1291 467 1283 q 582 1299 533 1299 q 693 1272 651 1299 q 735 1210 735 1246 q 717 1167 735 1182 q 675 1142 699 1151 q 633 1122 651 1132 q 615 1093 615 1111 z "},"Ỡ":{"ha":1118,"x_min":63,"x_max":1054,"o":"m 560 -12 q 295 50 407 -12 q 123 226 183 113 q 63 496 63 340 q 124 764 63 650 q 297 940 185 878 q 563 1001 408 1001 q 647 995 613 1001 q 729 989 682 989 q 815 1019 790 989 q 839 1126 839 1050 l 839 1157 l 1054 1157 l 1054 1097 q 1026 981 1054 1032 q 951 901 999 931 q 843 872 904 872 l 872 906 q 1009 736 964 840 q 1054 496 1054 632 q 994 226 1054 340 q 824 50 935 113 q 560 -12 713 -12 m 560 186 q 733 264 668 186 q 797 496 797 342 q 733 726 797 649 q 560 803 668 803 q 388 726 451 803 q 324 496 324 650 q 388 263 324 340 q 560 186 451 186 m 307 1075 q 356 1245 307 1193 q 469 1297 404 1297 q 535 1280 504 1297 q 595 1245 567 1263 q 650 1228 624 1228 q 688 1244 672 1228 q 708 1293 704 1260 l 808 1293 q 760 1123 808 1175 q 646 1071 711 1071 q 580 1088 611 1071 q 520 1123 549 1106 q 465 1140 492 1140 q 427 1124 443 1140 q 407 1075 411 1108 l 307 1075 z "},"Ő":{"ha":1118,"x_min":63,"x_max":1054,"o":"m 560 -12 q 295 50 407 -12 q 123 226 183 113 q 63 496 63 340 q 124 764 63 650 q 296 940 185 878 q 560 1001 407 1001 q 823 940 713 1001 q 994 764 933 878 q 1054 496 1054 650 q 994 226 1054 340 q 823 50 933 113 q 560 -12 713 -12 m 560 186 q 733 264 668 186 q 797 496 797 342 q 733 726 797 649 q 560 803 668 803 q 388 726 451 803 q 324 496 324 650 q 388 263 324 340 q 560 186 451 186 m 600 1074 l 704 1293 l 863 1293 l 722 1074 l 600 1074 m 393 1074 l 497 1293 l 657 1293 l 515 1074 l 393 1074 z "},"Ȏ":{"ha":1118,"x_min":63,"x_max":1054,"o":"m 560 -12 q 295 50 407 -12 q 123 226 183 113 q 63 496 63 340 q 124 764 63 650 q 296 940 185 878 q 560 1001 407 1001 q 823 940 713 1001 q 994 764 933 878 q 1054 496 1054 650 q 994 226 1054 340 q 823 50 933 113 q 560 -12 713 -12 m 560 186 q 733 264 668 186 q 797 496 797 342 q 733 726 797 649 q 560 803 668 803 q 388 726 451 803 q 324 496 324 650 q 388 263 324 340 q 560 186 451 186 m 558 1283 q 722 1244 653 1283 q 815 1129 790 1204 l 708 1085 q 645 1128 686 1115 q 558 1142 604 1142 q 470 1128 511 1142 q 407 1085 429 1115 l 300 1129 q 394 1244 325 1204 q 558 1283 463 1283 z "},"Ō":{"ha":1118,"x_min":63,"x_max":1054,"o":"m 560 -12 q 295 50 407 -12 q 123 226 183 113 q 63 496 63 340 q 124 764 63 650 q 296 940 185 878 q 560 1001 407 1001 q 823 940 713 1001 q 994 764 933 878 q 1054 496 1054 650 q 994 226 1054 340 q 823 50 933 113 q 560 -12 713 -12 m 560 186 q 733 264 668 186 q 797 496 797 342 q 733 726 797 649 q 560 803 668 803 q 388 726 451 803 q 324 496 324 650 q 388 263 324 340 q 560 186 451 186 m 335 1108 l 335 1258 l 781 1258 l 781 1108 l 335 1108 z "},"Ṓ":{"ha":1118,"x_min":63,"x_max":1054,"o":"m 560 -12 q 295 50 407 -12 q 123 226 183 113 q 63 496 63 340 q 124 764 63 650 q 296 940 185 878 q 560 1001 407 1001 q 823 940 713 1001 q 994 764 933 878 q 1054 496 1054 650 q 994 226 1054 340 q 823 50 933 113 q 560 -12 713 -12 m 560 186 q 733 264 668 186 q 797 496 797 342 q 733 726 797 649 q 560 803 668 803 q 388 726 451 803 q 324 496 324 650 q 388 263 324 340 q 560 186 451 186 m 335 1108 l 335 1258 l 781 1258 l 781 1108 l 335 1108 m 633 1299 l 482 1299 l 626 1518 l 851 1518 l 633 1299 z "},"Ṑ":{"ha":1118,"x_min":63,"x_max":1054,"o":"m 560 -12 q 295 50 407 -12 q 123 226 183 113 q 63 496 63 340 q 124 764 63 650 q 296 940 185 878 q 560 1001 407 1001 q 823 940 713 1001 q 994 764 933 878 q 1054 496 1054 650 q 994 226 1054 340 q 823 50 933 113 q 560 -12 713 -12 m 560 186 q 733 264 668 186 q 797 496 797 342 q 733 726 797 649 q 560 803 668 803 q 388 726 451 803 q 324 496 324 650 q 388 263 324 340 q 560 186 451 186 m 335 1108 l 335 1258 l 781 1258 l 781 1108 l 335 1108 m 482 1299 l 264 1518 l 489 1518 l 633 1299 l 482 1299 z "},"Ǫ":{"ha":1118,"x_min":63,"x_max":1054,"o":"m 725 7 q 640 -85 640 -19 q 661 -137 640 -119 q 719 -154 682 -154 q 756 -151 738 -154 q 796 -139 775 -147 l 819 -251 q 671 -278 747 -278 q 537 -234 589 -278 q 485 -122 485 -190 q 504 -44 485 -81 q 558 17 524 -7 l 579 -12 q 305 44 421 -17 q 126 221 189 106 q 63 496 63 336 q 124 764 63 650 q 296 940 185 878 q 560 1001 407 1001 q 823 940 713 1001 q 994 764 933 878 q 1054 496 1054 650 q 968 182 1054 310 q 725 7 882 54 m 324 496 q 388 263 324 340 q 560 186 451 186 q 733 264 668 186 q 797 496 797 342 q 733 726 797 649 q 560 803 668 803 q 388 726 451 803 q 324 496 324 650 z "},"Ø":{"ha":1118,"x_min":63,"x_max":1054,"o":"m 560 -12 q 295 50 407 -12 q 123 226 183 113 q 63 496 63 340 q 124 764 63 650 q 296 940 185 878 q 560 1001 407 1001 q 823 940 713 1001 q 994 764 933 878 q 1054 496 1054 650 q 994 226 1054 340 q 823 50 933 113 q 560 -12 713 -12 m 319 -107 l 156 -8 l 799 1096 l 963 997 l 319 -107 m 560 186 q 733 264 668 186 q 797 496 797 342 q 733 726 797 649 q 560 803 668 803 q 388 726 451 803 q 324 496 324 650 q 388 263 324 340 q 560 186 451 186 z "},"Ǿ":{"ha":1118,"x_min":63,"x_max":1054,"o":"m 560 -12 q 295 50 407 -12 q 123 226 183 113 q 63 496 63 340 q 124 764 63 650 q 296 940 185 878 q 560 1001 407 1001 q 823 940 713 1001 q 994 764 933 878 q 1054 496 1054 650 q 994 226 1054 340 q 823 50 933 113 q 560 -12 713 -12 m 319 -107 l 156 -8 l 799 1096 l 963 997 l 319 -107 m 560 186 q 733 264 668 186 q 797 496 797 342 q 733 726 797 649 q 560 803 668 803 q 388 726 451 803 q 324 496 324 650 q 388 263 324 340 q 560 186 451 186 m 633 1074 l 482 1074 l 626 1293 l 851 1293 l 633 1074 z "},"Õ":{"ha":1118,"x_min":63,"x_max":1054,"o":"m 560 -12 q 295 50 407 -12 q 123 226 183 113 q 63 496 63 340 q 124 764 63 650 q 296 940 185 878 q 560 1001 407 1001 q 823 940 713 1001 q 994 764 933 878 q 1054 496 1054 650 q 994 226 1054 340 q 823 50 933 113 q 560 -12 713 -12 m 560 186 q 733 264 668 186 q 797 496 797 342 q 733 726 797 649 q 560 803 668 803 q 388 726 451 803 q 324 496 324 650 q 388 263 324 340 q 560 186 451 186 m 307 1075 q 356 1245 307 1193 q 469 1297 404 1297 q 535 1280 504 1297 q 595 1245 567 1263 q 650 1228 624 1228 q 688 1244 672 1228 q 708 1293 704 1260 l 808 1293 q 760 1123 808 1175 q 646 1071 711 1071 q 580 1088 611 1071 q 520 1123 549 1106 q 465 1140 492 1140 q 427 1124 443 1140 q 407 1075 411 1108 l 307 1075 z "},"Ṍ":{"ha":1118,"x_min":63,"x_max":1054,"o":"m 560 -12 q 295 50 407 -12 q 123 226 183 113 q 63 496 63 340 q 124 764 63 650 q 296 940 185 878 q 560 1001 407 1001 q 823 940 713 1001 q 994 764 933 878 q 1054 496 1054 650 q 994 226 1054 340 q 823 50 933 113 q 560 -12 713 -12 m 560 186 q 733 264 668 186 q 797 496 797 342 q 733 726 797 649 q 560 803 668 803 q 388 726 451 803 q 324 496 324 650 q 388 263 324 340 q 560 186 451 186 m 307 1075 q 356 1245 307 1193 q 469 1297 404 1297 q 535 1280 504 1297 q 595 1245 567 1263 q 650 1228 624 1228 q 688 1244 672 1228 q 708 1293 704 1260 l 808 1293 q 760 1123 808 1175 q 646 1071 711 1071 q 580 1088 611 1071 q 520 1123 549 1106 q 465 1140 492 1140 q 427 1124 443 1140 q 407 1075 411 1108 l 307 1075 m 633 1299 l 482 1299 l 626 1518 l 851 1518 l 633 1299 z "},"Ṏ":{"ha":1118,"x_min":63,"x_max":1054,"o":"m 560 -12 q 295 50 407 -12 q 123 226 183 113 q 63 496 63 340 q 124 764 63 650 q 296 940 185 878 q 560 1001 407 1001 q 823 940 713 1001 q 994 764 933 878 q 1054 496 1054 650 q 994 226 1054 340 q 823 50 933 113 q 560 -12 713 -12 m 560 186 q 733 264 668 186 q 797 496 797 342 q 733 726 797 649 q 560 803 668 803 q 388 726 451 803 q 324 496 324 650 q 388 263 324 340 q 560 186 451 186 m 307 1075 q 356 1245 307 1193 q 469 1297 404 1297 q 535 1280 504 1297 q 595 1245 567 1263 q 650 1228 624 1228 q 688 1244 672 1228 q 708 1293 704 1260 l 808 1293 q 760 1123 808 1175 q 646 1071 711 1071 q 580 1088 611 1071 q 520 1123 549 1106 q 465 1140 492 1140 q 427 1124 443 1140 q 407 1075 411 1108 l 307 1075 m 586 1514 l 808 1514 l 808 1304 l 586 1304 l 586 1514 m 307 1514 l 529 1514 l 529 1304 l 307 1304 l 307 1514 z "},"Ȭ":{"ha":1118,"x_min":63,"x_max":1054,"o":"m 560 -12 q 295 50 407 -12 q 123 226 183 113 q 63 496 63 340 q 124 764 63 650 q 296 940 185 878 q 560 1001 407 1001 q 823 940 713 1001 q 994 764 933 878 q 1054 496 1054 650 q 994 226 1054 340 q 823 50 933 113 q 560 -12 713 -12 m 560 186 q 733 264 668 186 q 797 496 797 342 q 733 726 797 649 q 560 803 668 803 q 388 726 451 803 q 324 496 324 650 q 388 263 324 340 q 560 186 451 186 m 307 1075 q 356 1245 307 1193 q 469 1297 404 1297 q 535 1280 504 1297 q 595 1245 567 1263 q 650 1228 624 1228 q 688 1244 672 1228 q 708 1293 704 1260 l 808 1293 q 760 1123 808 1175 q 646 1071 711 1071 q 580 1088 611 1071 q 520 1123 549 1106 q 465 1140 492 1140 q 427 1124 443 1140 q 407 1075 411 1108 l 307 1075 m 335 1333 l 335 1483 l 781 1483 l 781 1333 l 335 1333 z "},"Œ":{"ha":1463,"x_min":63,"x_max":1419,"o":"m 731 0 l 731 110 l 714 163 l 714 846 l 731 874 l 731 989 l 1419 989 l 1419 789 l 968 789 l 968 603 l 1392 603 l 1392 403 l 968 403 l 968 200 l 1419 200 l 1419 0 l 731 0 m 768 713 q 687 780 740 757 q 560 803 633 803 q 385 723 446 803 q 324 496 324 643 q 385 266 324 346 q 560 186 447 186 q 768 276 711 186 l 768 85 q 526 -12 701 -12 q 287 53 392 -12 q 122 233 182 118 q 63 496 63 347 q 122 757 63 643 q 287 936 182 871 q 526 1001 392 1001 q 768 910 701 1001 l 768 713 z "},"P":{"ha":951,"x_min":89,"x_max":915,"o":"m 89 0 l 89 989 l 560 989 q 824 907 732 989 q 915 688 915 825 q 822 468 915 550 q 560 386 729 386 l 350 386 l 350 0 l 89 0 m 350 581 l 525 581 q 637 608 601 581 q 672 685 672 635 q 638 765 672 738 q 525 792 603 792 l 350 792 l 350 581 z "},"Þ":{"ha":953,"x_min":89,"x_max":915,"o":"m 314 207 l 314 404 l 522 404 q 637 427 601 404 q 672 503 672 450 q 637 577 672 554 q 522 600 601 600 l 314 600 l 314 799 l 567 799 q 824 719 732 799 q 915 503 915 640 q 822 285 915 364 q 567 207 729 207 l 314 207 m 89 0 l 89 989 l 344 989 l 344 0 l 89 0 z "},"Q":{"ha":1118,"x_min":63,"x_max":1054,"o":"m 831 -265 q 688 -146 749 -212 q 583 -6 626 -79 l 806 88 q 894 -38 839 17 q 1004 -139 950 -93 l 831 -265 m 560 -12 q 295 50 407 -12 q 123 226 183 113 q 63 496 63 340 q 124 764 63 650 q 296 940 185 878 q 560 1001 407 1001 q 823 940 713 1001 q 994 764 933 878 q 1054 496 1054 650 q 994 226 1054 340 q 823 50 933 113 q 560 -12 713 -12 m 560 186 q 733 264 668 186 q 797 496 797 342 q 733 726 797 649 q 560 803 668 803 q 388 726 451 803 q 324 496 324 650 q 388 263 324 340 q 560 186 451 186 z "},"R":{"ha":992,"x_min":89,"x_max":949,"o":"m 89 0 l 89 989 l 549 989 q 819 911 729 989 q 908 692 908 833 q 815 476 908 558 q 554 393 721 393 l 674 418 q 766 387 724 418 q 832 294 808 356 l 949 0 l 672 0 l 544 329 q 503 372 532 360 q 440 385 474 385 l 346 385 l 346 0 l 89 0 m 343 579 l 507 579 q 628 605 592 579 q 665 685 665 631 q 628 767 665 742 q 507 792 592 792 l 343 792 l 343 579 z "},"Ŕ":{"ha":992,"x_min":89,"x_max":949,"o":"m 89 0 l 89 989 l 549 989 q 819 911 729 989 q 908 692 908 833 q 815 476 908 558 q 554 393 721 393 l 674 418 q 766 387 724 418 q 832 294 808 356 l 949 0 l 672 0 l 544 329 q 503 372 532 360 q 440 385 474 385 l 346 385 l 346 0 l 89 0 m 343 579 l 507 579 q 628 605 592 579 q 665 685 665 631 q 628 767 665 742 q 507 792 592 792 l 343 792 l 343 579 m 576 1074 l 425 1074 l 569 1293 l 794 1293 l 576 1074 z "},"Ř":{"ha":992,"x_min":89,"x_max":949,"o":"m 89 0 l 89 989 l 549 989 q 819 911 729 989 q 908 692 908 833 q 815 476 908 558 q 554 393 721 393 l 674 418 q 766 387 724 418 q 832 294 808 356 l 949 0 l 672 0 l 544 329 q 503 372 532 360 q 440 385 474 385 l 346 385 l 346 0 l 89 0 m 343 579 l 507 579 q 628 605 592 579 q 665 685 665 631 q 628 767 665 742 q 507 792 592 792 l 343 792 l 343 579 m 581 1293 l 763 1293 l 569 1074 l 432 1074 l 239 1293 l 421 1293 l 501 1183 l 581 1293 z "},"Ŗ":{"ha":992,"x_min":89,"x_max":949,"o":"m 89 0 l 89 989 l 549 989 q 819 911 729 989 q 908 692 908 833 q 815 476 908 558 q 554 393 721 393 l 674 418 q 766 387 724 418 q 832 294 808 356 l 949 0 l 672 0 l 544 329 q 503 372 532 360 q 440 385 474 385 l 346 385 l 346 0 l 89 0 m 343 579 l 507 579 q 628 605 592 579 q 665 685 665 631 q 628 767 665 742 q 507 792 592 792 l 343 792 l 343 579 m 621 -89 l 621 -182 q 601 -299 621 -247 q 532 -394 582 -350 l 446 -336 q 486 -284 475 -311 q 497 -226 497 -257 l 549 -267 l 382 -267 l 382 -89 l 621 -89 z "},"Ȑ":{"ha":992,"x_min":89,"x_max":949,"o":"m 89 0 l 89 989 l 549 989 q 819 911 729 989 q 908 692 908 833 q 815 476 908 558 q 554 393 721 393 l 674 418 q 766 387 724 418 q 832 294 808 356 l 949 0 l 672 0 l 544 329 q 503 372 532 360 q 440 385 474 385 l 346 385 l 346 0 l 89 0 m 343 579 l 507 579 q 628 605 592 579 q 665 685 665 631 q 628 767 665 742 q 507 792 592 792 l 343 792 l 343 579 m 543 1074 l 401 1293 l 561 1293 l 665 1074 l 543 1074 m 336 1074 l 196 1293 l 354 1293 l 458 1074 l 336 1074 z "},"Ṛ":{"ha":992,"x_min":89,"x_max":949,"o":"m 89 0 l 89 989 l 549 989 q 819 911 729 989 q 908 692 908 833 q 815 476 908 558 q 554 393 721 393 l 674 418 q 766 387 724 418 q 832 294 808 356 l 949 0 l 672 0 l 544 329 q 503 372 532 360 q 440 385 474 385 l 346 385 l 346 0 l 89 0 m 343 579 l 507 579 q 628 605 592 579 q 665 685 665 631 q 628 767 665 742 q 507 792 592 792 l 343 792 l 343 579 m 392 -79 l 613 -79 l 613 -289 l 392 -289 l 392 -79 z "},"Ȓ":{"ha":992,"x_min":89,"x_max":949,"o":"m 89 0 l 89 989 l 549 989 q 819 911 729 989 q 908 692 908 833 q 815 476 908 558 q 554 393 721 393 l 674 418 q 766 387 724 418 q 832 294 808 356 l 949 0 l 672 0 l 544 329 q 503 372 532 360 q 440 385 474 385 l 346 385 l 346 0 l 89 0 m 343 579 l 507 579 q 628 605 592 579 q 665 685 665 631 q 628 767 665 742 q 507 792 592 792 l 343 792 l 343 579 m 501 1283 q 665 1244 596 1283 q 758 1129 733 1204 l 651 1085 q 588 1128 629 1115 q 501 1142 547 1142 q 413 1128 454 1142 q 350 1085 372 1115 l 243 1129 q 337 1244 268 1204 q 501 1283 406 1283 z "},"Ṟ":{"ha":992,"x_min":89,"x_max":949,"o":"m 89 0 l 89 989 l 549 989 q 819 911 729 989 q 908 692 908 833 q 815 476 908 558 q 554 393 721 393 l 674 418 q 766 387 724 418 q 832 294 808 356 l 949 0 l 672 0 l 544 329 q 503 372 532 360 q 440 385 474 385 l 346 385 l 346 0 l 89 0 m 343 579 l 507 579 q 628 605 592 579 q 665 685 665 631 q 628 767 665 742 q 507 792 592 792 l 343 792 l 343 579 m 279 -254 l 279 -114 l 725 -114 l 725 -254 l 279 -254 z "},"S":{"ha":933,"x_min":51,"x_max":876,"o":"m 447 -12 q 300 1 374 -12 q 162 38 226 14 q 51 96 97 63 l 133 281 q 287 210 206 233 q 450 186 368 186 q 578 210 535 186 q 622 274 622 233 q 607 316 622 297 q 550 351 592 335 q 431 383 508 367 q 253 433 324 404 q 144 498 183 461 q 88 581 104 535 q 72 683 72 626 q 124 846 72 774 q 267 960 175 918 q 481 1001 358 1001 q 621 988 551 1001 q 749 951 690 975 q 846 893 808 926 l 765 708 q 626 779 699 756 q 483 803 554 803 q 369 776 413 803 q 326 703 326 749 q 341 663 326 681 q 397 628 356 644 q 524 594 439 613 q 695 544 626 574 q 803 478 764 515 q 860 397 843 442 q 876 297 876 351 q 826 132 876 201 q 681 25 776 63 q 447 -12 585 -12 z "},"Ś":{"ha":933,"x_min":51,"x_max":876,"o":"m 447 -12 q 300 1 374 -12 q 162 38 226 14 q 51 96 97 63 l 133 281 q 287 210 206 233 q 450 186 368 186 q 578 210 535 186 q 622 274 622 233 q 607 316 622 297 q 550 351 592 335 q 431 383 508 367 q 253 433 324 404 q 144 498 183 461 q 88 581 104 535 q 72 683 72 626 q 124 846 72 774 q 267 960 175 918 q 481 1001 358 1001 q 621 988 551 1001 q 749 951 690 975 q 846 893 808 926 l 765 708 q 626 779 699 756 q 483 803 554 803 q 369 776 413 803 q 326 703 326 749 q 341 663 326 681 q 397 628 356 644 q 524 594 439 613 q 695 544 626 574 q 803 478 764 515 q 860 397 843 442 q 876 297 876 351 q 826 132 876 201 q 681 25 776 63 q 447 -12 585 -12 m 547 1074 l 396 1074 l 540 1293 l 765 1293 l 547 1074 z "},"Ṥ":{"ha":933,"x_min":51,"x_max":876,"o":"m 447 -12 q 300 1 374 -12 q 162 38 226 14 q 51 96 97 63 l 133 281 q 287 210 206 233 q 450 186 368 186 q 578 210 535 186 q 622 274 622 233 q 607 316 622 297 q 550 351 592 335 q 431 383 508 367 q 253 433 324 404 q 144 498 183 461 q 88 581 104 535 q 72 683 72 626 q 124 846 72 774 q 267 960 175 918 q 481 1001 358 1001 q 621 988 551 1001 q 749 951 690 975 q 846 893 808 926 l 765 708 q 626 779 699 756 q 483 803 554 803 q 369 776 413 803 q 326 703 326 749 q 341 663 326 681 q 397 628 356 644 q 524 594 439 613 q 695 544 626 574 q 803 478 764 515 q 860 397 843 442 q 876 297 876 351 q 826 132 876 201 q 681 25 776 63 q 447 -12 585 -12 m 594 1074 l 443 1074 l 588 1293 l 813 1293 l 594 1074 m 164 1292 l 426 1292 l 426 1065 l 164 1065 l 164 1292 z "},"Š":{"ha":933,"x_min":51,"x_max":876,"o":"m 447 -12 q 300 1 374 -12 q 162 38 226 14 q 51 96 97 63 l 133 281 q 287 210 206 233 q 450 186 368 186 q 578 210 535 186 q 622 274 622 233 q 607 316 622 297 q 550 351 592 335 q 431 383 508 367 q 253 433 324 404 q 144 498 183 461 q 88 581 104 535 q 72 683 72 626 q 124 846 72 774 q 267 960 175 918 q 481 1001 358 1001 q 621 988 551 1001 q 749 951 690 975 q 846 893 808 926 l 765 708 q 626 779 699 756 q 483 803 554 803 q 369 776 413 803 q 326 703 326 749 q 341 663 326 681 q 397 628 356 644 q 524 594 439 613 q 695 544 626 574 q 803 478 764 515 q 860 397 843 442 q 876 297 876 351 q 826 132 876 201 q 681 25 776 63 q 447 -12 585 -12 m 551 1293 l 733 1293 l 540 1074 l 403 1074 l 210 1293 l 392 1293 l 472 1183 l 551 1293 z "},"Ṧ":{"ha":933,"x_min":51,"x_max":876,"o":"m 447 -12 q 300 1 374 -12 q 162 38 226 14 q 51 96 97 63 l 133 281 q 287 210 206 233 q 450 186 368 186 q 578 210 535 186 q 622 274 622 233 q 607 316 622 297 q 550 351 592 335 q 431 383 508 367 q 253 433 324 404 q 144 498 183 461 q 88 581 104 535 q 72 683 72 626 q 124 846 72 774 q 267 960 175 918 q 481 1001 358 1001 q 621 988 551 1001 q 749 951 690 975 q 846 893 808 926 l 765 708 q 626 779 699 756 q 483 803 554 803 q 369 776 413 803 q 326 703 326 749 q 341 663 326 681 q 397 628 356 644 q 524 594 439 613 q 695 544 626 574 q 803 478 764 515 q 860 397 843 442 q 876 297 876 351 q 826 132 876 201 q 681 25 776 63 q 447 -12 585 -12 m 551 1293 l 733 1293 l 540 1074 l 403 1074 l 210 1293 l 392 1293 l 472 1183 l 551 1293 m 340 1522 l 603 1522 l 603 1296 l 340 1296 l 340 1522 z "},"Ş":{"ha":933,"x_min":51,"x_max":876,"o":"m 447 -12 q 300 1 374 -12 q 162 38 226 14 q 51 96 97 63 l 133 281 q 287 210 206 233 q 450 186 368 186 q 578 210 535 186 q 622 274 622 233 q 607 316 622 297 q 550 351 592 335 q 431 383 508 367 q 253 433 324 404 q 144 498 183 461 q 88 581 104 535 q 72 683 72 626 q 124 846 72 774 q 267 960 175 918 q 481 1001 358 1001 q 621 988 551 1001 q 749 951 690 975 q 846 893 808 926 l 765 708 q 626 779 699 756 q 483 803 554 803 q 369 776 413 803 q 326 703 326 749 q 341 663 326 681 q 397 628 356 644 q 524 594 439 613 q 695 544 626 574 q 803 478 764 515 q 860 397 843 442 q 876 297 876 351 q 826 132 876 201 q 681 25 776 63 q 447 -12 585 -12 m 433 -278 q 367 -272 404 -278 q 299 -254 329 -265 l 314 -164 q 376 -178 350 -174 q 425 -183 403 -183 q 467 -177 449 -183 q 485 -153 485 -171 q 440 -129 485 -129 q 417 -131 429 -129 q 396 -136 404 -133 l 368 -106 l 386 28 l 514 28 l 497 -79 l 438 -67 q 474 -58 451 -61 q 513 -56 497 -56 q 602 -83 571 -56 q 633 -153 633 -110 q 583 -242 633 -207 q 433 -278 533 -278 z "},"Ŝ":{"ha":933,"x_min":51,"x_max":876,"o":"m 447 -12 q 300 1 374 -12 q 162 38 226 14 q 51 96 97 63 l 133 281 q 287 210 206 233 q 450 186 368 186 q 578 210 535 186 q 622 274 622 233 q 607 316 622 297 q 550 351 592 335 q 431 383 508 367 q 253 433 324 404 q 144 498 183 461 q 88 581 104 535 q 72 683 72 626 q 124 846 72 774 q 267 960 175 918 q 481 1001 358 1001 q 621 988 551 1001 q 749 951 690 975 q 846 893 808 926 l 765 708 q 626 779 699 756 q 483 803 554 803 q 369 776 413 803 q 326 703 326 749 q 341 663 326 681 q 397 628 356 644 q 524 594 439 613 q 695 544 626 574 q 803 478 764 515 q 860 397 843 442 q 876 297 876 351 q 826 132 876 201 q 681 25 776 63 q 447 -12 585 -12 m 392 1074 l 210 1074 l 403 1293 l 540 1293 l 733 1074 l 551 1074 l 472 1182 l 392 1074 z "},"Ș":{"ha":933,"x_min":51,"x_max":876,"o":"m 447 -12 q 300 1 374 -12 q 162 38 226 14 q 51 96 97 63 l 133 281 q 287 210 206 233 q 450 186 368 186 q 578 210 535 186 q 622 274 622 233 q 607 316 622 297 q 550 351 592 335 q 431 383 508 367 q 253 433 324 404 q 144 498 183 461 q 88 581 104 535 q 72 683 72 626 q 124 846 72 774 q 267 960 175 918 q 481 1001 358 1001 q 621 988 551 1001 q 749 951 690 975 q 846 893 808 926 l 765 708 q 626 779 699 756 q 483 803 554 803 q 369 776 413 803 q 326 703 326 749 q 341 663 326 681 q 397 628 356 644 q 524 594 439 613 q 695 544 626 574 q 803 478 764 515 q 860 397 843 442 q 876 297 876 351 q 826 132 876 201 q 681 25 776 63 q 447 -12 585 -12 m 579 -89 l 579 -182 q 560 -299 579 -247 q 490 -394 540 -350 l 404 -336 q 444 -284 433 -311 q 456 -226 456 -257 l 507 -267 l 340 -267 l 340 -89 l 579 -89 z "},"Ṡ":{"ha":933,"x_min":51,"x_max":876,"o":"m 447 -12 q 300 1 374 -12 q 162 38 226 14 q 51 96 97 63 l 133 281 q 287 210 206 233 q 450 186 368 186 q 578 210 535 186 q 622 274 622 233 q 607 316 622 297 q 550 351 592 335 q 431 383 508 367 q 253 433 324 404 q 144 498 183 461 q 88 581 104 535 q 72 683 72 626 q 124 846 72 774 q 267 960 175 918 q 481 1001 358 1001 q 621 988 551 1001 q 749 951 690 975 q 846 893 808 926 l 765 708 q 626 779 699 756 q 483 803 554 803 q 369 776 413 803 q 326 703 326 749 q 341 663 326 681 q 397 628 356 644 q 524 594 439 613 q 695 544 626 574 q 803 478 764 515 q 860 397 843 442 q 876 297 876 351 q 826 132 876 201 q 681 25 776 63 q 447 -12 585 -12 m 340 1297 l 603 1297 l 603 1071 l 340 1071 l 340 1297 z "},"Ṣ":{"ha":933,"x_min":51,"x_max":876,"o":"m 447 -12 q 300 1 374 -12 q 162 38 226 14 q 51 96 97 63 l 133 281 q 287 210 206 233 q 450 186 368 186 q 578 210 535 186 q 622 274 622 233 q 607 316 622 297 q 550 351 592 335 q 431 383 508 367 q 253 433 324 404 q 144 498 183 461 q 88 581 104 535 q 72 683 72 626 q 124 846 72 774 q 267 960 175 918 q 481 1001 358 1001 q 621 988 551 1001 q 749 951 690 975 q 846 893 808 926 l 765 708 q 626 779 699 756 q 483 803 554 803 q 369 776 413 803 q 326 703 326 749 q 341 663 326 681 q 397 628 356 644 q 524 594 439 613 q 695 544 626 574 q 803 478 764 515 q 860 397 843 442 q 876 297 876 351 q 826 132 876 201 q 681 25 776 63 q 447 -12 585 -12 m 350 -79 l 571 -79 l 571 -289 l 350 -289 l 350 -79 z "},"Ṩ":{"ha":933,"x_min":51,"x_max":876,"o":"m 447 -12 q 300 1 374 -12 q 162 38 226 14 q 51 96 97 63 l 133 281 q 287 210 206 233 q 450 186 368 186 q 578 210 535 186 q 622 274 622 233 q 607 316 622 297 q 550 351 592 335 q 431 383 508 367 q 253 433 324 404 q 144 498 183 461 q 88 581 104 535 q 72 683 72 626 q 124 846 72 774 q 267 960 175 918 q 481 1001 358 1001 q 621 988 551 1001 q 749 951 690 975 q 846 893 808 926 l 765 708 q 626 779 699 756 q 483 803 554 803 q 369 776 413 803 q 326 703 326 749 q 341 663 326 681 q 397 628 356 644 q 524 594 439 613 q 695 544 626 574 q 803 478 764 515 q 860 397 843 442 q 876 297 876 351 q 826 132 876 201 q 681 25 776 63 q 447 -12 585 -12 m 350 -79 l 571 -79 l 571 -289 l 350 -289 l 350 -79 m 340 1297 l 603 1297 l 603 1071 l 340 1071 l 340 1297 z "},"ẞ":{"ha":1008,"x_min":89,"x_max":969,"o":"m 89 0 l 89 611 q 205 896 89 793 q 526 999 321 999 q 719 964 638 999 q 847 866 801 929 q 892 717 892 803 q 848 583 892 640 q 729 503 804 526 l 726 522 q 903 445 838 511 q 969 278 969 379 q 928 131 969 196 q 815 29 886 67 q 653 -8 743 -8 q 506 10 569 -8 q 386 68 443 28 l 451 249 q 553 198 507 214 q 636 182 599 182 q 700 209 676 181 q 724 288 724 238 q 688 374 724 349 q 556 400 651 400 l 432 400 l 432 600 l 538 600 q 623 624 594 600 q 651 693 651 647 q 615 771 651 743 q 519 799 578 799 q 390 751 436 799 q 344 618 344 704 l 344 0 l 89 0 z "},"Ə":{"ha":1092,"x_min":63,"x_max":1026,"o":"m 564 -12 q 296 47 408 -12 q 123 221 183 106 q 63 503 63 336 l 63 597 l 864 597 l 864 401 l 258 401 l 324 496 q 378 263 317 340 q 556 186 440 186 q 716 263 663 186 q 769 496 769 340 q 701 722 769 646 q 503 797 633 797 q 356 776 428 797 q 222 708 285 754 l 140 893 q 246 951 185 926 q 376 988 307 975 q 513 1001 446 1001 q 785 940 669 1001 q 963 764 900 878 q 1026 496 1026 650 q 968 233 1026 349 q 806 53 910 118 q 564 -12 701 -12 z "},"T":{"ha":886,"x_min":17,"x_max":869,"o":"m 311 0 l 311 778 l 17 778 l 17 989 l 869 989 l 869 778 l 575 778 l 575 0 l 311 0 z "},"Ŧ":{"ha":886,"x_min":17,"x_max":869,"o":"m 126 401 l 126 596 l 760 596 l 760 401 l 126 401 m 311 0 l 311 778 l 17 778 l 17 989 l 869 989 l 869 778 l 575 778 l 575 0 l 311 0 z "},"Ť":{"ha":886,"x_min":17,"x_max":869,"o":"m 311 0 l 311 778 l 17 778 l 17 989 l 869 989 l 869 778 l 575 778 l 575 0 l 311 0 m 522 1293 l 704 1293 l 511 1074 l 374 1074 l 181 1293 l 363 1293 l 443 1183 l 522 1293 z "},"Ţ":{"ha":886,"x_min":17,"x_max":869,"o":"m 311 0 l 311 778 l 17 778 l 17 989 l 869 989 l 869 778 l 575 778 l 575 0 l 311 0 m 414 -278 q 347 -272 385 -278 q 279 -254 310 -265 l 294 -164 q 357 -178 331 -174 q 406 -183 383 -183 q 447 -177 429 -183 q 465 -153 465 -171 q 421 -129 465 -129 q 397 -131 410 -129 q 376 -136 385 -133 l 349 -106 l 367 28 l 494 28 l 478 -79 l 418 -67 q 455 -58 432 -61 q 493 -56 478 -56 q 583 -83 551 -56 q 614 -153 614 -110 q 564 -242 614 -207 q 414 -278 514 -278 z "},"Ț":{"ha":886,"x_min":17,"x_max":869,"o":"m 311 0 l 311 778 l 17 778 l 17 989 l 869 989 l 869 778 l 575 778 l 575 0 l 311 0 m 561 -89 l 561 -182 q 542 -299 561 -247 q 472 -394 522 -350 l 386 -336 q 426 -284 415 -311 q 438 -226 438 -257 l 489 -267 l 322 -267 l 322 -89 l 561 -89 z "},"Ṭ":{"ha":886,"x_min":17,"x_max":869,"o":"m 311 0 l 311 778 l 17 778 l 17 989 l 869 989 l 869 778 l 575 778 l 575 0 l 311 0 m 332 -79 l 553 -79 l 553 -289 l 332 -289 l 332 -79 z "},"Ṯ":{"ha":886,"x_min":17,"x_max":869,"o":"m 311 0 l 311 778 l 17 778 l 17 989 l 869 989 l 869 778 l 575 778 l 575 0 l 311 0 m 219 -254 l 219 -114 l 665 -114 l 665 -254 l 219 -254 z "},"U":{"ha":1044,"x_min":85,"x_max":963,"o":"m 524 -12 q 196 97 307 -12 q 85 417 85 206 l 85 989 l 339 989 l 339 407 q 386 244 339 301 q 524 186 433 186 q 658 244 611 186 q 706 407 706 301 l 706 989 l 963 989 l 963 417 q 849 98 963 208 q 524 -12 736 -12 z "},"Ú":{"ha":1044,"x_min":85,"x_max":963,"o":"m 524 -12 q 196 97 307 -12 q 85 417 85 206 l 85 989 l 339 989 l 339 407 q 386 244 339 301 q 524 186 433 186 q 658 244 611 186 q 706 407 706 301 l 706 989 l 963 989 l 963 417 q 849 98 963 208 q 524 -12 736 -12 m 599 1074 l 447 1074 l 592 1293 l 817 1293 l 599 1074 z "},"Ŭ":{"ha":1044,"x_min":85,"x_max":963,"o":"m 524 -12 q 196 97 307 -12 q 85 417 85 206 l 85 989 l 339 989 l 339 407 q 386 244 339 301 q 524 186 433 186 q 658 244 611 186 q 706 407 706 301 l 706 989 l 963 989 l 963 417 q 849 98 963 208 q 524 -12 736 -12 m 524 1085 q 359 1124 428 1085 q 265 1239 290 1164 l 372 1285 q 435 1240 394 1253 q 524 1228 476 1228 q 610 1240 569 1228 q 674 1285 651 1253 l 781 1239 q 687 1124 756 1164 q 524 1085 618 1085 z "},"Û":{"ha":1044,"x_min":85,"x_max":963,"o":"m 524 -12 q 196 97 307 -12 q 85 417 85 206 l 85 989 l 339 989 l 339 407 q 386 244 339 301 q 524 186 433 186 q 658 244 611 186 q 706 407 706 301 l 706 989 l 963 989 l 963 417 q 849 98 963 208 q 524 -12 736 -12 m 443 1074 l 261 1074 l 454 1293 l 592 1293 l 785 1074 l 603 1074 l 524 1182 l 443 1074 z "},"Ȕ":{"ha":1044,"x_min":85,"x_max":963,"o":"m 524 -12 q 196 97 307 -12 q 85 417 85 206 l 85 989 l 339 989 l 339 407 q 386 244 339 301 q 524 186 433 186 q 658 244 611 186 q 706 407 706 301 l 706 989 l 963 989 l 963 417 q 849 98 963 208 q 524 -12 736 -12 m 565 1074 l 424 1293 l 583 1293 l 688 1074 l 565 1074 m 358 1074 l 218 1293 l 376 1293 l 481 1074 l 358 1074 z "},"Ü":{"ha":1044,"x_min":85,"x_max":963,"o":"m 524 -12 q 196 97 307 -12 q 85 417 85 206 l 85 989 l 339 989 l 339 407 q 386 244 339 301 q 524 186 433 186 q 658 244 611 186 q 706 407 706 301 l 706 989 l 963 989 l 963 417 q 849 98 963 208 q 524 -12 736 -12 m 551 1289 l 774 1289 l 774 1079 l 551 1079 l 551 1289 m 272 1289 l 494 1289 l 494 1079 l 272 1079 l 272 1289 z "},"Ụ":{"ha":1044,"x_min":85,"x_max":963,"o":"m 524 -12 q 196 97 307 -12 q 85 417 85 206 l 85 989 l 339 989 l 339 407 q 386 244 339 301 q 524 186 433 186 q 658 244 611 186 q 706 407 706 301 l 706 989 l 963 989 l 963 417 q 849 98 963 208 q 524 -12 736 -12 m 413 -79 l 633 -79 l 633 -289 l 413 -289 l 413 -79 z "},"Ù":{"ha":1044,"x_min":85,"x_max":963,"o":"m 524 -12 q 196 97 307 -12 q 85 417 85 206 l 85 989 l 339 989 l 339 407 q 386 244 339 301 q 524 186 433 186 q 658 244 611 186 q 706 407 706 301 l 706 989 l 963 989 l 963 417 q 849 98 963 208 q 524 -12 736 -12 m 447 1074 l 229 1293 l 454 1293 l 599 1074 l 447 1074 z "},"Ủ":{"ha":1044,"x_min":85,"x_max":963,"o":"m 524 -12 q 196 97 307 -12 q 85 417 85 206 l 85 989 l 339 989 l 339 407 q 386 244 339 301 q 524 186 433 186 q 658 244 611 186 q 706 407 706 301 l 706 989 l 963 989 l 963 417 q 849 98 963 208 q 524 -12 736 -12 m 581 1093 l 581 1074 l 464 1074 l 464 1106 q 478 1142 464 1129 q 510 1161 492 1154 q 542 1174 528 1168 q 556 1188 556 1179 q 547 1203 556 1197 q 513 1210 539 1210 q 480 1206 500 1210 q 436 1196 460 1203 l 406 1274 q 465 1291 432 1283 q 547 1299 499 1299 q 658 1272 617 1299 q 700 1210 700 1246 q 682 1167 700 1182 q 640 1142 664 1151 q 599 1122 617 1132 q 581 1093 581 1111 z "},"Ư":{"ha":1044,"x_min":85,"x_max":1117,"o":"m 901 1157 l 1117 1157 l 1117 1097 q 1060 943 1117 1006 q 917 874 1004 881 l 963 940 l 963 417 q 849 98 963 208 q 524 -12 736 -12 q 196 97 307 -12 q 85 417 85 206 l 85 989 l 339 989 l 339 407 q 386 244 339 301 q 524 186 433 186 q 658 244 611 186 q 706 407 706 301 l 706 989 l 781 989 q 875 1019 849 989 q 901 1126 901 1049 l 901 1157 z "},"Ứ":{"ha":1044,"x_min":85,"x_max":1117,"o":"m 901 1157 l 1117 1157 l 1117 1097 q 1060 943 1117 1006 q 917 874 1004 881 l 963 940 l 963 417 q 849 98 963 208 q 524 -12 736 -12 q 196 97 307 -12 q 85 417 85 206 l 85 989 l 339 989 l 339 407 q 386 244 339 301 q 524 186 433 186 q 658 244 611 186 q 706 407 706 301 l 706 989 l 781 989 q 875 1019 849 989 q 901 1126 901 1049 l 901 1157 m 599 1074 l 447 1074 l 592 1293 l 817 1293 l 599 1074 z "},"Ự":{"ha":1044,"x_min":85,"x_max":1117,"o":"m 901 1157 l 1117 1157 l 1117 1097 q 1060 943 1117 1006 q 917 874 1004 881 l 963 940 l 963 417 q 849 98 963 208 q 524 -12 736 -12 q 196 97 307 -12 q 85 417 85 206 l 85 989 l 339 989 l 339 407 q 386 244 339 301 q 524 186 433 186 q 658 244 611 186 q 706 407 706 301 l 706 989 l 781 989 q 875 1019 849 989 q 901 1126 901 1049 l 901 1157 m 413 -79 l 633 -79 l 633 -289 l 413 -289 l 413 -79 z "},"Ừ":{"ha":1044,"x_min":85,"x_max":1117,"o":"m 901 1157 l 1117 1157 l 1117 1097 q 1060 943 1117 1006 q 917 874 1004 881 l 963 940 l 963 417 q 849 98 963 208 q 524 -12 736 -12 q 196 97 307 -12 q 85 417 85 206 l 85 989 l 339 989 l 339 407 q 386 244 339 301 q 524 186 433 186 q 658 244 611 186 q 706 407 706 301 l 706 989 l 781 989 q 875 1019 849 989 q 901 1126 901 1049 l 901 1157 m 447 1074 l 229 1293 l 454 1293 l 599 1074 l 447 1074 z "},"Ử":{"ha":1044,"x_min":85,"x_max":1117,"o":"m 901 1157 l 1117 1157 l 1117 1097 q 1060 943 1117 1006 q 917 874 1004 881 l 963 940 l 963 417 q 849 98 963 208 q 524 -12 736 -12 q 196 97 307 -12 q 85 417 85 206 l 85 989 l 339 989 l 339 407 q 386 244 339 301 q 524 186 433 186 q 658 244 611 186 q 706 407 706 301 l 706 989 l 781 989 q 875 1019 849 989 q 901 1126 901 1049 l 901 1157 m 581 1093 l 581 1074 l 464 1074 l 464 1106 q 478 1142 464 1129 q 510 1161 492 1154 q 542 1174 528 1168 q 556 1188 556 1179 q 547 1203 556 1197 q 513 1210 539 1210 q 480 1206 500 1210 q 436 1196 460 1203 l 406 1274 q 465 1291 432 1283 q 547 1299 499 1299 q 658 1272 617 1299 q 700 1210 700 1246 q 682 1167 700 1182 q 640 1142 664 1151 q 599 1122 617 1132 q 581 1093 581 1111 z "},"Ữ":{"ha":1044,"x_min":85,"x_max":1117,"o":"m 901 1157 l 1117 1157 l 1117 1097 q 1060 943 1117 1006 q 917 874 1004 881 l 963 940 l 963 417 q 849 98 963 208 q 524 -12 736 -12 q 196 97 307 -12 q 85 417 85 206 l 85 989 l 339 989 l 339 407 q 386 244 339 301 q 524 186 433 186 q 658 244 611 186 q 706 407 706 301 l 706 989 l 781 989 q 875 1019 849 989 q 901 1126 901 1049 l 901 1157 m 272 1075 q 321 1245 272 1193 q 435 1297 369 1297 q 501 1280 469 1297 q 560 1245 532 1263 q 615 1228 589 1228 q 653 1244 638 1228 q 674 1293 669 1260 l 774 1293 q 725 1123 774 1175 q 611 1071 676 1071 q 545 1088 576 1071 q 485 1123 514 1106 q 431 1140 457 1140 q 392 1124 408 1140 q 372 1075 376 1108 l 272 1075 z "},"Ű":{"ha":1044,"x_min":85,"x_max":963,"o":"m 524 -12 q 196 97 307 -12 q 85 417 85 206 l 85 989 l 339 989 l 339 407 q 386 244 339 301 q 524 186 433 186 q 658 244 611 186 q 706 407 706 301 l 706 989 l 963 989 l 963 417 q 849 98 963 208 q 524 -12 736 -12 m 565 1074 l 669 1293 l 828 1293 l 688 1074 l 565 1074 m 358 1074 l 463 1293 l 622 1293 l 481 1074 l 358 1074 z "},"Ȗ":{"ha":1044,"x_min":85,"x_max":963,"o":"m 524 -12 q 196 97 307 -12 q 85 417 85 206 l 85 989 l 339 989 l 339 407 q 386 244 339 301 q 524 186 433 186 q 658 244 611 186 q 706 407 706 301 l 706 989 l 963 989 l 963 417 q 849 98 963 208 q 524 -12 736 -12 m 524 1283 q 687 1244 618 1283 q 781 1129 756 1204 l 674 1085 q 610 1128 651 1115 q 524 1142 569 1142 q 435 1128 476 1142 q 372 1085 394 1115 l 265 1129 q 359 1244 290 1204 q 524 1283 428 1283 z "},"Ū":{"ha":1044,"x_min":85,"x_max":963,"o":"m 524 -12 q 196 97 307 -12 q 85 417 85 206 l 85 989 l 339 989 l 339 407 q 386 244 339 301 q 524 186 433 186 q 658 244 611 186 q 706 407 706 301 l 706 989 l 963 989 l 963 417 q 849 98 963 208 q 524 -12 736 -12 m 300 1108 l 300 1258 l 746 1258 l 746 1108 l 300 1108 z "},"Ṻ":{"ha":1044,"x_min":85,"x_max":963,"o":"m 524 -12 q 196 97 307 -12 q 85 417 85 206 l 85 989 l 339 989 l 339 407 q 386 244 339 301 q 524 186 433 186 q 658 244 611 186 q 706 407 706 301 l 706 989 l 963 989 l 963 417 q 849 98 963 208 q 524 -12 736 -12 m 300 1108 l 300 1258 l 746 1258 l 746 1108 l 300 1108 m 551 1514 l 774 1514 l 774 1304 l 551 1304 l 551 1514 m 272 1514 l 494 1514 l 494 1304 l 272 1304 l 272 1514 z "},"Ų":{"ha":1044,"x_min":85,"x_max":963,"o":"m 706 989 l 963 989 l 963 417 q 891 147 963 251 q 683 7 819 43 q 627 -28 647 -3 q 607 -85 607 -53 q 628 -137 607 -119 q 688 -154 649 -154 q 724 -151 706 -154 q 761 -139 742 -147 l 786 -251 q 639 -278 715 -278 q 505 -234 557 -278 q 453 -122 453 -190 q 473 -45 453 -82 q 531 15 493 -8 l 543 -12 l 525 -12 q 197 97 308 -12 q 85 417 85 206 l 85 989 l 339 989 l 339 407 q 386 244 339 301 q 524 186 433 186 q 658 244 611 186 q 706 407 706 301 l 706 989 z "},"Ů":{"ha":1044,"x_min":85,"x_max":963,"o":"m 524 -12 q 196 97 307 -12 q 85 417 85 206 l 85 989 l 339 989 l 339 407 q 386 244 339 301 q 524 186 433 186 q 658 244 611 186 q 706 407 706 301 l 706 989 l 963 989 l 963 417 q 849 98 963 208 q 524 -12 736 -12 m 524 1067 q 410 1111 457 1067 q 364 1222 364 1156 q 410 1333 364 1288 q 524 1378 457 1378 q 635 1333 589 1378 q 682 1222 682 1288 q 635 1111 682 1156 q 524 1067 589 1067 m 524 1160 q 565 1178 549 1160 q 581 1222 581 1196 q 565 1265 581 1247 q 524 1282 549 1282 q 481 1265 497 1282 q 465 1222 465 1247 q 481 1178 465 1196 q 524 1160 497 1160 z "},"Ũ":{"ha":1044,"x_min":85,"x_max":963,"o":"m 524 -12 q 196 97 307 -12 q 85 417 85 206 l 85 989 l 339 989 l 339 407 q 386 244 339 301 q 524 186 433 186 q 658 244 611 186 q 706 407 706 301 l 706 989 l 963 989 l 963 417 q 849 98 963 208 q 524 -12 736 -12 m 272 1075 q 321 1245 272 1193 q 435 1297 369 1297 q 501 1280 469 1297 q 560 1245 532 1263 q 615 1228 589 1228 q 653 1244 638 1228 q 674 1293 669 1260 l 774 1293 q 725 1123 774 1175 q 611 1071 676 1071 q 545 1088 576 1071 q 485 1123 514 1106 q 431 1140 457 1140 q 392 1124 408 1140 q 372 1075 376 1108 l 272 1075 z "},"Ṹ":{"ha":1044,"x_min":85,"x_max":963,"o":"m 524 -12 q 196 97 307 -12 q 85 417 85 206 l 85 989 l 339 989 l 339 407 q 386 244 339 301 q 524 186 433 186 q 658 244 611 186 q 706 407 706 301 l 706 989 l 963 989 l 963 417 q 849 98 963 208 q 524 -12 736 -12 m 272 1075 q 321 1245 272 1193 q 435 1297 369 1297 q 501 1280 469 1297 q 560 1245 532 1263 q 615 1228 589 1228 q 653 1244 638 1228 q 674 1293 669 1260 l 774 1293 q 725 1123 774 1175 q 611 1071 676 1071 q 545 1088 576 1071 q 485 1123 514 1106 q 431 1140 457 1140 q 392 1124 408 1140 q 372 1075 376 1108 l 272 1075 m 599 1299 l 447 1299 l 592 1518 l 817 1518 l 599 1299 z "},"V":{"ha":1043,"x_min":-32,"x_max":1075,"o":"m 418 0 l -32 989 l 239 989 l 560 242 l 488 242 l 813 989 l 1075 989 l 625 0 l 418 0 z "},"W":{"ha":1572,"x_min":17,"x_max":1556,"o":"m 369 0 l 17 989 l 282 989 l 514 278 l 454 278 l 706 989 l 883 989 l 1121 278 l 1069 278 l 1308 989 l 1556 989 l 1201 0 l 994 0 l 769 639 l 806 639 l 576 0 l 369 0 z "},"Ẃ":{"ha":1572,"x_min":17,"x_max":1556,"o":"m 369 0 l 17 989 l 282 989 l 514 278 l 454 278 l 706 989 l 883 989 l 1121 278 l 1069 278 l 1308 989 l 1556 989 l 1201 0 l 994 0 l 769 639 l 806 639 l 576 0 l 369 0 m 863 1074 l 711 1074 l 856 1293 l 1081 1293 l 863 1074 z "},"Ŵ":{"ha":1572,"x_min":17,"x_max":1556,"o":"m 369 0 l 17 989 l 282 989 l 514 278 l 454 278 l 706 989 l 883 989 l 1121 278 l 1069 278 l 1308 989 l 1556 989 l 1201 0 l 994 0 l 769 639 l 806 639 l 576 0 l 369 0 m 707 1074 l 525 1074 l 718 1293 l 856 1293 l 1049 1074 l 867 1074 l 788 1182 l 707 1074 z "},"Ẅ":{"ha":1572,"x_min":17,"x_max":1556,"o":"m 369 0 l 17 989 l 282 989 l 514 278 l 454 278 l 706 989 l 883 989 l 1121 278 l 1069 278 l 1308 989 l 1556 989 l 1201 0 l 994 0 l 769 639 l 806 639 l 576 0 l 369 0 m 815 1289 l 1038 1289 l 1038 1079 l 815 1079 l 815 1289 m 536 1289 l 758 1289 l 758 1079 l 536 1079 l 536 1289 z "},"Ẁ":{"ha":1572,"x_min":17,"x_max":1556,"o":"m 369 0 l 17 989 l 282 989 l 514 278 l 454 278 l 706 989 l 883 989 l 1121 278 l 1069 278 l 1308 989 l 1556 989 l 1201 0 l 994 0 l 769 639 l 806 639 l 576 0 l 369 0 m 711 1074 l 493 1293 l 718 1293 l 863 1074 l 711 1074 z "},"X":{"ha":964,"x_min":-44,"x_max":1006,"o":"m 258 0 l -44 0 l 332 500 l 479 689 l 697 989 l 1000 989 l 628 500 l 481 308 l 258 0 m 701 0 l 481 308 l 332 500 l -36 989 l 265 989 l 479 689 l 628 500 l 1006 0 l 701 0 z "},"Y":{"ha":913,"x_min":-90,"x_max":1006,"o":"m 325 0 l 325 444 l 379 300 l -90 989 l 204 989 l 488 542 l 421 542 l 708 989 l 1006 989 l 535 300 l 588 444 l 588 0 l 325 0 z "},"Ý":{"ha":913,"x_min":-90,"x_max":1006,"o":"m 325 0 l 325 444 l 379 300 l -90 989 l 204 989 l 488 542 l 421 542 l 708 989 l 1006 989 l 535 300 l 588 444 l 588 0 l 325 0 m 531 1074 l 379 1074 l 524 1293 l 749 1293 l 531 1074 z "},"Ŷ":{"ha":913,"x_min":-90,"x_max":1006,"o":"m 325 0 l 325 444 l 379 300 l -90 989 l 204 989 l 488 542 l 421 542 l 708 989 l 1006 989 l 535 300 l 588 444 l 588 0 l 325 0 m 375 1074 l 193 1074 l 386 1293 l 524 1293 l 717 1074 l 535 1074 l 456 1182 l 375 1074 z "},"Ÿ":{"ha":913,"x_min":-90,"x_max":1006,"o":"m 325 0 l 325 444 l 379 300 l -90 989 l 204 989 l 488 542 l 421 542 l 708 989 l 1006 989 l 535 300 l 588 444 l 588 0 l 325 0 m 483 1289 l 706 1289 l 706 1079 l 483 1079 l 483 1289 m 204 1289 l 426 1289 l 426 1079 l 204 1079 l 204 1289 z "},"Ẏ":{"ha":913,"x_min":-90,"x_max":1006,"o":"m 325 0 l 325 444 l 379 300 l -90 989 l 204 989 l 488 542 l 421 542 l 708 989 l 1006 989 l 535 300 l 588 444 l 588 0 l 325 0 m 324 1297 l 586 1297 l 586 1071 l 324 1071 l 324 1297 z "},"Ỵ":{"ha":913,"x_min":-90,"x_max":1006,"o":"m 325 0 l 325 444 l 379 300 l -90 989 l 204 989 l 488 542 l 421 542 l 708 989 l 1006 989 l 535 300 l 588 444 l 588 0 l 325 0 m 346 -79 l 567 -79 l 567 -289 l 346 -289 l 346 -79 z "},"Ỳ":{"ha":913,"x_min":-90,"x_max":1006,"o":"m 325 0 l 325 444 l 379 300 l -90 989 l 204 989 l 488 542 l 421 542 l 708 989 l 1006 989 l 535 300 l 588 444 l 588 0 l 325 0 m 379 1074 l 161 1293 l 386 1293 l 531 1074 l 379 1074 z "},"Ỷ":{"ha":913,"x_min":-90,"x_max":1006,"o":"m 325 0 l 325 444 l 379 300 l -90 989 l 204 989 l 488 542 l 421 542 l 708 989 l 1006 989 l 535 300 l 588 444 l 588 0 l 325 0 m 513 1093 l 513 1074 l 396 1074 l 396 1106 q 410 1142 396 1129 q 442 1161 424 1154 q 474 1174 460 1168 q 488 1188 488 1179 q 479 1203 488 1197 q 444 1210 471 1210 q 412 1206 432 1210 q 368 1196 392 1203 l 338 1274 q 397 1291 364 1283 q 479 1299 431 1299 q 590 1272 549 1299 q 632 1210 632 1246 q 614 1167 632 1182 q 572 1142 596 1151 q 531 1122 549 1132 q 513 1093 513 1111 z "},"Ȳ":{"ha":913,"x_min":-90,"x_max":1006,"o":"m 325 0 l 325 444 l 379 300 l -90 989 l 204 989 l 488 542 l 421 542 l 708 989 l 1006 989 l 535 300 l 588 444 l 588 0 l 325 0 m 232 1108 l 232 1258 l 678 1258 l 678 1108 l 232 1108 z "},"Ỹ":{"ha":913,"x_min":-90,"x_max":1006,"o":"m 325 0 l 325 444 l 379 300 l -90 989 l 204 989 l 488 542 l 421 542 l 708 989 l 1006 989 l 535 300 l 588 444 l 588 0 l 325 0 m 204 1075 q 253 1245 204 1193 q 367 1297 301 1297 q 433 1280 401 1297 q 492 1245 464 1263 q 547 1228 521 1228 q 585 1244 569 1228 q 606 1293 601 1260 l 706 1293 q 657 1123 706 1175 q 543 1071 608 1071 q 477 1088 508 1071 q 417 1123 446 1106 q 363 1140 389 1140 q 324 1124 340 1140 q 304 1075 308 1108 l 204 1075 z "},"Z":{"ha":867,"x_min":74,"x_max":818,"o":"m 74 0 l 74 190 l 556 847 l 556 785 l 74 785 l 74 989 l 803 989 l 803 801 l 315 142 l 318 204 l 818 204 l 818 0 l 74 0 z "},"Ź":{"ha":867,"x_min":74,"x_max":818,"o":"m 74 0 l 74 190 l 556 847 l 556 785 l 74 785 l 74 989 l 803 989 l 803 801 l 315 142 l 318 204 l 818 204 l 818 0 l 74 0 m 511 1074 l 360 1074 l 504 1293 l 729 1293 l 511 1074 z "},"Ž":{"ha":867,"x_min":74,"x_max":818,"o":"m 74 0 l 74 190 l 556 847 l 556 785 l 74 785 l 74 989 l 803 989 l 803 801 l 315 142 l 318 204 l 818 204 l 818 0 l 74 0 m 515 1293 l 697 1293 l 504 1074 l 367 1074 l 174 1293 l 356 1293 l 436 1183 l 515 1293 z "},"Ż":{"ha":867,"x_min":74,"x_max":818,"o":"m 74 0 l 74 190 l 556 847 l 556 785 l 74 785 l 74 989 l 803 989 l 803 801 l 315 142 l 318 204 l 818 204 l 818 0 l 74 0 m 304 1297 l 567 1297 l 567 1071 l 304 1071 l 304 1297 z "},"Ẓ":{"ha":867,"x_min":74,"x_max":818,"o":"m 74 0 l 74 190 l 556 847 l 556 785 l 74 785 l 74 989 l 803 989 l 803 801 l 315 142 l 318 204 l 818 204 l 818 0 l 74 0 m 315 -79 l 536 -79 l 536 -289 l 315 -289 l 315 -79 z "},"a":{"ha":893,"x_min":43,"x_max":818,"o":"m 354 -11 q 193 33 264 -11 q 83 160 122 78 q 43 351 43 242 q 83 547 43 463 q 194 678 124 631 q 354 725 264 725 q 499 685 435 725 q 588 582 564 646 l 571 572 l 571 706 l 818 706 l 818 0 l 571 0 l 571 129 l 588 129 q 499 26 564 64 q 354 -11 435 -11 m 432 176 q 534 222 497 176 q 571 354 571 268 q 535 489 571 443 q 432 535 499 535 q 329 487 367 535 q 292 351 292 439 q 328 222 292 267 q 432 176 364 176 z "},"á":{"ha":893,"x_min":43,"x_max":818,"o":"m 354 -11 q 193 33 264 -11 q 83 160 122 78 q 43 351 43 242 q 83 547 43 463 q 194 678 124 631 q 354 725 264 725 q 499 685 435 725 q 588 582 564 646 l 571 572 l 571 706 l 818 706 l 818 0 l 571 0 l 571 129 l 588 129 q 499 26 564 64 q 354 -11 435 -11 m 432 176 q 534 222 497 176 q 571 354 571 268 q 535 489 571 443 q 432 535 499 535 q 329 487 367 535 q 292 351 292 439 q 328 222 292 267 q 432 176 364 176 m 521 796 l 369 796 l 506 1085 l 744 1085 l 521 796 z "},"ă":{"ha":893,"x_min":43,"x_max":818,"o":"m 354 -11 q 193 33 264 -11 q 83 160 122 78 q 43 351 43 242 q 83 547 43 463 q 194 678 124 631 q 354 725 264 725 q 499 685 435 725 q 588 582 564 646 l 571 572 l 571 706 l 818 706 l 818 0 l 571 0 l 571 129 l 588 129 q 499 26 564 64 q 354 -11 435 -11 m 432 176 q 534 222 497 176 q 571 354 571 268 q 535 489 571 443 q 432 535 499 535 q 329 487 367 535 q 292 351 292 439 q 328 222 292 267 q 432 176 364 176 m 446 824 q 328 847 385 824 q 230 917 271 869 q 174 1036 189 964 l 281 1083 q 356 1001 314 1025 q 446 976 399 976 q 534 1001 492 976 q 610 1083 576 1025 l 717 1036 q 660 917 701 964 q 563 847 619 869 q 446 824 507 824 z "},"ắ":{"ha":893,"x_min":43,"x_max":818,"o":"m 354 -11 q 193 33 264 -11 q 83 160 122 78 q 43 351 43 242 q 83 547 43 463 q 194 678 124 631 q 354 725 264 725 q 499 685 435 725 q 588 582 564 646 l 571 572 l 571 706 l 818 706 l 818 0 l 571 0 l 571 129 l 588 129 q 499 26 564 64 q 354 -11 435 -11 m 432 176 q 534 222 497 176 q 571 354 571 268 q 535 489 571 443 q 432 535 499 535 q 329 487 367 535 q 292 351 292 439 q 328 222 292 267 q 432 176 364 176 m 446 789 q 281 829 350 789 q 188 943 213 869 l 267 976 q 342 926 289 944 q 446 908 394 908 q 549 926 497 908 q 624 976 601 944 l 703 943 q 609 829 678 869 q 446 789 540 789 m 517 949 l 374 949 l 514 1144 l 721 1144 l 517 949 z "},"ặ":{"ha":893,"x_min":43,"x_max":818,"o":"m 354 -11 q 193 33 264 -11 q 83 160 122 78 q 43 351 43 242 q 83 547 43 463 q 194 678 124 631 q 354 725 264 725 q 499 685 435 725 q 588 582 564 646 l 571 572 l 571 706 l 818 706 l 818 0 l 571 0 l 571 129 l 588 129 q 499 26 564 64 q 354 -11 435 -11 m 432 176 q 534 222 497 176 q 571 354 571 268 q 535 489 571 443 q 432 535 499 535 q 329 487 367 535 q 292 351 292 439 q 328 222 292 267 q 432 176 364 176 m 335 -79 l 556 -79 l 556 -289 l 335 -289 l 335 -79 m 446 824 q 328 847 385 824 q 230 917 271 869 q 174 1036 189 964 l 281 1083 q 356 1001 314 1025 q 446 976 399 976 q 534 1001 492 976 q 610 1083 576 1025 l 717 1036 q 660 917 701 964 q 563 847 619 869 q 446 824 507 824 z "},"ằ":{"ha":893,"x_min":43,"x_max":818,"o":"m 354 -11 q 193 33 264 -11 q 83 160 122 78 q 43 351 43 242 q 83 547 43 463 q 194 678 124 631 q 354 725 264 725 q 499 685 435 725 q 588 582 564 646 l 571 572 l 571 706 l 818 706 l 818 0 l 571 0 l 571 129 l 588 129 q 499 26 564 64 q 354 -11 435 -11 m 432 176 q 534 222 497 176 q 571 354 571 268 q 535 489 571 443 q 432 535 499 535 q 329 487 367 535 q 292 351 292 439 q 328 222 292 267 q 432 176 364 176 m 446 789 q 281 829 350 789 q 188 943 213 869 l 267 976 q 342 926 289 944 q 446 908 394 908 q 549 926 497 908 q 624 976 601 944 l 703 943 q 609 829 678 869 q 446 789 540 789 m 374 949 l 169 1144 l 376 1144 l 517 949 l 374 949 z "},"ẳ":{"ha":893,"x_min":43,"x_max":818,"o":"m 354 -11 q 193 33 264 -11 q 83 160 122 78 q 43 351 43 242 q 83 547 43 463 q 194 678 124 631 q 354 725 264 725 q 499 685 435 725 q 588 582 564 646 l 571 572 l 571 706 l 818 706 l 818 0 l 571 0 l 571 129 l 588 129 q 499 26 564 64 q 354 -11 435 -11 m 432 176 q 534 222 497 176 q 571 354 571 268 q 535 489 571 443 q 432 535 499 535 q 329 487 367 535 q 292 351 292 439 q 328 222 292 267 q 432 176 364 176 m 446 789 q 281 829 350 789 q 188 943 213 869 l 267 976 q 342 926 289 944 q 446 908 394 908 q 549 926 497 908 q 624 976 601 944 l 703 943 q 609 829 678 869 q 446 789 540 789 m 503 961 l 503 950 l 386 950 l 386 979 q 400 1014 386 1001 q 432 1033 414 1026 q 464 1044 450 1040 q 478 1051 478 1047 q 469 1062 478 1056 q 435 1068 461 1068 q 402 1064 422 1068 q 358 1053 382 1060 l 328 1128 q 388 1147 354 1139 q 469 1154 421 1154 q 581 1131 539 1154 q 622 1069 622 1107 q 604 1028 622 1043 q 563 1006 586 1014 q 521 988 539 997 q 503 961 503 978 z "},"ẵ":{"ha":893,"x_min":43,"x_max":818,"o":"m 354 -11 q 193 33 264 -11 q 83 160 122 78 q 43 351 43 242 q 83 547 43 463 q 194 678 124 631 q 354 725 264 725 q 499 685 435 725 q 588 582 564 646 l 571 572 l 571 706 l 818 706 l 818 0 l 571 0 l 571 129 l 588 129 q 499 26 564 64 q 354 -11 435 -11 m 432 176 q 534 222 497 176 q 571 354 571 268 q 535 489 571 443 q 432 535 499 535 q 329 487 367 535 q 292 351 292 439 q 328 222 292 267 q 432 176 364 176 m 446 789 q 281 829 350 789 q 188 943 213 869 l 267 976 q 342 926 289 944 q 446 908 394 908 q 549 926 497 908 q 624 976 601 944 l 703 943 q 609 829 678 869 q 446 789 540 789 m 194 1003 q 217 1078 194 1044 q 276 1131 239 1111 q 357 1150 314 1150 q 423 1142 392 1150 q 483 1124 454 1133 q 538 1115 511 1115 q 576 1121 560 1115 q 596 1146 592 1126 l 696 1146 q 674 1071 696 1104 q 614 1018 651 1038 q 533 999 576 999 q 467 1007 499 999 q 408 1024 436 1015 q 353 1033 379 1033 q 315 1028 331 1033 q 294 1003 299 1022 l 194 1003 z "},"ǎ":{"ha":893,"x_min":43,"x_max":818,"o":"m 354 -11 q 193 33 264 -11 q 83 160 122 78 q 43 351 43 242 q 83 547 43 463 q 194 678 124 631 q 354 725 264 725 q 499 685 435 725 q 588 582 564 646 l 571 572 l 571 706 l 818 706 l 818 0 l 571 0 l 571 129 l 588 129 q 499 26 564 64 q 354 -11 435 -11 m 432 176 q 534 222 497 176 q 571 354 571 268 q 535 489 571 443 q 432 535 499 535 q 329 487 367 535 q 292 351 292 439 q 328 222 292 267 q 432 176 364 176 m 518 1085 l 707 1085 l 518 796 l 372 796 l 183 1085 l 372 1085 l 446 936 l 518 1085 z "},"â":{"ha":893,"x_min":43,"x_max":818,"o":"m 354 -11 q 193 33 264 -11 q 83 160 122 78 q 43 351 43 242 q 83 547 43 463 q 194 678 124 631 q 354 725 264 725 q 499 685 435 725 q 588 582 564 646 l 571 572 l 571 706 l 818 706 l 818 0 l 571 0 l 571 129 l 588 129 q 499 26 564 64 q 354 -11 435 -11 m 432 176 q 534 222 497 176 q 571 354 571 268 q 535 489 571 443 q 432 535 499 535 q 329 487 367 535 q 292 351 292 439 q 328 222 292 267 q 432 176 364 176 m 372 796 l 183 796 l 372 1085 l 518 1085 l 707 796 l 518 796 l 446 943 l 372 796 z "},"ấ":{"ha":893,"x_min":43,"x_max":869,"o":"m 354 -11 q 193 33 264 -11 q 83 160 122 78 q 43 351 43 242 q 83 547 43 463 q 194 678 124 631 q 354 725 264 725 q 499 685 435 725 q 588 582 564 646 l 571 572 l 571 706 l 818 706 l 818 0 l 571 0 l 571 129 l 588 129 q 499 26 564 64 q 354 -11 435 -11 m 432 176 q 534 222 497 176 q 571 354 571 268 q 535 489 571 443 q 432 535 499 535 q 329 487 367 535 q 292 351 292 439 q 328 222 292 267 q 432 176 364 176 m 361 796 l 183 796 l 376 985 l 514 985 l 707 796 l 529 796 l 446 878 l 361 796 m 699 949 l 582 949 l 672 1144 l 869 1144 l 699 949 z "},"ậ":{"ha":893,"x_min":43,"x_max":818,"o":"m 354 -11 q 193 33 264 -11 q 83 160 122 78 q 43 351 43 242 q 83 547 43 463 q 194 678 124 631 q 354 725 264 725 q 499 685 435 725 q 588 582 564 646 l 571 572 l 571 706 l 818 706 l 818 0 l 571 0 l 571 129 l 588 129 q 499 26 564 64 q 354 -11 435 -11 m 432 176 q 534 222 497 176 q 571 354 571 268 q 535 489 571 443 q 432 535 499 535 q 329 487 367 535 q 292 351 292 439 q 328 222 292 267 q 432 176 364 176 m 335 -79 l 556 -79 l 556 -289 l 335 -289 l 335 -79 m 372 796 l 183 796 l 372 1085 l 518 1085 l 707 796 l 518 796 l 446 943 l 372 796 z "},"ầ":{"ha":893,"x_min":43,"x_max":818,"o":"m 354 -11 q 193 33 264 -11 q 83 160 122 78 q 43 351 43 242 q 83 547 43 463 q 194 678 124 631 q 354 725 264 725 q 499 685 435 725 q 588 582 564 646 l 571 572 l 571 706 l 818 706 l 818 0 l 571 0 l 571 129 l 588 129 q 499 26 564 64 q 354 -11 435 -11 m 432 176 q 534 222 497 176 q 571 354 571 268 q 535 489 571 443 q 432 535 499 535 q 329 487 367 535 q 292 351 292 439 q 328 222 292 267 q 432 176 364 176 m 361 796 l 183 796 l 376 985 l 514 985 l 707 796 l 529 796 l 446 878 l 361 796 m 642 949 l 465 1144 l 664 1144 l 758 949 l 642 949 z "},"ẩ":{"ha":893,"x_min":43,"x_max":818,"o":"m 354 -11 q 193 33 264 -11 q 83 160 122 78 q 43 351 43 242 q 83 547 43 463 q 194 678 124 631 q 354 725 264 725 q 499 685 435 725 q 588 582 564 646 l 571 572 l 571 706 l 818 706 l 818 0 l 571 0 l 571 129 l 588 129 q 499 26 564 64 q 354 -11 435 -11 m 432 176 q 534 222 497 176 q 571 354 571 268 q 535 489 571 443 q 432 535 499 535 q 329 487 367 535 q 292 351 292 439 q 328 222 292 267 q 432 176 364 176 m 361 796 l 183 796 l 376 985 l 514 985 l 707 796 l 529 796 l 446 878 l 361 796 m 697 961 l 697 950 l 581 950 l 581 979 q 594 1014 581 1001 q 626 1033 608 1026 q 658 1044 644 1040 q 672 1051 672 1047 q 664 1062 672 1056 q 631 1068 656 1068 q 597 1064 618 1068 q 553 1053 576 1060 l 522 1128 q 583 1147 549 1139 q 664 1154 617 1154 q 776 1131 735 1154 q 817 1069 817 1107 q 799 1028 817 1043 q 757 1006 781 1014 q 715 988 733 997 q 697 961 697 978 z "},"ẫ":{"ha":893,"x_min":43,"x_max":818,"o":"m 354 -11 q 193 33 264 -11 q 83 160 122 78 q 43 351 43 242 q 83 547 43 463 q 194 678 124 631 q 354 725 264 725 q 499 685 435 725 q 588 582 564 646 l 571 572 l 571 706 l 818 706 l 818 0 l 571 0 l 571 129 l 588 129 q 499 26 564 64 q 354 -11 435 -11 m 432 176 q 534 222 497 176 q 571 354 571 268 q 535 489 571 443 q 432 535 499 535 q 329 487 367 535 q 292 351 292 439 q 328 222 292 267 q 432 176 364 176 m 361 796 l 183 796 l 376 985 l 514 985 l 707 796 l 529 796 l 446 878 l 361 796 m 194 1011 q 217 1088 194 1054 q 276 1142 239 1122 q 357 1161 314 1161 q 423 1151 392 1161 q 483 1132 454 1142 q 538 1122 511 1122 q 576 1128 560 1122 q 596 1156 592 1133 l 696 1156 q 674 1080 696 1114 q 614 1026 651 1046 q 533 1006 576 1006 q 467 1015 499 1006 q 408 1035 436 1025 q 353 1044 379 1044 q 315 1039 331 1044 q 294 1011 299 1033 l 194 1011 z "},"ȁ":{"ha":893,"x_min":43,"x_max":818,"o":"m 354 -11 q 193 33 264 -11 q 83 160 122 78 q 43 351 43 242 q 83 547 43 463 q 194 678 124 631 q 354 725 264 725 q 499 685 435 725 q 588 582 564 646 l 571 572 l 571 706 l 818 706 l 818 0 l 571 0 l 571 129 l 588 129 q 499 26 564 64 q 354 -11 435 -11 m 432 176 q 534 222 497 176 q 571 354 571 268 q 535 489 571 443 q 432 535 499 535 q 329 487 367 535 q 292 351 292 439 q 328 222 292 267 q 432 176 364 176 m 496 796 l 386 1085 l 558 1085 l 600 796 l 496 796 m 290 796 l 182 1085 l 354 1085 l 394 796 l 290 796 z "},"ä":{"ha":893,"x_min":43,"x_max":818,"o":"m 354 -11 q 193 33 264 -11 q 83 160 122 78 q 43 351 43 242 q 83 547 43 463 q 194 678 124 631 q 354 725 264 725 q 499 685 435 725 q 588 582 564 646 l 571 572 l 571 706 l 818 706 l 818 0 l 571 0 l 571 129 l 588 129 q 499 26 564 64 q 354 -11 435 -11 m 432 176 q 534 222 497 176 q 571 354 571 268 q 535 489 571 443 q 432 535 499 535 q 329 487 367 535 q 292 351 292 439 q 328 222 292 267 q 432 176 364 176 m 474 1043 l 696 1043 l 696 832 l 474 832 l 474 1043 m 194 1043 l 417 1043 l 417 832 l 194 832 l 194 1043 z "},"ȧ":{"ha":893,"x_min":43,"x_max":818,"o":"m 354 -11 q 193 33 264 -11 q 83 160 122 78 q 43 351 43 242 q 83 547 43 463 q 194 678 124 631 q 354 725 264 725 q 499 685 435 725 q 588 582 564 646 l 571 572 l 571 706 l 818 706 l 818 0 l 571 0 l 571 129 l 588 129 q 499 26 564 64 q 354 -11 435 -11 m 432 176 q 534 222 497 176 q 571 354 571 268 q 535 489 571 443 q 432 535 499 535 q 329 487 367 535 q 292 351 292 439 q 328 222 292 267 q 432 176 364 176 m 314 1051 l 576 1051 l 576 825 l 314 825 l 314 1051 z "},"ạ":{"ha":893,"x_min":43,"x_max":818,"o":"m 354 -11 q 193 33 264 -11 q 83 160 122 78 q 43 351 43 242 q 83 547 43 463 q 194 678 124 631 q 354 725 264 725 q 499 685 435 725 q 588 582 564 646 l 571 572 l 571 706 l 818 706 l 818 0 l 571 0 l 571 129 l 588 129 q 499 26 564 64 q 354 -11 435 -11 m 432 176 q 534 222 497 176 q 571 354 571 268 q 535 489 571 443 q 432 535 499 535 q 329 487 367 535 q 292 351 292 439 q 328 222 292 267 q 432 176 364 176 m 335 -79 l 556 -79 l 556 -289 l 335 -289 l 335 -79 z "},"à":{"ha":893,"x_min":43,"x_max":818,"o":"m 354 -11 q 193 33 264 -11 q 83 160 122 78 q 43 351 43 242 q 83 547 43 463 q 194 678 124 631 q 354 725 264 725 q 499 685 435 725 q 588 582 564 646 l 571 572 l 571 706 l 818 706 l 818 0 l 571 0 l 571 129 l 588 129 q 499 26 564 64 q 354 -11 435 -11 m 432 176 q 534 222 497 176 q 571 354 571 268 q 535 489 571 443 q 432 535 499 535 q 329 487 367 535 q 292 351 292 439 q 328 222 292 267 q 432 176 364 176 m 369 796 l 146 1085 l 385 1085 l 521 796 l 369 796 z "},"ả":{"ha":893,"x_min":43,"x_max":818,"o":"m 354 -11 q 193 33 264 -11 q 83 160 122 78 q 43 351 43 242 q 83 547 43 463 q 194 678 124 631 q 354 725 264 725 q 499 685 435 725 q 588 582 564 646 l 571 572 l 571 706 l 818 706 l 818 0 l 571 0 l 571 129 l 588 129 q 499 26 564 64 q 354 -11 435 -11 m 432 176 q 534 222 497 176 q 571 354 571 268 q 535 489 571 443 q 432 535 499 535 q 329 487 367 535 q 292 351 292 439 q 328 222 292 267 q 432 176 364 176 m 507 828 l 507 796 l 388 796 l 388 829 q 399 876 388 858 q 427 907 411 894 q 455 930 443 919 q 467 954 467 940 q 456 977 467 969 q 424 985 446 985 q 394 983 410 985 q 360 974 379 981 l 328 1060 q 392 1082 363 1076 q 451 1088 422 1088 q 580 1054 538 1088 q 622 979 622 1021 q 605 925 622 946 q 565 889 588 904 q 524 860 542 874 q 507 828 507 846 z "},"ȃ":{"ha":893,"x_min":43,"x_max":818,"o":"m 354 -11 q 193 33 264 -11 q 83 160 122 78 q 43 351 43 242 q 83 547 43 463 q 194 678 124 631 q 354 725 264 725 q 499 685 435 725 q 588 582 564 646 l 571 572 l 571 706 l 818 706 l 818 0 l 571 0 l 571 129 l 588 129 q 499 26 564 64 q 354 -11 435 -11 m 432 176 q 534 222 497 176 q 571 354 571 268 q 535 489 571 443 q 432 535 499 535 q 329 487 367 535 q 292 351 292 439 q 328 222 292 267 q 432 176 364 176 m 446 1075 q 563 1051 507 1075 q 660 981 619 1028 q 717 861 701 933 l 610 817 q 534 898 576 872 q 446 924 492 924 q 356 898 399 924 q 281 817 314 872 l 174 863 q 231 981 189 933 q 328 1051 272 1028 q 446 1075 385 1075 z "},"ā":{"ha":893,"x_min":43,"x_max":818,"o":"m 354 -11 q 193 33 264 -11 q 83 160 122 78 q 43 351 43 242 q 83 547 43 463 q 194 678 124 631 q 354 725 264 725 q 499 685 435 725 q 588 582 564 646 l 571 572 l 571 706 l 818 706 l 818 0 l 571 0 l 571 129 l 588 129 q 499 26 564 64 q 354 -11 435 -11 m 432 176 q 534 222 497 176 q 571 354 571 268 q 535 489 571 443 q 432 535 499 535 q 329 487 367 535 q 292 351 292 439 q 328 222 292 267 q 432 176 364 176 m 222 863 l 222 1013 l 668 1013 l 668 863 l 222 863 z "},"ą":{"ha":893,"x_min":43,"x_max":871,"o":"m 818 0 l 804 0 q 719 -24 751 0 q 686 -87 686 -49 q 708 -142 686 -124 q 769 -160 729 -160 q 846 -143 807 -160 l 871 -257 q 797 -278 836 -269 q 718 -286 758 -286 q 585 -240 638 -286 q 532 -121 532 -193 q 564 -21 532 -65 q 656 53 596 24 l 640 0 l 571 0 l 571 139 l 588 129 q 499 26 564 64 q 354 -11 435 -11 q 191 34 261 -11 q 82 161 121 79 q 43 351 43 243 q 83 545 43 461 q 192 677 122 629 q 354 725 263 725 q 499 685 435 725 q 588 582 564 646 l 571 572 l 571 706 l 818 706 l 818 0 m 432 176 q 534 222 497 176 q 571 354 571 268 q 535 489 571 443 q 432 535 499 535 q 329 487 367 535 q 292 351 292 439 q 328 222 292 267 q 432 176 364 176 z "},"å":{"ha":893,"x_min":43,"x_max":818,"o":"m 354 -11 q 193 33 264 -11 q 83 160 122 78 q 43 351 43 242 q 83 547 43 463 q 194 678 124 631 q 354 725 264 725 q 499 685 435 725 q 588 582 564 646 l 571 572 l 571 706 l 818 706 l 818 0 l 571 0 l 571 129 l 588 129 q 499 26 564 64 q 354 -11 435 -11 m 432 176 q 534 222 497 176 q 571 354 571 268 q 535 489 571 443 q 432 535 499 535 q 329 487 367 535 q 292 351 292 439 q 328 222 292 267 q 432 176 364 176 m 446 786 q 333 831 379 786 q 286 942 286 875 q 333 1052 286 1007 q 446 1097 379 1097 q 525 1076 489 1097 q 583 1020 561 1056 q 604 942 604 985 q 558 831 604 875 q 446 786 511 786 m 446 879 q 487 897 471 879 q 503 942 503 915 q 487 984 503 967 q 446 1001 471 1001 q 403 984 419 1001 q 388 942 388 967 q 403 897 388 915 q 446 879 419 879 z "},"ǻ":{"ha":893,"x_min":43,"x_max":818,"o":"m 354 -11 q 193 33 264 -11 q 83 160 122 78 q 43 351 43 242 q 83 547 43 463 q 194 678 124 631 q 354 725 264 725 q 499 685 435 725 q 588 582 564 646 l 571 572 l 571 706 l 818 706 l 818 0 l 571 0 l 571 129 l 588 129 q 499 26 564 64 q 354 -11 435 -11 m 432 176 q 534 222 497 176 q 571 354 571 268 q 535 489 571 443 q 432 535 499 535 q 329 487 367 535 q 292 351 292 439 q 328 222 292 267 q 432 176 364 176 m 446 788 q 332 833 378 788 q 286 947 286 879 q 332 1058 286 1013 q 446 1103 378 1103 q 561 1058 514 1103 q 608 947 608 1013 q 561 833 608 879 q 446 788 514 788 m 446 882 q 489 901 472 882 q 506 947 506 921 q 489 991 506 974 q 446 1008 472 1008 q 403 991 419 1008 q 388 947 388 974 q 403 901 388 921 q 446 882 419 882 m 582 996 l 494 1081 l 600 1226 l 811 1217 l 582 996 z "},"ã":{"ha":893,"x_min":43,"x_max":818,"o":"m 354 -11 q 193 33 264 -11 q 83 160 122 78 q 43 351 43 242 q 83 547 43 463 q 194 678 124 631 q 354 725 264 725 q 499 685 435 725 q 588 582 564 646 l 571 572 l 571 706 l 818 706 l 818 0 l 571 0 l 571 129 l 588 129 q 499 26 564 64 q 354 -11 435 -11 m 432 176 q 534 222 497 176 q 571 354 571 268 q 535 489 571 443 q 432 535 499 535 q 329 487 367 535 q 292 351 292 439 q 328 222 292 267 q 432 176 364 176 m 194 832 q 243 1002 194 950 q 357 1054 292 1054 q 423 1037 392 1054 q 483 1002 454 1019 q 538 985 511 985 q 576 1001 560 985 q 596 1050 592 1017 l 696 1050 q 647 880 696 932 q 533 828 599 828 q 467 845 499 828 q 408 880 436 863 q 353 897 379 897 q 315 881 331 897 q 294 832 299 865 l 194 832 z "},"æ":{"ha":1194,"x_min":44,"x_max":1151,"o":"m 863 -11 q 601 84 693 -11 q 510 356 510 179 q 553 549 511 467 q 669 678 594 632 q 844 725 744 725 q 1004 678 935 725 q 1113 550 1074 632 q 1151 361 1151 468 l 1151 328 l 703 328 l 704 444 l 1000 444 l 940 404 q 914 515 940 476 q 838 553 888 553 q 747 508 778 553 q 715 347 715 463 q 751 223 715 272 q 881 174 788 174 q 979 190 928 174 q 1076 239 1031 207 l 1139 72 q 1013 10 1088 32 q 863 -11 938 -11 m 335 -11 q 185 18 250 -11 q 82 101 119 47 q 44 225 44 154 q 83 350 44 301 q 206 422 122 399 q 428 444 290 444 l 486 444 l 486 331 l 443 331 q 353 319 388 331 q 302 285 318 307 q 286 233 286 264 q 309 178 286 199 q 369 158 332 158 q 431 176 407 158 q 467 223 456 193 q 478 289 478 253 l 478 443 q 455 517 478 494 q 378 539 432 539 q 258 520 322 539 q 136 468 193 501 l 74 636 q 169 681 114 661 q 284 713 225 701 q 394 725 343 725 q 619 648 547 725 q 690 407 690 571 l 690 299 l 608 282 q 535 65 611 140 q 335 -11 458 -11 z "},"ǽ":{"ha":1194,"x_min":44,"x_max":1151,"o":"m 863 -11 q 601 84 693 -11 q 510 356 510 179 q 553 549 511 467 q 669 678 594 632 q 844 725 744 725 q 1004 678 935 725 q 1113 550 1074 632 q 1151 361 1151 468 l 1151 328 l 703 328 l 704 444 l 1000 444 l 940 404 q 914 515 940 476 q 838 553 888 553 q 747 508 778 553 q 715 347 715 463 q 751 223 715 272 q 881 174 788 174 q 979 190 928 174 q 1076 239 1031 207 l 1139 72 q 1013 10 1088 32 q 863 -11 938 -11 m 335 -11 q 185 18 250 -11 q 82 101 119 47 q 44 225 44 154 q 83 350 44 301 q 206 422 122 399 q 428 444 290 444 l 486 444 l 486 331 l 443 331 q 353 319 388 331 q 302 285 318 307 q 286 233 286 264 q 309 178 286 199 q 369 158 332 158 q 431 176 407 158 q 467 223 456 193 q 478 289 478 253 l 478 443 q 455 517 478 494 q 378 539 432 539 q 258 520 322 539 q 136 468 193 501 l 74 636 q 169 681 114 661 q 284 713 225 701 q 394 725 343 725 q 619 648 547 725 q 690 407 690 571 l 690 299 l 608 282 q 535 65 611 140 q 335 -11 458 -11 m 672 796 l 521 796 l 657 1085 l 896 1085 l 672 796 z "},"b":{"ha":896,"x_min":75,"x_max":853,"o":"m 75 0 l 75 1022 l 326 1022 l 326 553 l 308 583 q 394 685 331 646 q 540 725 458 725 q 702 680 632 725 q 813 552 772 635 q 853 360 853 469 q 813 165 853 249 q 702 35 772 82 q 540 -11 632 -11 q 394 26 458 -11 q 308 129 331 64 l 324 165 l 324 0 l 75 0 m 464 176 q 566 224 531 176 q 601 360 601 271 q 567 490 601 444 q 464 535 532 535 q 360 488 396 535 q 324 357 324 442 q 360 222 324 268 q 464 176 396 176 z "},"c":{"ha":715,"x_min":43,"x_max":708,"o":"m 425 -11 q 219 33 306 -11 q 88 158 133 76 q 43 351 43 240 q 92 548 43 464 q 230 678 142 632 q 436 725 318 725 q 589 702 514 725 q 708 640 664 679 l 644 467 q 557 515 607 497 q 461 533 507 533 q 343 490 386 533 q 300 357 300 447 q 342 222 300 265 q 463 178 385 178 q 557 195 507 178 q 644 244 607 213 l 708 74 q 585 11 661 33 q 425 -11 510 -11 z "},"ć":{"ha":715,"x_min":43,"x_max":728,"o":"m 425 -11 q 219 33 306 -11 q 88 158 133 76 q 43 351 43 240 q 92 548 43 464 q 230 678 142 632 q 436 725 318 725 q 589 702 514 725 q 708 640 664 679 l 644 467 q 557 515 607 497 q 461 533 507 533 q 343 490 386 533 q 300 357 300 447 q 342 222 300 265 q 463 178 385 178 q 557 195 507 178 q 644 244 607 213 l 708 74 q 585 11 661 33 q 425 -11 510 -11 m 504 796 l 353 796 l 489 1085 l 728 1085 l 504 796 z "},"č":{"ha":715,"x_min":43,"x_max":708,"o":"m 425 -11 q 219 33 306 -11 q 88 158 133 76 q 43 351 43 240 q 92 548 43 464 q 230 678 142 632 q 436 725 318 725 q 589 702 514 725 q 708 640 664 679 l 644 467 q 557 515 607 497 q 461 533 507 533 q 343 490 386 533 q 300 357 300 447 q 342 222 300 265 q 463 178 385 178 q 557 195 507 178 q 644 244 607 213 l 708 74 q 585 11 661 33 q 425 -11 510 -11 m 501 1085 l 690 1085 l 501 796 l 356 796 l 167 1085 l 356 1085 l 429 936 l 501 1085 z "},"ç":{"ha":715,"x_min":43,"x_max":708,"o":"m 425 -11 q 219 33 306 -11 q 88 158 133 76 q 43 351 43 240 q 92 548 43 464 q 230 678 142 632 q 436 725 318 725 q 589 702 514 725 q 708 640 664 679 l 644 467 q 557 515 607 497 q 461 533 507 533 q 343 490 386 533 q 300 357 300 447 q 342 222 300 265 q 463 178 385 178 q 557 195 507 178 q 644 244 607 213 l 708 74 q 585 11 661 33 q 425 -11 510 -11 m 386 -278 q 319 -272 357 -278 q 251 -254 282 -265 l 267 -164 q 329 -178 303 -174 q 378 -183 356 -183 q 419 -177 401 -183 q 438 -153 438 -171 q 393 -129 438 -129 q 369 -131 382 -129 q 349 -136 357 -133 l 321 -106 l 339 28 l 467 28 l 450 -79 l 390 -67 q 427 -58 404 -61 q 465 -56 450 -56 q 555 -83 524 -56 q 586 -153 586 -110 q 536 -242 586 -207 q 386 -278 486 -278 z "},"ḉ":{"ha":715,"x_min":43,"x_max":728,"o":"m 425 -11 q 219 33 306 -11 q 88 158 133 76 q 43 351 43 240 q 92 548 43 464 q 230 678 142 632 q 436 725 318 725 q 589 702 514 725 q 708 640 664 679 l 644 467 q 557 515 607 497 q 461 533 507 533 q 343 490 386 533 q 300 357 300 447 q 342 222 300 265 q 463 178 385 178 q 557 195 507 178 q 644 244 607 213 l 708 74 q 585 11 661 33 q 425 -11 510 -11 m 386 -278 q 319 -272 357 -278 q 251 -254 282 -265 l 267 -164 q 329 -178 303 -174 q 378 -183 356 -183 q 419 -177 401 -183 q 438 -153 438 -171 q 393 -129 438 -129 q 369 -131 382 -129 q 349 -136 357 -133 l 321 -106 l 339 28 l 467 28 l 450 -79 l 390 -67 q 427 -58 404 -61 q 465 -56 450 -56 q 555 -83 524 -56 q 586 -153 586 -110 q 536 -242 586 -207 q 386 -278 486 -278 m 504 796 l 353 796 l 489 1085 l 728 1085 l 504 796 z "},"ĉ":{"ha":715,"x_min":43,"x_max":708,"o":"m 425 -11 q 219 33 306 -11 q 88 158 133 76 q 43 351 43 240 q 92 548 43 464 q 230 678 142 632 q 436 725 318 725 q 589 702 514 725 q 708 640 664 679 l 644 467 q 557 515 607 497 q 461 533 507 533 q 343 490 386 533 q 300 357 300 447 q 342 222 300 265 q 463 178 385 178 q 557 195 507 178 q 644 244 607 213 l 708 74 q 585 11 661 33 q 425 -11 510 -11 m 356 796 l 167 796 l 356 1085 l 501 1085 l 690 796 l 501 796 l 429 943 l 356 796 z "},"ċ":{"ha":715,"x_min":43,"x_max":708,"o":"m 425 -11 q 219 33 306 -11 q 88 158 133 76 q 43 351 43 240 q 92 548 43 464 q 230 678 142 632 q 436 725 318 725 q 589 702 514 725 q 708 640 664 679 l 644 467 q 557 515 607 497 q 461 533 507 533 q 343 490 386 533 q 300 357 300 447 q 342 222 300 265 q 463 178 385 178 q 557 195 507 178 q 644 244 607 213 l 708 74 q 585 11 661 33 q 425 -11 510 -11 m 297 1051 l 560 1051 l 560 825 l 297 825 l 297 1051 z "},"d":{"ha":893,"x_min":43,"x_max":818,"o":"m 818 0 l 571 0 l 571 165 l 588 129 q 499 26 564 64 q 354 -11 435 -11 q 194 35 264 -11 q 83 165 124 82 q 43 360 43 249 q 83 552 43 469 q 193 680 122 635 q 354 725 264 725 q 499 685 435 725 q 588 583 564 646 l 567 553 l 567 1022 l 818 1022 l 818 0 m 432 176 q 535 222 499 176 q 571 357 571 268 q 534 488 571 442 q 432 535 497 535 q 328 490 364 535 q 292 360 292 444 q 329 224 292 271 q 432 176 367 176 z "},"ð":{"ha":871,"x_min":43,"x_max":828,"o":"m 419 -11 q 224 31 308 -11 q 91 149 139 74 q 43 322 43 224 q 88 494 43 419 q 213 610 133 568 q 394 653 292 653 q 563 608 499 653 q 656 471 628 563 l 593 478 q 539 675 593 590 q 397 810 485 760 q 207 869 310 860 l 261 1040 q 506 967 400 1026 q 684 822 613 908 q 792 633 756 735 q 828 431 828 532 q 721 105 828 221 q 419 -11 614 -11 m 431 176 q 532 214 497 176 q 567 322 567 251 q 533 433 567 396 q 431 471 499 471 q 326 433 361 471 q 292 322 292 396 q 326 213 292 249 q 431 176 361 176 m 238 668 l 204 792 l 789 938 l 818 814 l 238 668 z "},"ď":{"ha":893,"x_min":43,"x_max":972,"o":"m 935 743 l 853 743 l 853 1022 l 972 1022 l 935 743 m 818 0 l 571 0 l 571 165 l 588 129 q 499 26 564 64 q 354 -11 435 -11 q 194 35 264 -11 q 83 165 124 82 q 43 360 43 249 q 83 552 43 469 q 193 680 122 635 q 354 725 264 725 q 499 685 435 725 q 588 583 564 646 l 567 553 l 567 1022 l 818 1022 l 818 0 m 432 176 q 535 222 499 176 q 571 357 571 268 q 534 488 571 442 q 432 535 497 535 q 328 490 364 535 q 292 360 292 444 q 329 224 292 271 q 432 176 367 176 z "},"đ":{"ha":893,"x_min":43,"x_max":939,"o":"m 306 764 l 306 936 l 939 936 l 939 764 l 306 764 m 818 0 l 571 0 l 571 165 l 588 129 q 499 26 564 64 q 354 -11 435 -11 q 194 35 264 -11 q 83 165 124 82 q 43 360 43 249 q 83 552 43 469 q 193 680 122 635 q 354 725 264 725 q 499 685 435 725 q 588 583 564 646 l 567 553 l 567 1022 l 818 1022 l 818 0 m 432 176 q 535 222 499 176 q 571 357 571 268 q 534 488 571 442 q 432 535 497 535 q 328 490 364 535 q 292 360 292 444 q 329 224 292 271 q 432 176 367 176 z "},"ḍ":{"ha":893,"x_min":43,"x_max":818,"o":"m 818 0 l 571 0 l 571 165 l 588 129 q 499 26 564 64 q 354 -11 435 -11 q 194 35 264 -11 q 83 165 124 82 q 43 360 43 249 q 83 552 43 469 q 193 680 122 635 q 354 725 264 725 q 499 685 435 725 q 588 583 564 646 l 567 553 l 567 1022 l 818 1022 l 818 0 m 432 176 q 535 222 499 176 q 571 357 571 268 q 534 488 571 442 q 432 535 497 535 q 328 490 364 535 q 292 360 292 444 q 329 224 292 271 q 432 176 367 176 m 336 -79 l 557 -79 l 557 -289 l 336 -289 l 336 -79 z "},"ḏ":{"ha":893,"x_min":43,"x_max":818,"o":"m 818 0 l 571 0 l 571 165 l 588 129 q 499 26 564 64 q 354 -11 435 -11 q 194 35 264 -11 q 83 165 124 82 q 43 360 43 249 q 83 552 43 469 q 193 680 122 635 q 354 725 264 725 q 499 685 435 725 q 588 583 564 646 l 567 553 l 567 1022 l 818 1022 l 818 0 m 432 176 q 535 222 499 176 q 571 357 571 268 q 534 488 571 442 q 432 535 497 535 q 328 490 364 535 q 292 360 292 444 q 329 224 292 271 q 432 176 367 176 m 224 -254 l 224 -114 l 669 -114 l 669 -254 l 224 -254 z "},"ǆ":{"ha":1636,"x_min":43,"x_max":1593,"o":"m 818 0 l 571 0 l 571 165 l 588 129 q 499 26 564 64 q 354 -11 435 -11 q 194 35 264 -11 q 83 165 124 82 q 43 360 43 249 q 83 552 43 469 q 193 680 122 635 q 354 725 264 725 q 499 685 435 725 q 588 583 564 646 l 567 553 l 567 1022 l 818 1022 l 818 0 m 432 176 q 535 222 499 176 q 571 357 571 268 q 534 488 571 442 q 432 535 497 535 q 328 490 364 535 q 292 360 292 444 q 329 224 292 271 q 432 176 367 176 z "},"e":{"ha":768,"x_min":43,"x_max":726,"o":"m 714 72 q 586 10 661 32 q 436 -11 511 -11 q 226 33 314 -11 q 90 160 138 78 q 43 356 43 243 q 88 547 43 464 q 213 678 133 631 q 396 725 292 725 q 572 681 497 725 q 686 554 646 636 q 726 361 726 472 l 726 328 l 265 328 l 268 444 l 575 444 l 514 404 q 485 516 514 479 q 403 553 457 553 q 312 509 343 553 q 281 376 281 465 q 321 220 281 267 q 449 174 361 174 q 555 191 501 174 q 650 239 608 208 l 714 72 z "},"é":{"ha":768,"x_min":43,"x_max":726,"o":"m 714 72 q 586 10 661 32 q 436 -11 511 -11 q 226 33 314 -11 q 90 160 138 78 q 43 356 43 243 q 88 547 43 464 q 213 678 133 631 q 396 725 292 725 q 572 681 497 725 q 686 554 646 636 q 726 361 726 472 l 726 328 l 265 328 l 268 444 l 575 444 l 514 404 q 485 516 514 479 q 403 553 457 553 q 312 509 343 553 q 281 376 281 465 q 321 220 281 267 q 449 174 361 174 q 555 191 501 174 q 650 239 608 208 l 714 72 m 471 796 l 319 796 l 456 1085 l 694 1085 l 471 796 z "},"ĕ":{"ha":768,"x_min":43,"x_max":726,"o":"m 714 72 q 586 10 661 32 q 436 -11 511 -11 q 226 33 314 -11 q 90 160 138 78 q 43 356 43 243 q 88 547 43 464 q 213 678 133 631 q 396 725 292 725 q 572 681 497 725 q 686 554 646 636 q 726 361 726 472 l 726 328 l 265 328 l 268 444 l 575 444 l 514 404 q 485 516 514 479 q 403 553 457 553 q 312 509 343 553 q 281 376 281 465 q 321 220 281 267 q 449 174 361 174 q 555 191 501 174 q 650 239 608 208 l 714 72 m 396 824 q 278 847 335 824 q 180 917 221 869 q 124 1036 139 964 l 231 1083 q 306 1001 264 1025 q 396 976 349 976 q 484 1001 442 976 q 560 1083 526 1025 l 667 1036 q 610 917 651 964 q 513 847 569 869 q 396 824 457 824 z "},"ě":{"ha":768,"x_min":43,"x_max":726,"o":"m 714 72 q 586 10 661 32 q 436 -11 511 -11 q 226 33 314 -11 q 90 160 138 78 q 43 356 43 243 q 88 547 43 464 q 213 678 133 631 q 396 725 292 725 q 572 681 497 725 q 686 554 646 636 q 726 361 726 472 l 726 328 l 265 328 l 268 444 l 575 444 l 514 404 q 485 516 514 479 q 403 553 457 553 q 312 509 343 553 q 281 376 281 465 q 321 220 281 267 q 449 174 361 174 q 555 191 501 174 q 650 239 608 208 l 714 72 m 468 1085 l 657 1085 l 468 796 l 322 796 l 133 1085 l 322 1085 l 396 936 l 468 1085 z "},"ḝ":{"ha":768,"x_min":43,"x_max":726,"o":"m 714 72 q 586 10 661 32 q 436 -11 511 -11 q 226 33 314 -11 q 90 160 138 78 q 43 356 43 243 q 88 547 43 464 q 213 678 133 631 q 396 725 292 725 q 572 681 497 725 q 686 554 646 636 q 726 361 726 472 l 726 328 l 265 328 l 268 444 l 575 444 l 514 404 q 485 516 514 479 q 403 553 457 553 q 312 509 343 553 q 281 376 281 465 q 321 220 281 267 q 449 174 361 174 q 555 191 501 174 q 650 239 608 208 l 714 72 m 401 -278 q 335 -272 372 -278 q 267 -254 297 -265 l 282 -164 q 344 -178 318 -174 q 393 -183 371 -183 q 435 -177 417 -183 q 453 -153 453 -171 q 408 -129 453 -129 q 385 -131 397 -129 q 364 -136 372 -133 l 336 -106 l 354 28 l 482 28 l 465 -79 l 406 -67 q 442 -58 419 -61 q 481 -56 465 -56 q 570 -83 539 -56 q 601 -153 601 -110 q 551 -242 601 -207 q 401 -278 501 -278 m 396 824 q 278 847 335 824 q 180 917 221 869 q 124 1036 139 964 l 231 1083 q 306 1001 264 1025 q 396 976 349 976 q 484 1001 442 976 q 560 1083 526 1025 l 667 1036 q 610 917 651 964 q 513 847 569 869 q 396 824 457 824 z "},"ê":{"ha":768,"x_min":43,"x_max":726,"o":"m 714 72 q 586 10 661 32 q 436 -11 511 -11 q 226 33 314 -11 q 90 160 138 78 q 43 356 43 243 q 88 547 43 464 q 213 678 133 631 q 396 725 292 725 q 572 681 497 725 q 686 554 646 636 q 726 361 726 472 l 726 328 l 265 328 l 268 444 l 575 444 l 514 404 q 485 516 514 479 q 403 553 457 553 q 312 509 343 553 q 281 376 281 465 q 321 220 281 267 q 449 174 361 174 q 555 191 501 174 q 650 239 608 208 l 714 72 m 322 796 l 133 796 l 322 1085 l 468 1085 l 657 796 l 468 796 l 396 943 l 322 796 z "},"ế":{"ha":768,"x_min":43,"x_max":819,"o":"m 714 72 q 586 10 661 32 q 436 -11 511 -11 q 226 33 314 -11 q 90 160 138 78 q 43 356 43 243 q 88 547 43 464 q 213 678 133 631 q 396 725 292 725 q 572 681 497 725 q 686 554 646 636 q 726 361 726 472 l 726 328 l 265 328 l 268 444 l 575 444 l 514 404 q 485 516 514 479 q 403 553 457 553 q 312 509 343 553 q 281 376 281 465 q 321 220 281 267 q 449 174 361 174 q 555 191 501 174 q 650 239 608 208 l 714 72 m 311 796 l 133 796 l 326 985 l 464 985 l 657 796 l 479 796 l 396 878 l 311 796 m 649 949 l 532 949 l 622 1144 l 819 1144 l 649 949 z "},"ệ":{"ha":768,"x_min":43,"x_max":726,"o":"m 714 72 q 586 10 661 32 q 436 -11 511 -11 q 226 33 314 -11 q 90 160 138 78 q 43 356 43 243 q 88 547 43 464 q 213 678 133 631 q 396 725 292 725 q 572 681 497 725 q 686 554 646 636 q 726 361 726 472 l 726 328 l 265 328 l 268 444 l 575 444 l 514 404 q 485 516 514 479 q 403 553 457 553 q 312 509 343 553 q 281 376 281 465 q 321 220 281 267 q 449 174 361 174 q 555 191 501 174 q 650 239 608 208 l 714 72 m 319 -79 l 540 -79 l 540 -289 l 319 -289 l 319 -79 m 322 796 l 133 796 l 322 1085 l 468 1085 l 657 796 l 468 796 l 396 943 l 322 796 z "},"ề":{"ha":768,"x_min":43,"x_max":726,"o":"m 714 72 q 586 10 661 32 q 436 -11 511 -11 q 226 33 314 -11 q 90 160 138 78 q 43 356 43 243 q 88 547 43 464 q 213 678 133 631 q 396 725 292 725 q 572 681 497 725 q 686 554 646 636 q 726 361 726 472 l 726 328 l 265 328 l 268 444 l 575 444 l 514 404 q 485 516 514 479 q 403 553 457 553 q 312 509 343 553 q 281 376 281 465 q 321 220 281 267 q 449 174 361 174 q 555 191 501 174 q 650 239 608 208 l 714 72 m 311 796 l 133 796 l 326 985 l 464 985 l 657 796 l 479 796 l 396 878 l 311 796 m 592 949 l 415 1144 l 614 1144 l 708 949 l 592 949 z "},"ể":{"ha":768,"x_min":43,"x_max":767,"o":"m 714 72 q 586 10 661 32 q 436 -11 511 -11 q 226 33 314 -11 q 90 160 138 78 q 43 356 43 243 q 88 547 43 464 q 213 678 133 631 q 396 725 292 725 q 572 681 497 725 q 686 554 646 636 q 726 361 726 472 l 726 328 l 265 328 l 268 444 l 575 444 l 514 404 q 485 516 514 479 q 403 553 457 553 q 312 509 343 553 q 281 376 281 465 q 321 220 281 267 q 449 174 361 174 q 555 191 501 174 q 650 239 608 208 l 714 72 m 311 796 l 133 796 l 326 985 l 464 985 l 657 796 l 479 796 l 396 878 l 311 796 m 647 961 l 647 950 l 531 950 l 531 979 q 544 1014 531 1001 q 576 1033 558 1026 q 608 1044 594 1040 q 622 1051 622 1047 q 614 1062 622 1056 q 581 1068 606 1068 q 547 1064 568 1068 q 503 1053 526 1060 l 472 1128 q 533 1147 499 1139 q 614 1154 567 1154 q 726 1131 685 1154 q 767 1069 767 1107 q 749 1028 767 1043 q 707 1006 731 1014 q 665 988 683 997 q 647 961 647 978 z "},"ễ":{"ha":768,"x_min":43,"x_max":726,"o":"m 714 72 q 586 10 661 32 q 436 -11 511 -11 q 226 33 314 -11 q 90 160 138 78 q 43 356 43 243 q 88 547 43 464 q 213 678 133 631 q 396 725 292 725 q 572 681 497 725 q 686 554 646 636 q 726 361 726 472 l 726 328 l 265 328 l 268 444 l 575 444 l 514 404 q 485 516 514 479 q 403 553 457 553 q 312 509 343 553 q 281 376 281 465 q 321 220 281 267 q 449 174 361 174 q 555 191 501 174 q 650 239 608 208 l 714 72 m 311 796 l 133 796 l 326 985 l 464 985 l 657 796 l 479 796 l 396 878 l 311 796 m 144 1011 q 167 1088 144 1054 q 226 1142 189 1122 q 307 1161 264 1161 q 373 1151 342 1161 q 433 1132 404 1142 q 488 1122 461 1122 q 526 1128 510 1122 q 546 1156 542 1133 l 646 1156 q 624 1080 646 1114 q 564 1026 601 1046 q 483 1006 526 1006 q 417 1015 449 1006 q 358 1035 386 1025 q 303 1044 329 1044 q 265 1039 281 1044 q 244 1011 249 1033 l 144 1011 z "},"ȅ":{"ha":768,"x_min":43,"x_max":726,"o":"m 714 72 q 586 10 661 32 q 436 -11 511 -11 q 226 33 314 -11 q 90 160 138 78 q 43 356 43 243 q 88 547 43 464 q 213 678 133 631 q 396 725 292 725 q 572 681 497 725 q 686 554 646 636 q 726 361 726 472 l 726 328 l 265 328 l 268 444 l 575 444 l 514 404 q 485 516 514 479 q 403 553 457 553 q 312 509 343 553 q 281 376 281 465 q 321 220 281 267 q 449 174 361 174 q 555 191 501 174 q 650 239 608 208 l 714 72 m 446 796 l 336 1085 l 508 1085 l 550 796 l 446 796 m 240 796 l 132 1085 l 304 1085 l 344 796 l 240 796 z "},"ë":{"ha":768,"x_min":43,"x_max":726,"o":"m 714 72 q 586 10 661 32 q 436 -11 511 -11 q 226 33 314 -11 q 90 160 138 78 q 43 356 43 243 q 88 547 43 464 q 213 678 133 631 q 396 725 292 725 q 572 681 497 725 q 686 554 646 636 q 726 361 726 472 l 726 328 l 265 328 l 268 444 l 575 444 l 514 404 q 485 516 514 479 q 403 553 457 553 q 312 509 343 553 q 281 376 281 465 q 321 220 281 267 q 449 174 361 174 q 555 191 501 174 q 650 239 608 208 l 714 72 m 424 1043 l 646 1043 l 646 832 l 424 832 l 424 1043 m 144 1043 l 367 1043 l 367 832 l 144 832 l 144 1043 z "},"ė":{"ha":768,"x_min":43,"x_max":726,"o":"m 714 72 q 586 10 661 32 q 436 -11 511 -11 q 226 33 314 -11 q 90 160 138 78 q 43 356 43 243 q 88 547 43 464 q 213 678 133 631 q 396 725 292 725 q 572 681 497 725 q 686 554 646 636 q 726 361 726 472 l 726 328 l 265 328 l 268 444 l 575 444 l 514 404 q 485 516 514 479 q 403 553 457 553 q 312 509 343 553 q 281 376 281 465 q 321 220 281 267 q 449 174 361 174 q 555 191 501 174 q 650 239 608 208 l 714 72 m 264 1051 l 526 1051 l 526 825 l 264 825 l 264 1051 z "},"ẹ":{"ha":768,"x_min":43,"x_max":726,"o":"m 714 72 q 586 10 661 32 q 436 -11 511 -11 q 226 33 314 -11 q 90 160 138 78 q 43 356 43 243 q 88 547 43 464 q 213 678 133 631 q 396 725 292 725 q 572 681 497 725 q 686 554 646 636 q 726 361 726 472 l 726 328 l 265 328 l 268 444 l 575 444 l 514 404 q 485 516 514 479 q 403 553 457 553 q 312 509 343 553 q 281 376 281 465 q 321 220 281 267 q 449 174 361 174 q 555 191 501 174 q 650 239 608 208 l 714 72 m 319 -79 l 540 -79 l 540 -289 l 319 -289 l 319 -79 z "},"è":{"ha":768,"x_min":43,"x_max":726,"o":"m 714 72 q 586 10 661 32 q 436 -11 511 -11 q 226 33 314 -11 q 90 160 138 78 q 43 356 43 243 q 88 547 43 464 q 213 678 133 631 q 396 725 292 725 q 572 681 497 725 q 686 554 646 636 q 726 361 726 472 l 726 328 l 265 328 l 268 444 l 575 444 l 514 404 q 485 516 514 479 q 403 553 457 553 q 312 509 343 553 q 281 376 281 465 q 321 220 281 267 q 449 174 361 174 q 555 191 501 174 q 650 239 608 208 l 714 72 m 319 796 l 96 1085 l 335 1085 l 471 796 l 319 796 z "},"ẻ":{"ha":768,"x_min":43,"x_max":726,"o":"m 714 72 q 586 10 661 32 q 436 -11 511 -11 q 226 33 314 -11 q 90 160 138 78 q 43 356 43 243 q 88 547 43 464 q 213 678 133 631 q 396 725 292 725 q 572 681 497 725 q 686 554 646 636 q 726 361 726 472 l 726 328 l 265 328 l 268 444 l 575 444 l 514 404 q 485 516 514 479 q 403 553 457 553 q 312 509 343 553 q 281 376 281 465 q 321 220 281 267 q 449 174 361 174 q 555 191 501 174 q 650 239 608 208 l 714 72 m 457 828 l 457 796 l 338 796 l 338 829 q 349 876 338 858 q 377 907 361 894 q 405 930 393 919 q 417 954 417 940 q 406 977 417 969 q 374 985 396 985 q 344 983 360 985 q 310 974 329 981 l 278 1060 q 342 1082 313 1076 q 401 1088 372 1088 q 530 1054 488 1088 q 572 979 572 1021 q 555 925 572 946 q 515 889 538 904 q 474 860 492 874 q 457 828 457 846 z "},"ȇ":{"ha":768,"x_min":43,"x_max":726,"o":"m 714 72 q 586 10 661 32 q 436 -11 511 -11 q 226 33 314 -11 q 90 160 138 78 q 43 356 43 243 q 88 547 43 464 q 213 678 133 631 q 396 725 292 725 q 572 681 497 725 q 686 554 646 636 q 726 361 726 472 l 726 328 l 265 328 l 268 444 l 575 444 l 514 404 q 485 516 514 479 q 403 553 457 553 q 312 509 343 553 q 281 376 281 465 q 321 220 281 267 q 449 174 361 174 q 555 191 501 174 q 650 239 608 208 l 714 72 m 396 1075 q 513 1051 457 1075 q 610 981 569 1028 q 667 861 651 933 l 560 817 q 484 898 526 872 q 396 924 442 924 q 306 898 349 924 q 231 817 264 872 l 124 863 q 181 981 139 933 q 278 1051 222 1028 q 396 1075 335 1075 z "},"ē":{"ha":768,"x_min":43,"x_max":726,"o":"m 714 72 q 586 10 661 32 q 436 -11 511 -11 q 226 33 314 -11 q 90 160 138 78 q 43 356 43 243 q 88 547 43 464 q 213 678 133 631 q 396 725 292 725 q 572 681 497 725 q 686 554 646 636 q 726 361 726 472 l 726 328 l 265 328 l 268 444 l 575 444 l 514 404 q 485 516 514 479 q 403 553 457 553 q 312 509 343 553 q 281 376 281 465 q 321 220 281 267 q 449 174 361 174 q 555 191 501 174 q 650 239 608 208 l 714 72 m 172 863 l 172 1013 l 618 1013 l 618 863 l 172 863 z "},"ḗ":{"ha":768,"x_min":43,"x_max":726,"o":"m 714 72 q 586 10 661 32 q 436 -11 511 -11 q 226 33 314 -11 q 90 160 138 78 q 43 356 43 243 q 88 547 43 464 q 213 678 133 631 q 396 725 292 725 q 572 681 497 725 q 686 554 646 636 q 726 361 726 472 l 726 328 l 265 328 l 268 444 l 575 444 l 514 404 q 485 516 514 479 q 403 553 457 553 q 312 509 343 553 q 281 376 281 465 q 321 220 281 267 q 449 174 361 174 q 555 191 501 174 q 650 239 608 208 l 714 72 m 172 863 l 172 1013 l 618 1013 l 618 863 l 172 863 m 471 1061 l 319 1061 l 456 1350 l 694 1350 l 471 1061 z "},"ḕ":{"ha":768,"x_min":43,"x_max":726,"o":"m 714 72 q 586 10 661 32 q 436 -11 511 -11 q 226 33 314 -11 q 90 160 138 78 q 43 356 43 243 q 88 547 43 464 q 213 678 133 631 q 396 725 292 725 q 572 681 497 725 q 686 554 646 636 q 726 361 726 472 l 726 328 l 265 328 l 268 444 l 575 444 l 514 404 q 485 516 514 479 q 403 553 457 553 q 312 509 343 553 q 281 376 281 465 q 321 220 281 267 q 449 174 361 174 q 555 191 501 174 q 650 239 608 208 l 714 72 m 172 863 l 172 1013 l 618 1013 l 618 863 l 172 863 m 319 1061 l 96 1350 l 335 1350 l 471 1061 l 319 1061 z "},"ę":{"ha":768,"x_min":43,"x_max":726,"o":"m 561 -286 q 426 -240 478 -286 q 374 -125 374 -194 q 396 -43 374 -81 q 461 18 418 -6 l 506 -7 q 469 -10 486 -8 q 436 -11 451 -11 q 226 33 314 -11 q 90 160 138 78 q 43 356 43 243 q 88 547 43 464 q 213 678 133 631 q 396 725 292 725 q 572 681 497 725 q 686 554 646 636 q 726 361 726 472 l 726 328 l 265 328 l 268 444 l 575 444 l 514 404 q 485 516 514 479 q 403 553 457 553 q 312 506 343 553 q 281 376 281 460 q 321 220 281 267 q 449 174 361 174 q 555 191 501 174 q 650 239 608 208 l 714 72 q 685 53 703 63 q 628 26 668 44 q 553 -26 575 0 q 531 -87 531 -51 q 551 -142 531 -124 q 613 -160 572 -160 q 688 -143 650 -160 l 711 -257 q 639 -278 676 -269 q 561 -286 601 -286 z "},"ẽ":{"ha":768,"x_min":43,"x_max":726,"o":"m 714 72 q 586 10 661 32 q 436 -11 511 -11 q 226 33 314 -11 q 90 160 138 78 q 43 356 43 243 q 88 547 43 464 q 213 678 133 631 q 396 725 292 725 q 572 681 497 725 q 686 554 646 636 q 726 361 726 472 l 726 328 l 265 328 l 268 444 l 575 444 l 514 404 q 485 516 514 479 q 403 553 457 553 q 312 509 343 553 q 281 376 281 465 q 321 220 281 267 q 449 174 361 174 q 555 191 501 174 q 650 239 608 208 l 714 72 m 144 832 q 193 1002 144 950 q 307 1054 242 1054 q 373 1037 342 1054 q 433 1002 404 1019 q 488 985 461 985 q 526 1001 510 985 q 546 1050 542 1017 l 646 1050 q 597 880 646 932 q 483 828 549 828 q 417 845 449 828 q 358 880 386 863 q 303 897 329 897 q 265 881 281 897 q 244 832 249 865 l 144 832 z "},"ə":{"ha":768,"x_min":43,"x_max":725,"o":"m 54 639 q 187 703 108 681 q 349 725 265 725 q 547 679 463 725 q 678 551 632 633 q 725 356 725 468 q 682 164 725 247 q 562 35 639 81 q 385 -11 485 -11 q 135 85 226 -11 q 43 349 43 181 l 43 386 l 501 386 l 501 265 l 192 265 l 258 307 q 288 197 260 235 q 372 158 317 158 q 464 206 433 158 q 490 347 494 253 q 451 495 488 451 q 331 539 414 539 q 228 522 281 539 q 118 474 176 506 l 54 639 z "},"f":{"ha":563,"x_min":4,"x_max":554,"o":"m 4 521 l 4 706 l 522 706 l 522 521 l 4 521 m 554 817 q 488 826 513 826 q 436 815 460 826 q 399 781 413 804 q 385 722 385 758 l 385 0 l 133 0 l 133 725 q 206 947 133 865 q 424 1029 279 1029 q 492 1025 458 1029 q 554 1010 525 1021 l 554 817 z "},"g":{"ha":899,"x_min":43,"x_max":826,"o":"m 417 -311 q 118 -250 247 -311 l 156 -67 q 284 -111 218 -96 q 408 -126 350 -126 q 535 -90 494 -126 q 576 25 576 -53 l 576 178 l 593 157 q 542 93 576 125 q 459 40 507 61 q 357 19 411 19 q 195 63 267 19 q 83 185 124 106 q 43 372 43 265 q 83 557 43 478 q 195 681 124 636 q 357 725 267 725 q 504 685 439 725 q 593 583 569 646 l 576 558 l 576 706 l 826 706 l 826 44 q 722 -221 826 -131 q 417 -311 618 -311 m 435 207 q 539 251 501 207 q 576 372 576 294 q 540 491 576 447 q 435 535 503 535 q 330 492 368 535 q 292 372 292 449 q 331 251 292 296 q 435 207 369 207 z "},"ğ":{"ha":899,"x_min":43,"x_max":826,"o":"m 417 -311 q 118 -250 247 -311 l 156 -67 q 284 -111 218 -96 q 408 -126 350 -126 q 535 -90 494 -126 q 576 25 576 -53 l 576 178 l 593 157 q 542 93 576 125 q 459 40 507 61 q 357 19 411 19 q 195 63 267 19 q 83 185 124 106 q 43 372 43 265 q 83 557 43 478 q 195 681 124 636 q 357 725 267 725 q 504 685 439 725 q 593 583 569 646 l 576 558 l 576 706 l 826 706 l 826 44 q 722 -221 826 -131 q 417 -311 618 -311 m 435 207 q 539 251 501 207 q 576 372 576 294 q 540 491 576 447 q 435 535 503 535 q 330 492 368 535 q 292 372 292 449 q 331 251 292 296 q 435 207 369 207 m 450 824 q 332 847 389 824 q 234 917 275 869 q 178 1036 193 964 l 285 1083 q 360 1001 318 1025 q 450 976 403 976 q 538 1001 496 976 q 614 1083 581 1025 l 721 1036 q 665 917 706 964 q 567 847 624 869 q 450 824 511 824 z "},"ǧ":{"ha":899,"x_min":43,"x_max":826,"o":"m 417 -311 q 118 -250 247 -311 l 156 -67 q 284 -111 218 -96 q 408 -126 350 -126 q 535 -90 494 -126 q 576 25 576 -53 l 576 178 l 593 157 q 542 93 576 125 q 459 40 507 61 q 357 19 411 19 q 195 63 267 19 q 83 185 124 106 q 43 372 43 265 q 83 557 43 478 q 195 681 124 636 q 357 725 267 725 q 504 685 439 725 q 593 583 569 646 l 576 558 l 576 706 l 826 706 l 826 44 q 722 -221 826 -131 q 417 -311 618 -311 m 435 207 q 539 251 501 207 q 576 372 576 294 q 540 491 576 447 q 435 535 503 535 q 330 492 368 535 q 292 372 292 449 q 331 251 292 296 q 435 207 369 207 m 522 1085 l 711 1085 l 522 796 l 376 796 l 188 1085 l 376 1085 l 450 936 l 522 1085 z "},"ĝ":{"ha":899,"x_min":43,"x_max":826,"o":"m 417 -311 q 118 -250 247 -311 l 156 -67 q 284 -111 218 -96 q 408 -126 350 -126 q 535 -90 494 -126 q 576 25 576 -53 l 576 178 l 593 157 q 542 93 576 125 q 459 40 507 61 q 357 19 411 19 q 195 63 267 19 q 83 185 124 106 q 43 372 43 265 q 83 557 43 478 q 195 681 124 636 q 357 725 267 725 q 504 685 439 725 q 593 583 569 646 l 576 558 l 576 706 l 826 706 l 826 44 q 722 -221 826 -131 q 417 -311 618 -311 m 435 207 q 539 251 501 207 q 576 372 576 294 q 540 491 576 447 q 435 535 503 535 q 330 492 368 535 q 292 372 292 449 q 331 251 292 296 q 435 207 369 207 m 376 796 l 188 796 l 376 1085 l 522 1085 l 711 796 l 522 796 l 450 943 l 376 796 z "},"ģ":{"ha":899,"x_min":43,"x_max":826,"o":"m 417 -311 q 118 -250 247 -311 l 156 -67 q 284 -111 218 -96 q 408 -126 350 -126 q 535 -90 494 -126 q 576 25 576 -53 l 576 178 l 593 157 q 542 93 576 125 q 459 40 507 61 q 357 19 411 19 q 195 63 267 19 q 83 185 124 106 q 43 372 43 265 q 83 557 43 478 q 195 681 124 636 q 357 725 267 725 q 504 685 439 725 q 593 583 569 646 l 576 558 l 576 706 l 826 706 l 826 44 q 722 -221 826 -131 q 417 -311 618 -311 m 435 207 q 539 251 501 207 q 576 372 576 294 q 540 491 576 447 q 435 535 503 535 q 330 492 368 535 q 292 372 292 449 q 331 251 292 296 q 435 207 369 207 m 329 836 l 329 929 q 348 1048 329 996 q 418 1143 367 1100 l 504 1086 q 464 1032 475 1060 q 453 974 453 1004 l 401 1014 l 568 1014 l 568 836 l 329 836 z "},"ġ":{"ha":899,"x_min":43,"x_max":826,"o":"m 417 -311 q 118 -250 247 -311 l 156 -67 q 284 -111 218 -96 q 408 -126 350 -126 q 535 -90 494 -126 q 576 25 576 -53 l 576 178 l 593 157 q 542 93 576 125 q 459 40 507 61 q 357 19 411 19 q 195 63 267 19 q 83 185 124 106 q 43 372 43 265 q 83 557 43 478 q 195 681 124 636 q 357 725 267 725 q 504 685 439 725 q 593 583 569 646 l 576 558 l 576 706 l 826 706 l 826 44 q 722 -221 826 -131 q 417 -311 618 -311 m 435 207 q 539 251 501 207 q 576 372 576 294 q 540 491 576 447 q 435 535 503 535 q 330 492 368 535 q 292 372 292 449 q 331 251 292 296 q 435 207 369 207 m 318 1051 l 581 1051 l 581 825 l 318 825 l 318 1051 z "},"ḡ":{"ha":899,"x_min":43,"x_max":826,"o":"m 417 -311 q 118 -250 247 -311 l 156 -67 q 284 -111 218 -96 q 408 -126 350 -126 q 535 -90 494 -126 q 576 25 576 -53 l 576 178 l 593 157 q 542 93 576 125 q 459 40 507 61 q 357 19 411 19 q 195 63 267 19 q 83 185 124 106 q 43 372 43 265 q 83 557 43 478 q 195 681 124 636 q 357 725 267 725 q 504 685 439 725 q 593 583 569 646 l 576 558 l 576 706 l 826 706 l 826 44 q 722 -221 826 -131 q 417 -311 618 -311 m 435 207 q 539 251 501 207 q 576 372 576 294 q 540 491 576 447 q 435 535 503 535 q 330 492 368 535 q 292 372 292 449 q 331 251 292 296 q 435 207 369 207 m 226 863 l 226 1013 l 672 1013 l 672 863 l 226 863 z "},"h":{"ha":867,"x_min":75,"x_max":796,"o":"m 75 0 l 75 1022 l 326 1022 l 326 563 l 300 579 q 402 687 339 649 q 547 725 465 725 q 796 421 796 725 l 796 0 l 544 0 l 544 410 q 522 503 544 475 q 453 532 500 532 q 361 494 396 532 q 326 393 326 456 l 326 0 l 75 0 z "},"ħ":{"ha":867,"x_min":-43,"x_max":796,"o":"m 75 0 l 75 1022 l 326 1022 l 326 563 l 300 579 q 402 687 339 649 q 547 725 465 725 q 796 421 796 725 l 796 0 l 544 0 l 544 410 q 522 503 544 475 q 453 532 500 532 q 361 494 396 532 q 326 393 326 456 l 326 0 l 75 0 m -43 764 l -43 936 l 589 936 l 589 764 l -43 764 z "},"ḫ":{"ha":867,"x_min":75,"x_max":796,"o":"m 75 0 l 75 1022 l 326 1022 l 326 563 l 300 579 q 402 687 339 649 q 547 725 465 725 q 796 421 796 725 l 796 0 l 544 0 l 544 410 q 522 503 544 475 q 453 532 500 532 q 361 494 396 532 q 326 393 326 456 l 326 0 l 75 0 m 436 -326 q 318 -303 375 -326 q 220 -233 261 -281 q 164 -114 179 -185 l 271 -69 q 347 -149 304 -125 q 436 -174 389 -174 q 524 -149 482 -174 q 600 -69 567 -125 l 707 -114 q 651 -233 692 -186 q 553 -303 610 -281 q 436 -326 497 -326 z "},"ĥ":{"ha":867,"x_min":-57,"x_max":796,"o":"m 75 0 l 75 1022 l 326 1022 l 326 563 l 300 579 q 402 687 339 649 q 547 725 465 725 q 796 421 796 725 l 796 0 l 544 0 l 544 410 q 522 503 544 475 q 453 532 500 532 q 361 494 396 532 q 326 393 326 456 l 326 0 l 75 0 m 125 1107 l -57 1107 l 136 1326 l 274 1326 l 467 1107 l 285 1107 l 206 1215 l 125 1107 z "},"ḥ":{"ha":867,"x_min":75,"x_max":796,"o":"m 75 0 l 75 1022 l 326 1022 l 326 563 l 300 579 q 402 687 339 649 q 547 725 465 725 q 796 421 796 725 l 796 0 l 544 0 l 544 410 q 522 503 544 475 q 453 532 500 532 q 361 494 396 532 q 326 393 326 456 l 326 0 l 75 0 m 325 -79 l 546 -79 l 546 -289 l 325 -289 l 325 -79 z "},"i":{"ha":401,"x_min":68,"x_max":331,"o":"m 75 0 l 75 706 l 326 706 l 326 0 l 75 0 m 68 1051 l 331 1051 l 331 825 l 68 825 l 68 1051 z "},"ı":{"ha":401,"x_min":75,"x_max":326,"o":"m 75 0 l 75 706 l 326 706 l 326 0 l 75 0 z "},"í":{"ha":401,"x_min":75,"x_max":499,"o":"m 75 0 l 75 706 l 326 706 l 326 0 l 75 0 m 275 796 l 124 796 l 260 1085 l 499 1085 l 275 796 z "},"ĭ":{"ha":401,"x_min":-72,"x_max":471,"o":"m 75 0 l 75 706 l 326 706 l 326 0 l 75 0 m 200 824 q 82 847 139 824 q -16 917 25 869 q -72 1036 -57 964 l 35 1083 q 110 1001 68 1025 q 200 976 153 976 q 288 1001 246 976 q 364 1083 331 1025 l 471 1036 q 415 917 456 964 q 317 847 374 869 q 200 824 261 824 z "},"î":{"ha":401,"x_min":-62,"x_max":461,"o":"m 75 0 l 75 706 l 326 706 l 326 0 l 75 0 m 126 796 l -62 796 l 126 1085 l 272 1085 l 461 796 l 272 796 l 200 943 l 126 796 z "},"ȉ":{"ha":401,"x_min":-64,"x_max":354,"o":"m 75 0 l 75 706 l 326 706 l 326 0 l 75 0 m 250 796 l 140 1085 l 313 1085 l 354 796 l 250 796 m 44 796 l -64 1085 l 108 1085 l 149 796 l 44 796 z "},"ï":{"ha":401,"x_min":-51,"x_max":450,"o":"m 75 0 l 75 706 l 326 706 l 326 0 l 75 0 m 228 1043 l 450 1043 l 450 832 l 228 832 l 228 1043 m -51 1043 l 171 1043 l 171 832 l -51 832 l -51 1043 z "},"ḯ":{"ha":401,"x_min":-51,"x_max":499,"o":"m 75 0 l 75 706 l 326 706 l 326 0 l 75 0 m 228 1043 l 450 1043 l 450 832 l 228 832 l 228 1043 m -51 1043 l 171 1043 l 171 832 l -51 832 l -51 1043 m 275 1061 l 124 1061 l 260 1350 l 499 1350 l 275 1061 z "},"ị":{"ha":401,"x_min":68,"x_max":331,"o":"m 75 0 l 75 706 l 326 706 l 326 0 l 75 0 m 68 1051 l 331 1051 l 331 825 l 68 825 l 68 1051 m 89 -79 l 310 -79 l 310 -289 l 89 -289 l 89 -79 z "},"ì":{"ha":401,"x_min":-100,"x_max":326,"o":"m 75 0 l 75 706 l 326 706 l 326 0 l 75 0 m 124 796 l -100 1085 l 139 1085 l 275 796 l 124 796 z "},"ỉ":{"ha":401,"x_min":75,"x_max":376,"o":"m 75 0 l 75 706 l 326 706 l 326 0 l 75 0 m 261 828 l 261 796 l 142 796 l 142 829 q 153 876 142 858 q 181 907 165 894 q 209 930 197 919 q 221 954 221 940 q 210 977 221 969 q 178 985 200 985 q 149 983 164 985 q 114 974 133 981 l 82 1060 q 147 1082 117 1076 q 206 1088 176 1088 q 334 1054 292 1088 q 376 979 376 1021 q 359 925 376 946 q 319 889 342 904 q 278 860 296 874 q 261 828 261 846 z "},"ȋ":{"ha":401,"x_min":-72,"x_max":471,"o":"m 75 0 l 75 706 l 326 706 l 326 0 l 75 0 m 200 1075 q 317 1051 261 1075 q 415 981 374 1028 q 471 861 456 933 l 364 817 q 288 898 331 872 q 200 924 246 924 q 110 898 153 924 q 35 817 68 872 l -72 863 q -15 981 -57 933 q 83 1051 26 1028 q 200 1075 139 1075 z "},"ī":{"ha":401,"x_min":-24,"x_max":422,"o":"m 75 0 l 75 706 l 326 706 l 326 0 l 75 0 m -24 863 l -24 1013 l 422 1013 l 422 863 l -24 863 z "},"į":{"ha":401,"x_min":39,"x_max":376,"o":"m 226 -286 q 94 -242 149 -286 q 39 -121 39 -197 q 69 -24 39 -69 q 164 53 99 22 l 147 0 l 75 0 l 75 706 l 326 706 l 326 0 l 311 0 q 226 -24 258 0 q 194 -87 194 -49 q 215 -141 194 -122 q 276 -160 236 -160 q 313 -156 293 -160 q 351 -143 332 -151 l 376 -257 q 303 -278 342 -271 q 226 -286 265 -286 m 71 1057 l 332 1057 l 332 829 l 71 829 l 71 1057 z "},"ĩ":{"ha":401,"x_min":-51,"x_max":450,"o":"m 75 0 l 75 706 l 326 706 l 326 0 l 75 0 m -51 832 q -3 1002 -51 950 q 111 1054 46 1054 q 177 1037 146 1054 q 237 1002 208 1019 q 292 985 265 985 q 330 1001 314 985 q 350 1050 346 1017 l 450 1050 q 401 880 450 932 q 288 828 353 828 q 222 845 253 828 q 162 880 190 863 q 107 897 133 897 q 69 881 85 897 q 49 832 53 865 l -51 832 z "},"j":{"ha":401,"x_min":-96,"x_max":329,"o":"m -96 -100 q -60 -108 -75 -106 q -28 -110 -44 -110 q 24 -99 0 -110 q 61 -65 47 -87 q 75 -6 75 -42 l 75 706 l 326 706 l 326 -8 q 253 -231 326 -149 q 35 -312 181 -312 q -33 -308 0 -312 q -96 -293 -67 -304 l -96 -100 m 67 1051 l 329 1051 l 329 825 l 67 825 l 67 1051 z "},"ȷ":{"ha":401,"x_min":-96,"x_max":326,"o":"m -96 -100 q -60 -108 -75 -106 q -28 -110 -44 -110 q 24 -99 0 -110 q 61 -65 47 -87 q 75 -6 75 -42 l 75 706 l 326 706 l 326 -8 q 253 -231 326 -149 q 35 -312 181 -312 q -33 -308 0 -312 q -96 -293 -67 -304 l -96 -100 z "},"ĵ":{"ha":401,"x_min":-96,"x_max":460,"o":"m -96 -100 q -60 -108 -75 -106 q -28 -110 -44 -110 q 24 -99 0 -110 q 61 -65 47 -87 q 75 -6 75 -42 l 75 706 l 326 706 l 326 -8 q 253 -231 326 -149 q 35 -312 181 -312 q -33 -308 0 -312 q -96 -293 -67 -304 l -96 -100 m 125 796 l -64 796 l 125 1085 l 271 1085 l 460 796 l 271 796 l 199 943 l 125 796 z "},"k":{"ha":831,"x_min":75,"x_max":871,"o":"m 567 0 l 283 358 l 563 704 l 860 704 l 532 307 l 544 414 l 871 0 l 567 0 m 75 0 l 75 1022 l 326 1022 l 326 0 l 75 0 z "},"ķ":{"ha":831,"x_min":75,"x_max":871,"o":"m 567 0 l 283 358 l 563 704 l 860 704 l 532 307 l 544 414 l 871 0 l 567 0 m 75 0 l 75 1022 l 326 1022 l 326 0 l 75 0 m 532 -89 l 532 -182 q 513 -299 532 -247 q 443 -394 493 -350 l 357 -336 q 397 -284 386 -311 q 408 -226 408 -257 l 460 -267 l 293 -267 l 293 -89 l 532 -89 z "},"ĸ":{"ha":831,"x_min":75,"x_max":871,"o":"m 567 0 l 283 358 l 563 704 l 860 704 l 532 307 l 544 414 l 871 0 l 567 0 m 75 0 l 75 706 l 326 706 l 326 0 l 75 0 z "},"l":{"ha":401,"x_min":75,"x_max":326,"o":"m 75 0 l 75 1022 l 326 1022 l 326 0 l 75 0 z "},"ĺ":{"ha":401,"x_min":75,"x_max":493,"o":"m 75 0 l 75 1022 l 326 1022 l 326 0 l 75 0 m 275 1107 l 124 1107 l 268 1326 l 493 1326 l 275 1107 z "},"ľ":{"ha":401,"x_min":75,"x_max":478,"o":"m 442 743 l 360 743 l 360 1022 l 478 1022 l 442 743 m 75 0 l 75 1022 l 326 1022 l 326 0 l 75 0 z "},"ļ":{"ha":401,"x_min":75,"x_max":326,"o":"m 75 0 l 75 1022 l 326 1022 l 326 0 l 75 0 m 318 -89 l 318 -182 q 299 -299 318 -247 q 229 -394 279 -350 l 143 -336 q 183 -284 172 -311 q 194 -226 194 -257 l 246 -267 l 79 -267 l 79 -89 l 318 -89 z "},"ŀ":{"ha":593,"x_min":75,"x_max":624,"o":"m 75 0 l 75 1022 l 326 1022 l 326 0 l 75 0 m 364 608 l 624 608 l 624 385 l 364 385 l 364 608 z "},"ḷ":{"ha":401,"x_min":75,"x_max":326,"o":"m 75 0 l 75 1022 l 326 1022 l 326 0 l 75 0 m 89 -79 l 310 -79 l 310 -289 l 89 -289 l 89 -79 z "},"ǉ":{"ha":803,"x_min":75,"x_max":731,"o":"m 75 0 l 75 1022 l 326 1022 l 326 0 l 75 0 m 306 -100 q 342 -108 326 -106 q 374 -110 357 -110 q 425 -99 401 -110 q 463 -65 449 -87 q 476 -6 476 -42 l 476 706 l 728 706 l 728 -8 q 655 -231 728 -149 q 436 -312 582 -312 q 368 -308 401 -312 q 306 -293 335 -304 l 306 -100 m 468 1051 l 731 1051 l 731 825 l 468 825 l 468 1051 z "},"ḻ":{"ha":401,"x_min":-24,"x_max":422,"o":"m 75 0 l 75 1022 l 326 1022 l 326 0 l 75 0 m -24 -254 l -24 -114 l 422 -114 l 422 -254 l -24 -254 z "},"ł":{"ha":539,"x_min":-28,"x_max":567,"o":"m 64 279 l -28 444 l 474 736 l 567 568 l 64 279 m 143 0 l 143 1022 l 394 1022 l 394 0 l 143 0 z "},"m":{"ha":1285,"x_min":64,"x_max":1214,"o":"m 75 0 l 75 503 q 73 604 75 553 q 64 706 71 656 l 300 706 l 317 572 l 300 583 q 391 688 331 650 q 535 725 451 725 q 685 676 629 725 q 760 529 742 626 l 726 574 q 827 683 761 642 q 974 725 893 725 q 1156 649 1097 725 q 1214 421 1214 574 l 1214 0 l 963 0 l 963 414 q 944 503 963 475 q 881 532 926 532 q 799 493 828 532 q 769 383 769 454 l 769 0 l 518 0 l 518 414 q 499 503 518 475 q 436 532 481 532 q 355 493 383 532 q 326 383 326 454 l 326 0 l 75 0 z "},"ṃ":{"ha":1285,"x_min":64,"x_max":1214,"o":"m 75 0 l 75 503 q 73 604 75 553 q 64 706 71 656 l 300 706 l 317 572 l 300 583 q 391 688 331 650 q 535 725 451 725 q 685 676 629 725 q 760 529 742 626 l 726 574 q 827 683 761 642 q 974 725 893 725 q 1156 649 1097 725 q 1214 421 1214 574 l 1214 0 l 963 0 l 963 414 q 944 503 963 475 q 881 532 926 532 q 799 493 828 532 q 769 383 769 454 l 769 0 l 518 0 l 518 414 q 499 503 518 475 q 436 532 481 532 q 355 493 383 532 q 326 383 326 454 l 326 0 l 75 0 m 535 -79 l 756 -79 l 756 -289 l 535 -289 l 535 -79 z "},"n":{"ha":867,"x_min":64,"x_max":796,"o":"m 75 0 l 75 503 q 73 604 75 553 q 64 706 71 656 l 300 706 l 317 572 l 300 579 q 402 687 339 649 q 547 725 465 725 q 796 421 796 725 l 796 0 l 544 0 l 544 410 q 522 503 544 475 q 453 532 500 532 q 361 494 396 532 q 326 393 326 456 l 326 0 l 75 0 z "},"ń":{"ha":867,"x_min":64,"x_max":796,"o":"m 75 0 l 75 503 q 73 604 75 553 q 64 706 71 656 l 300 706 l 317 572 l 300 579 q 402 687 339 649 q 547 725 465 725 q 796 421 796 725 l 796 0 l 544 0 l 544 410 q 522 503 544 475 q 453 532 500 532 q 361 494 396 532 q 326 393 326 456 l 326 0 l 75 0 m 511 796 l 360 796 l 496 1085 l 735 1085 l 511 796 z "},"ŉ":{"ha":867,"x_min":64,"x_max":796,"o":"m 326 1069 l 326 975 q 308 858 326 908 q 238 761 289 807 l 151 821 q 192 873 181 846 q 203 932 203 900 l 254 890 l 88 890 l 88 1069 l 326 1069 m 75 0 l 75 503 q 73 604 75 553 q 64 706 71 656 l 300 706 l 317 572 l 300 579 q 402 687 339 649 q 547 725 465 725 q 796 421 796 725 l 796 0 l 544 0 l 544 410 q 522 503 544 475 q 453 532 500 532 q 361 494 396 532 q 326 393 326 456 l 326 0 l 75 0 z "},"ň":{"ha":867,"x_min":64,"x_max":796,"o":"m 75 0 l 75 503 q 73 604 75 553 q 64 706 71 656 l 300 706 l 317 572 l 300 579 q 402 687 339 649 q 547 725 465 725 q 796 421 796 725 l 796 0 l 544 0 l 544 410 q 522 503 544 475 q 453 532 500 532 q 361 494 396 532 q 326 393 326 456 l 326 0 l 75 0 m 508 1085 l 697 1085 l 508 796 l 363 796 l 174 1085 l 363 1085 l 436 936 l 508 1085 z "},"ņ":{"ha":867,"x_min":64,"x_max":796,"o":"m 75 0 l 75 503 q 73 604 75 553 q 64 706 71 656 l 300 706 l 317 572 l 300 579 q 402 687 339 649 q 547 725 465 725 q 796 421 796 725 l 796 0 l 544 0 l 544 410 q 522 503 544 475 q 453 532 500 532 q 361 494 396 532 q 326 393 326 456 l 326 0 l 75 0 m 554 -89 l 554 -182 q 535 -299 554 -247 q 465 -394 515 -350 l 379 -336 q 419 -284 408 -311 q 431 -226 431 -257 l 482 -267 l 315 -267 l 315 -89 l 554 -89 z "},"ṅ":{"ha":867,"x_min":64,"x_max":796,"o":"m 75 0 l 75 503 q 73 604 75 553 q 64 706 71 656 l 300 706 l 317 572 l 300 579 q 402 687 339 649 q 547 725 465 725 q 796 421 796 725 l 796 0 l 544 0 l 544 410 q 522 503 544 475 q 453 532 500 532 q 361 494 396 532 q 326 393 326 456 l 326 0 l 75 0 m 304 1051 l 567 1051 l 567 825 l 304 825 l 304 1051 z "},"ṇ":{"ha":867,"x_min":64,"x_max":796,"o":"m 75 0 l 75 503 q 73 604 75 553 q 64 706 71 656 l 300 706 l 317 572 l 300 579 q 402 687 339 649 q 547 725 465 725 q 796 421 796 725 l 796 0 l 544 0 l 544 410 q 522 503 544 475 q 453 532 500 532 q 361 494 396 532 q 326 393 326 456 l 326 0 l 75 0 m 325 -79 l 546 -79 l 546 -289 l 325 -289 l 325 -79 z "},"ŋ":{"ha":867,"x_min":64,"x_max":796,"o":"m 547 725 q 796 421 796 725 l 796 21 q 764 -160 796 -86 q 668 -274 732 -235 q 507 -312 604 -312 q 437 -309 469 -312 q 372 -299 404 -306 l 372 -100 q 409 -108 393 -106 q 440 -110 425 -110 q 493 -98 469 -110 q 531 -57 517 -86 q 544 22 544 -28 l 544 410 q 522 503 544 475 q 453 532 500 532 q 361 494 396 532 q 326 393 326 456 l 326 0 l 75 0 l 75 503 q 73 604 75 553 q 64 706 71 656 l 300 706 l 317 572 l 300 579 q 402 687 339 649 q 547 725 465 725 z "},"ǌ":{"ha":1268,"x_min":64,"x_max":1196,"o":"m 75 0 l 75 503 q 73 604 75 553 q 64 706 71 656 l 300 706 l 317 572 l 300 579 q 402 687 339 649 q 547 725 465 725 q 796 421 796 725 l 796 0 l 544 0 l 544 410 q 522 503 544 475 q 453 532 500 532 q 361 494 396 532 q 326 393 326 456 l 326 0 l 75 0 m 771 -100 q 807 -108 792 -106 q 839 -110 822 -110 q 890 -99 867 -110 q 928 -65 914 -87 q 942 -6 942 -42 l 942 706 l 1193 706 l 1193 -8 q 1120 -231 1193 -149 q 901 -312 1047 -312 q 833 -308 867 -312 q 771 -293 800 -304 l 771 -100 m 933 1051 l 1196 1051 l 1196 825 l 933 825 l 933 1051 z "},"ṉ":{"ha":867,"x_min":64,"x_max":796,"o":"m 75 0 l 75 503 q 73 604 75 553 q 64 706 71 656 l 300 706 l 317 572 l 300 579 q 402 687 339 649 q 547 725 465 725 q 796 421 796 725 l 796 0 l 544 0 l 544 410 q 522 503 544 475 q 453 532 500 532 q 361 494 396 532 q 326 393 326 456 l 326 0 l 75 0 m 213 -254 l 213 -114 l 658 -114 l 658 -254 l 213 -254 z "},"ñ":{"ha":867,"x_min":64,"x_max":796,"o":"m 75 0 l 75 503 q 73 604 75 553 q 64 706 71 656 l 300 706 l 317 572 l 300 579 q 402 687 339 649 q 547 725 465 725 q 796 421 796 725 l 796 0 l 544 0 l 544 410 q 522 503 544 475 q 453 532 500 532 q 361 494 396 532 q 326 393 326 456 l 326 0 l 75 0 m 185 832 q 233 1002 185 950 q 347 1054 282 1054 q 413 1037 382 1054 q 473 1002 444 1019 q 528 985 501 985 q 566 1001 550 985 q 586 1050 582 1017 l 686 1050 q 638 880 686 932 q 524 828 589 828 q 458 845 489 828 q 398 880 426 863 q 343 897 369 897 q 305 881 321 897 q 285 832 289 865 l 185 832 z "},"o":{"ha":858,"x_min":43,"x_max":815,"o":"m 431 -11 q 224 33 311 -11 q 90 160 138 78 q 43 357 43 243 q 90 552 43 469 q 224 680 138 635 q 431 725 311 725 q 634 680 547 725 q 768 552 721 635 q 815 357 815 469 q 768 160 815 243 q 634 33 721 78 q 431 -11 547 -11 m 431 176 q 531 219 496 176 q 567 357 567 263 q 532 493 567 450 q 431 536 497 536 q 327 493 363 536 q 292 357 292 450 q 327 219 292 263 q 431 176 363 176 z "},"ó":{"ha":858,"x_min":43,"x_max":815,"o":"m 431 -11 q 224 33 311 -11 q 90 160 138 78 q 43 357 43 243 q 90 552 43 469 q 224 680 138 635 q 431 725 311 725 q 634 680 547 725 q 768 552 721 635 q 815 357 815 469 q 768 160 815 243 q 634 33 721 78 q 431 -11 547 -11 m 431 176 q 531 219 496 176 q 567 357 567 263 q 532 493 567 450 q 431 536 497 536 q 327 493 363 536 q 292 357 292 450 q 327 219 292 263 q 431 176 363 176 m 506 796 l 354 796 l 490 1085 l 729 1085 l 506 796 z "},"ŏ":{"ha":858,"x_min":43,"x_max":815,"o":"m 431 -11 q 224 33 311 -11 q 90 160 138 78 q 43 357 43 243 q 90 552 43 469 q 224 680 138 635 q 431 725 311 725 q 634 680 547 725 q 768 552 721 635 q 815 357 815 469 q 768 160 815 243 q 634 33 721 78 q 431 -11 547 -11 m 431 176 q 531 219 496 176 q 567 357 567 263 q 532 493 567 450 q 431 536 497 536 q 327 493 363 536 q 292 357 292 450 q 327 219 292 263 q 431 176 363 176 m 431 824 q 313 847 369 824 q 215 917 256 869 q 158 1036 174 964 l 265 1083 q 341 1001 299 1025 q 431 976 383 976 q 519 1001 476 976 q 594 1083 561 1025 l 701 1036 q 645 917 686 964 q 548 847 604 869 q 431 824 492 824 z "},"ô":{"ha":858,"x_min":43,"x_max":815,"o":"m 431 -11 q 224 33 311 -11 q 90 160 138 78 q 43 357 43 243 q 90 552 43 469 q 224 680 138 635 q 431 725 311 725 q 634 680 547 725 q 768 552 721 635 q 815 357 815 469 q 768 160 815 243 q 634 33 721 78 q 431 -11 547 -11 m 431 176 q 531 219 496 176 q 567 357 567 263 q 532 493 567 450 q 431 536 497 536 q 327 493 363 536 q 292 357 292 450 q 327 219 292 263 q 431 176 363 176 m 357 796 l 168 796 l 357 1085 l 503 1085 l 692 796 l 503 796 l 431 943 l 357 796 z "},"ố":{"ha":858,"x_min":43,"x_max":854,"o":"m 431 -11 q 224 33 311 -11 q 90 160 138 78 q 43 357 43 243 q 90 552 43 469 q 224 680 138 635 q 431 725 311 725 q 634 680 547 725 q 768 552 721 635 q 815 357 815 469 q 768 160 815 243 q 634 33 721 78 q 431 -11 547 -11 m 431 176 q 531 219 496 176 q 567 357 567 263 q 532 493 567 450 q 431 536 497 536 q 327 493 363 536 q 292 357 292 450 q 327 219 292 263 q 431 176 363 176 m 346 796 l 168 796 l 361 985 l 499 985 l 692 796 l 514 796 l 431 878 l 346 796 m 683 949 l 567 949 l 657 1144 l 854 1144 l 683 949 z "},"ộ":{"ha":858,"x_min":43,"x_max":815,"o":"m 431 -11 q 224 33 311 -11 q 90 160 138 78 q 43 357 43 243 q 90 552 43 469 q 224 680 138 635 q 431 725 311 725 q 634 680 547 725 q 768 552 721 635 q 815 357 815 469 q 768 160 815 243 q 634 33 721 78 q 431 -11 547 -11 m 431 176 q 531 219 496 176 q 567 357 567 263 q 532 493 567 450 q 431 536 497 536 q 327 493 363 536 q 292 357 292 450 q 327 219 292 263 q 431 176 363 176 m 319 -79 l 540 -79 l 540 -289 l 319 -289 l 319 -79 m 357 796 l 168 796 l 357 1085 l 503 1085 l 692 796 l 503 796 l 431 943 l 357 796 z "},"ồ":{"ha":858,"x_min":43,"x_max":815,"o":"m 431 -11 q 224 33 311 -11 q 90 160 138 78 q 43 357 43 243 q 90 552 43 469 q 224 680 138 635 q 431 725 311 725 q 634 680 547 725 q 768 552 721 635 q 815 357 815 469 q 768 160 815 243 q 634 33 721 78 q 431 -11 547 -11 m 431 176 q 531 219 496 176 q 567 357 567 263 q 532 493 567 450 q 431 536 497 536 q 327 493 363 536 q 292 357 292 450 q 327 219 292 263 q 431 176 363 176 m 346 796 l 168 796 l 361 985 l 499 985 l 692 796 l 514 796 l 431 878 l 346 796 m 626 949 l 450 1144 l 649 1144 l 743 949 l 626 949 z "},"ổ":{"ha":858,"x_min":43,"x_max":815,"o":"m 431 -11 q 224 33 311 -11 q 90 160 138 78 q 43 357 43 243 q 90 552 43 469 q 224 680 138 635 q 431 725 311 725 q 634 680 547 725 q 768 552 721 635 q 815 357 815 469 q 768 160 815 243 q 634 33 721 78 q 431 -11 547 -11 m 431 176 q 531 219 496 176 q 567 357 567 263 q 532 493 567 450 q 431 536 497 536 q 327 493 363 536 q 292 357 292 450 q 327 219 292 263 q 431 176 363 176 m 346 796 l 168 796 l 361 985 l 499 985 l 692 796 l 514 796 l 431 878 l 346 796 m 682 961 l 682 950 l 565 950 l 565 979 q 579 1014 565 1001 q 611 1033 593 1026 q 643 1044 629 1040 q 657 1051 657 1047 q 649 1062 657 1056 q 615 1068 640 1068 q 582 1064 603 1068 q 538 1053 561 1060 l 507 1128 q 567 1147 533 1139 q 649 1154 601 1154 q 760 1131 719 1154 q 801 1069 801 1107 q 783 1028 801 1043 q 742 1006 765 1014 q 700 988 718 997 q 682 961 682 978 z "},"ỗ":{"ha":858,"x_min":43,"x_max":815,"o":"m 431 -11 q 224 33 311 -11 q 90 160 138 78 q 43 357 43 243 q 90 552 43 469 q 224 680 138 635 q 431 725 311 725 q 634 680 547 725 q 768 552 721 635 q 815 357 815 469 q 768 160 815 243 q 634 33 721 78 q 431 -11 547 -11 m 431 176 q 531 219 496 176 q 567 357 567 263 q 532 493 567 450 q 431 536 497 536 q 327 493 363 536 q 292 357 292 450 q 327 219 292 263 q 431 176 363 176 m 346 796 l 168 796 l 361 985 l 499 985 l 692 796 l 514 796 l 431 878 l 346 796 m 179 1011 q 201 1088 179 1054 q 261 1142 224 1122 q 342 1161 299 1161 q 408 1151 376 1161 q 467 1132 439 1142 q 522 1122 496 1122 q 560 1128 544 1122 q 581 1156 576 1133 l 681 1156 q 658 1080 681 1114 q 599 1026 636 1046 q 518 1006 561 1006 q 452 1015 483 1006 q 392 1035 421 1025 q 338 1044 364 1044 q 299 1039 315 1044 q 279 1011 283 1033 l 179 1011 z "},"ȍ":{"ha":858,"x_min":43,"x_max":815,"o":"m 431 -11 q 224 33 311 -11 q 90 160 138 78 q 43 357 43 243 q 90 552 43 469 q 224 680 138 635 q 431 725 311 725 q 634 680 547 725 q 768 552 721 635 q 815 357 815 469 q 768 160 815 243 q 634 33 721 78 q 431 -11 547 -11 m 431 176 q 531 219 496 176 q 567 357 567 263 q 532 493 567 450 q 431 536 497 536 q 327 493 363 536 q 292 357 292 450 q 327 219 292 263 q 431 176 363 176 m 481 796 l 371 1085 l 543 1085 l 585 796 l 481 796 m 275 796 l 167 1085 l 339 1085 l 379 796 l 275 796 z "},"ö":{"ha":858,"x_min":43,"x_max":815,"o":"m 431 -11 q 224 33 311 -11 q 90 160 138 78 q 43 357 43 243 q 90 552 43 469 q 224 680 138 635 q 431 725 311 725 q 634 680 547 725 q 768 552 721 635 q 815 357 815 469 q 768 160 815 243 q 634 33 721 78 q 431 -11 547 -11 m 431 176 q 531 219 496 176 q 567 357 567 263 q 532 493 567 450 q 431 536 497 536 q 327 493 363 536 q 292 357 292 450 q 327 219 292 263 q 431 176 363 176 m 458 1043 l 681 1043 l 681 832 l 458 832 l 458 1043 m 179 1043 l 401 1043 l 401 832 l 179 832 l 179 1043 z "},"ȫ":{"ha":858,"x_min":43,"x_max":815,"o":"m 431 -11 q 224 33 311 -11 q 90 160 138 78 q 43 357 43 243 q 90 552 43 469 q 224 680 138 635 q 431 725 311 725 q 634 680 547 725 q 768 552 721 635 q 815 357 815 469 q 768 160 815 243 q 634 33 721 78 q 431 -11 547 -11 m 431 176 q 531 219 496 176 q 567 357 567 263 q 532 493 567 450 q 431 536 497 536 q 327 493 363 536 q 292 357 292 450 q 327 219 292 263 q 431 176 363 176 m 458 1043 l 681 1043 l 681 832 l 458 832 l 458 1043 m 179 1043 l 401 1043 l 401 832 l 179 832 l 179 1043 m 207 1128 l 207 1278 l 653 1278 l 653 1128 l 207 1128 z "},"ȱ":{"ha":858,"x_min":43,"x_max":815,"o":"m 431 -11 q 224 33 311 -11 q 90 160 138 78 q 43 357 43 243 q 90 552 43 469 q 224 680 138 635 q 431 725 311 725 q 634 680 547 725 q 768 552 721 635 q 815 357 815 469 q 768 160 815 243 q 634 33 721 78 q 431 -11 547 -11 m 431 176 q 531 219 496 176 q 567 357 567 263 q 532 493 567 450 q 431 536 497 536 q 327 493 363 536 q 292 357 292 450 q 327 219 292 263 q 431 176 363 176 m 299 1051 l 561 1051 l 561 825 l 299 825 l 299 1051 m 207 1128 l 207 1278 l 653 1278 l 653 1128 l 207 1128 z "},"ọ":{"ha":858,"x_min":43,"x_max":815,"o":"m 431 -11 q 224 33 311 -11 q 90 160 138 78 q 43 357 43 243 q 90 552 43 469 q 224 680 138 635 q 431 725 311 725 q 634 680 547 725 q 768 552 721 635 q 815 357 815 469 q 768 160 815 243 q 634 33 721 78 q 431 -11 547 -11 m 431 176 q 531 219 496 176 q 567 357 567 263 q 532 493 567 450 q 431 536 497 536 q 327 493 363 536 q 292 357 292 450 q 327 219 292 263 q 431 176 363 176 m 319 -79 l 540 -79 l 540 -289 l 319 -289 l 319 -79 z "},"ò":{"ha":858,"x_min":43,"x_max":815,"o":"m 431 -11 q 224 33 311 -11 q 90 160 138 78 q 43 357 43 243 q 90 552 43 469 q 224 680 138 635 q 431 725 311 725 q 634 680 547 725 q 768 552 721 635 q 815 357 815 469 q 768 160 815 243 q 634 33 721 78 q 431 -11 547 -11 m 431 176 q 531 219 496 176 q 567 357 567 263 q 532 493 567 450 q 431 536 497 536 q 327 493 363 536 q 292 357 292 450 q 327 219 292 263 q 431 176 363 176 m 354 796 l 131 1085 l 369 1085 l 506 796 l 354 796 z "},"ỏ":{"ha":858,"x_min":43,"x_max":815,"o":"m 431 -11 q 224 33 311 -11 q 90 160 138 78 q 43 357 43 243 q 90 552 43 469 q 224 680 138 635 q 431 725 311 725 q 634 680 547 725 q 768 552 721 635 q 815 357 815 469 q 768 160 815 243 q 634 33 721 78 q 431 -11 547 -11 m 431 176 q 531 219 496 176 q 567 357 567 263 q 532 493 567 450 q 431 536 497 536 q 327 493 363 536 q 292 357 292 450 q 327 219 292 263 q 431 176 363 176 m 492 828 l 492 796 l 372 796 l 372 829 q 384 876 372 858 q 412 907 396 894 q 440 930 428 919 q 451 954 451 940 q 441 977 451 969 q 408 985 431 985 q 379 983 394 985 q 344 974 364 981 l 313 1060 q 377 1082 347 1076 q 436 1088 407 1088 q 565 1054 522 1088 q 607 979 607 1021 q 590 925 607 946 q 549 889 572 904 q 509 860 526 874 q 492 828 492 846 z "},"ơ":{"ha":858,"x_min":43,"x_max":863,"o":"m 431 -11 q 224 33 311 -11 q 90 160 138 78 q 43 354 43 243 q 90 552 43 469 q 224 680 138 635 q 425 725 310 725 q 474 722 447 725 q 522 715 500 718 q 550 711 543 711 q 595 721 572 711 q 633 761 618 731 q 649 853 649 792 l 649 883 l 863 883 l 863 824 q 812 672 863 735 q 678 596 761 608 l 693 636 q 785 515 756 589 q 815 354 815 440 q 768 160 815 243 q 634 33 721 78 q 431 -11 547 -11 m 431 176 q 531 219 496 176 q 567 357 567 263 q 532 493 567 450 q 431 536 497 536 q 327 493 363 536 q 292 357 292 450 q 327 219 292 263 q 431 176 363 176 z "},"ớ":{"ha":858,"x_min":43,"x_max":863,"o":"m 431 -11 q 224 33 311 -11 q 90 160 138 78 q 43 354 43 243 q 90 552 43 469 q 224 680 138 635 q 425 725 310 725 q 474 722 447 725 q 522 715 500 718 q 550 711 543 711 q 595 721 572 711 q 633 761 618 731 q 649 853 649 792 l 649 883 l 863 883 l 863 824 q 812 672 863 735 q 678 596 761 608 l 693 636 q 785 515 756 589 q 815 354 815 440 q 768 160 815 243 q 634 33 721 78 q 431 -11 547 -11 m 431 176 q 531 219 496 176 q 567 357 567 263 q 532 493 567 450 q 431 536 497 536 q 327 493 363 536 q 292 357 292 450 q 327 219 292 263 q 431 176 363 176 m 506 796 l 354 796 l 490 1085 l 729 1085 l 506 796 z "},"ợ":{"ha":858,"x_min":43,"x_max":863,"o":"m 431 -11 q 224 33 311 -11 q 90 160 138 78 q 43 354 43 243 q 90 552 43 469 q 224 680 138 635 q 425 725 310 725 q 474 722 447 725 q 522 715 500 718 q 550 711 543 711 q 595 721 572 711 q 633 761 618 731 q 649 853 649 792 l 649 883 l 863 883 l 863 824 q 812 672 863 735 q 678 596 761 608 l 693 636 q 785 515 756 589 q 815 354 815 440 q 768 160 815 243 q 634 33 721 78 q 431 -11 547 -11 m 431 176 q 531 219 496 176 q 567 357 567 263 q 532 493 567 450 q 431 536 497 536 q 327 493 363 536 q 292 357 292 450 q 327 219 292 263 q 431 176 363 176 m 319 -79 l 540 -79 l 540 -289 l 319 -289 l 319 -79 z "},"ờ":{"ha":858,"x_min":43,"x_max":863,"o":"m 431 -11 q 224 33 311 -11 q 90 160 138 78 q 43 354 43 243 q 90 552 43 469 q 224 680 138 635 q 425 725 310 725 q 474 722 447 725 q 522 715 500 718 q 550 711 543 711 q 595 721 572 711 q 633 761 618 731 q 649 853 649 792 l 649 883 l 863 883 l 863 824 q 812 672 863 735 q 678 596 761 608 l 693 636 q 785 515 756 589 q 815 354 815 440 q 768 160 815 243 q 634 33 721 78 q 431 -11 547 -11 m 431 176 q 531 219 496 176 q 567 357 567 263 q 532 493 567 450 q 431 536 497 536 q 327 493 363 536 q 292 357 292 450 q 327 219 292 263 q 431 176 363 176 m 354 796 l 131 1085 l 369 1085 l 506 796 l 354 796 z "},"ở":{"ha":858,"x_min":43,"x_max":863,"o":"m 431 -11 q 224 33 311 -11 q 90 160 138 78 q 43 354 43 243 q 90 552 43 469 q 224 680 138 635 q 425 725 310 725 q 474 722 447 725 q 522 715 500 718 q 550 711 543 711 q 595 721 572 711 q 633 761 618 731 q 649 853 649 792 l 649 883 l 863 883 l 863 824 q 812 672 863 735 q 678 596 761 608 l 693 636 q 785 515 756 589 q 815 354 815 440 q 768 160 815 243 q 634 33 721 78 q 431 -11 547 -11 m 431 176 q 531 219 496 176 q 567 357 567 263 q 532 493 567 450 q 431 536 497 536 q 327 493 363 536 q 292 357 292 450 q 327 219 292 263 q 431 176 363 176 m 492 828 l 492 796 l 372 796 l 372 829 q 384 876 372 858 q 412 907 396 894 q 440 930 428 919 q 451 954 451 940 q 441 977 451 969 q 408 985 431 985 q 379 983 394 985 q 344 974 364 981 l 313 1060 q 377 1082 347 1076 q 436 1088 407 1088 q 565 1054 522 1088 q 607 979 607 1021 q 590 925 607 946 q 549 889 572 904 q 509 860 526 874 q 492 828 492 846 z "},"ỡ":{"ha":858,"x_min":43,"x_max":863,"o":"m 431 -11 q 224 33 311 -11 q 90 160 138 78 q 43 354 43 243 q 90 552 43 469 q 224 680 138 635 q 425 725 310 725 q 474 722 447 725 q 522 715 500 718 q 550 711 543 711 q 595 721 572 711 q 633 761 618 731 q 649 853 649 792 l 649 883 l 863 883 l 863 824 q 812 672 863 735 q 678 596 761 608 l 693 636 q 785 515 756 589 q 815 354 815 440 q 768 160 815 243 q 634 33 721 78 q 431 -11 547 -11 m 431 176 q 531 219 496 176 q 567 357 567 263 q 532 493 567 450 q 431 536 497 536 q 327 493 363 536 q 292 357 292 450 q 327 219 292 263 q 431 176 363 176 m 179 832 q 228 1002 179 950 q 342 1054 276 1054 q 408 1037 376 1054 q 467 1002 439 1019 q 522 985 496 985 q 560 1001 544 985 q 581 1050 576 1017 l 681 1050 q 632 880 681 932 q 518 828 583 828 q 452 845 483 828 q 392 880 421 863 q 338 897 364 897 q 299 881 315 897 q 279 832 283 865 l 179 832 z "},"ő":{"ha":858,"x_min":43,"x_max":815,"o":"m 431 -11 q 224 33 311 -11 q 90 160 138 78 q 43 357 43 243 q 90 552 43 469 q 224 680 138 635 q 431 725 311 725 q 634 680 547 725 q 768 552 721 635 q 815 357 815 469 q 768 160 815 243 q 634 33 721 78 q 431 -11 547 -11 m 431 176 q 531 219 496 176 q 567 357 567 263 q 532 493 567 450 q 431 536 497 536 q 327 493 363 536 q 292 357 292 450 q 327 219 292 263 q 431 176 363 176 m 379 796 l 275 796 l 317 1085 l 489 1085 l 379 796 m 585 796 l 481 796 l 521 1085 l 693 1085 l 585 796 z "},"ȏ":{"ha":858,"x_min":43,"x_max":815,"o":"m 431 -11 q 224 33 311 -11 q 90 160 138 78 q 43 357 43 243 q 90 552 43 469 q 224 680 138 635 q 431 725 311 725 q 634 680 547 725 q 768 552 721 635 q 815 357 815 469 q 768 160 815 243 q 634 33 721 78 q 431 -11 547 -11 m 431 176 q 531 219 496 176 q 567 357 567 263 q 532 493 567 450 q 431 536 497 536 q 327 493 363 536 q 292 357 292 450 q 327 219 292 263 q 431 176 363 176 m 431 1075 q 548 1051 492 1075 q 645 981 604 1028 q 701 861 686 933 l 594 817 q 519 898 561 872 q 431 924 476 924 q 341 898 383 924 q 265 817 299 872 l 158 863 q 215 981 174 933 q 313 1051 257 1028 q 431 1075 369 1075 z "},"ō":{"ha":858,"x_min":43,"x_max":815,"o":"m 431 -11 q 224 33 311 -11 q 90 160 138 78 q 43 357 43 243 q 90 552 43 469 q 224 680 138 635 q 431 725 311 725 q 634 680 547 725 q 768 552 721 635 q 815 357 815 469 q 768 160 815 243 q 634 33 721 78 q 431 -11 547 -11 m 431 176 q 531 219 496 176 q 567 357 567 263 q 532 493 567 450 q 431 536 497 536 q 327 493 363 536 q 292 357 292 450 q 327 219 292 263 q 431 176 363 176 m 207 863 l 207 1013 l 653 1013 l 653 863 l 207 863 z "},"ṓ":{"ha":858,"x_min":43,"x_max":815,"o":"m 431 -11 q 224 33 311 -11 q 90 160 138 78 q 43 357 43 243 q 90 552 43 469 q 224 680 138 635 q 431 725 311 725 q 634 680 547 725 q 768 552 721 635 q 815 357 815 469 q 768 160 815 243 q 634 33 721 78 q 431 -11 547 -11 m 431 176 q 531 219 496 176 q 567 357 567 263 q 532 493 567 450 q 431 536 497 536 q 327 493 363 536 q 292 357 292 450 q 327 219 292 263 q 431 176 363 176 m 207 863 l 207 1013 l 653 1013 l 653 863 l 207 863 m 506 1061 l 354 1061 l 490 1350 l 729 1350 l 506 1061 z "},"ṑ":{"ha":858,"x_min":43,"x_max":815,"o":"m 431 -11 q 224 33 311 -11 q 90 160 138 78 q 43 357 43 243 q 90 552 43 469 q 224 680 138 635 q 431 725 311 725 q 634 680 547 725 q 768 552 721 635 q 815 357 815 469 q 768 160 815 243 q 634 33 721 78 q 431 -11 547 -11 m 431 176 q 531 219 496 176 q 567 357 567 263 q 532 493 567 450 q 431 536 497 536 q 327 493 363 536 q 292 357 292 450 q 327 219 292 263 q 431 176 363 176 m 207 863 l 207 1013 l 653 1013 l 653 863 l 207 863 m 354 1061 l 131 1350 l 369 1350 l 506 1061 l 354 1061 z "},"ǫ":{"ha":858,"x_min":43,"x_max":815,"o":"m 522 -286 q 385 -240 438 -286 q 333 -125 333 -194 q 355 -44 333 -82 q 421 19 376 -6 l 438 -11 q 227 34 315 -11 q 91 162 139 79 q 43 357 43 244 q 90 552 43 469 q 224 680 138 635 q 431 725 311 725 q 634 680 547 725 q 768 552 721 635 q 815 357 815 469 q 751 133 815 226 q 574 8 686 39 q 510 -28 533 -3 q 488 -87 488 -53 q 510 -142 488 -124 q 572 -160 532 -160 q 647 -143 610 -160 l 672 -257 q 599 -278 638 -269 q 522 -286 561 -286 m 431 176 q 531 219 496 176 q 567 357 567 263 q 532 493 567 450 q 431 536 497 536 q 327 493 363 536 q 292 357 292 450 q 327 219 292 263 q 431 176 363 176 z "},"ø":{"ha":858,"x_min":43,"x_max":815,"o":"m 431 -11 q 224 33 311 -11 q 90 160 138 78 q 43 357 43 243 q 90 552 43 469 q 224 680 138 635 q 431 725 311 725 q 634 680 547 725 q 768 552 721 635 q 815 357 815 469 q 768 160 815 243 q 634 33 721 78 q 431 -11 547 -11 m 240 -99 l 128 -32 l 618 810 l 732 743 l 240 -99 m 431 175 q 536 218 500 175 q 572 357 572 261 q 536 495 572 451 q 431 539 500 539 q 322 495 358 539 q 286 357 286 451 q 323 218 286 261 q 431 175 360 175 z "},"ǿ":{"ha":858,"x_min":43,"x_max":815,"o":"m 431 -11 q 224 33 311 -11 q 90 160 138 78 q 43 357 43 243 q 90 552 43 469 q 224 680 138 635 q 431 725 311 725 q 634 680 547 725 q 768 552 721 635 q 815 357 815 469 q 768 160 815 243 q 634 33 721 78 q 431 -11 547 -11 m 240 -99 l 128 -32 l 618 810 l 732 743 l 240 -99 m 431 175 q 536 218 500 175 q 572 357 572 261 q 536 495 572 451 q 431 539 500 539 q 322 495 358 539 q 286 357 286 451 q 323 218 286 261 q 431 175 360 175 m 506 796 l 354 796 l 490 1085 l 729 1085 l 506 796 z "},"õ":{"ha":858,"x_min":43,"x_max":815,"o":"m 431 -11 q 224 33 311 -11 q 90 160 138 78 q 43 357 43 243 q 90 552 43 469 q 224 680 138 635 q 431 725 311 725 q 634 680 547 725 q 768 552 721 635 q 815 357 815 469 q 768 160 815 243 q 634 33 721 78 q 431 -11 547 -11 m 431 176 q 531 219 496 176 q 567 357 567 263 q 532 493 567 450 q 431 536 497 536 q 327 493 363 536 q 292 357 292 450 q 327 219 292 263 q 431 176 363 176 m 179 832 q 228 1002 179 950 q 342 1054 276 1054 q 408 1037 376 1054 q 467 1002 439 1019 q 522 985 496 985 q 560 1001 544 985 q 581 1050 576 1017 l 681 1050 q 632 880 681 932 q 518 828 583 828 q 452 845 483 828 q 392 880 421 863 q 338 897 364 897 q 299 881 315 897 q 279 832 283 865 l 179 832 z "},"ṍ":{"ha":858,"x_min":43,"x_max":815,"o":"m 431 -11 q 224 33 311 -11 q 90 160 138 78 q 43 357 43 243 q 90 552 43 469 q 224 680 138 635 q 431 725 311 725 q 634 680 547 725 q 768 552 721 635 q 815 357 815 469 q 768 160 815 243 q 634 33 721 78 q 431 -11 547 -11 m 431 176 q 531 219 496 176 q 567 357 567 263 q 532 493 567 450 q 431 536 497 536 q 327 493 363 536 q 292 357 292 450 q 327 219 292 263 q 431 176 363 176 m 179 832 q 228 1002 179 950 q 342 1054 276 1054 q 408 1037 376 1054 q 467 1002 439 1019 q 522 985 496 985 q 560 1001 544 985 q 581 1050 576 1017 l 681 1050 q 632 880 681 932 q 518 828 583 828 q 452 845 483 828 q 392 880 421 863 q 338 897 364 897 q 299 881 315 897 q 279 832 283 865 l 179 832 m 506 1061 l 354 1061 l 490 1350 l 729 1350 l 506 1061 z "},"ṏ":{"ha":858,"x_min":43,"x_max":815,"o":"m 431 -11 q 224 33 311 -11 q 90 160 138 78 q 43 357 43 243 q 90 552 43 469 q 224 680 138 635 q 431 725 311 725 q 634 680 547 725 q 768 552 721 635 q 815 357 815 469 q 768 160 815 243 q 634 33 721 78 q 431 -11 547 -11 m 431 176 q 531 219 496 176 q 567 357 567 263 q 532 493 567 450 q 431 536 497 536 q 327 493 363 536 q 292 357 292 450 q 327 219 292 263 q 431 176 363 176 m 179 832 q 228 1002 179 950 q 342 1054 276 1054 q 408 1037 376 1054 q 467 1002 439 1019 q 522 985 496 985 q 560 1001 544 985 q 581 1050 576 1017 l 681 1050 q 632 880 681 932 q 518 828 583 828 q 452 845 483 828 q 392 880 421 863 q 338 897 364 897 q 299 881 315 897 q 279 832 283 865 l 179 832 m 458 1308 l 681 1308 l 681 1097 l 458 1097 l 458 1308 m 179 1308 l 401 1308 l 401 1097 l 179 1097 l 179 1308 z "},"ȭ":{"ha":858,"x_min":43,"x_max":815,"o":"m 431 -11 q 224 33 311 -11 q 90 160 138 78 q 43 357 43 243 q 90 552 43 469 q 224 680 138 635 q 431 725 311 725 q 634 680 547 725 q 768 552 721 635 q 815 357 815 469 q 768 160 815 243 q 634 33 721 78 q 431 -11 547 -11 m 431 176 q 531 219 496 176 q 567 357 567 263 q 532 493 567 450 q 431 536 497 536 q 327 493 363 536 q 292 357 292 450 q 327 219 292 263 q 431 176 363 176 m 179 832 q 228 1002 179 950 q 342 1054 276 1054 q 408 1037 376 1054 q 467 1002 439 1019 q 522 985 496 985 q 560 1001 544 985 q 581 1050 576 1017 l 681 1050 q 632 880 681 932 q 518 828 583 828 q 452 845 483 828 q 392 880 421 863 q 338 897 364 897 q 299 881 315 897 q 279 832 283 865 l 179 832 m 207 1128 l 207 1278 l 653 1278 l 653 1128 l 207 1128 z "},"œ":{"ha":1289,"x_min":43,"x_max":1246,"o":"m 424 -11 q 222 34 307 -11 q 90 162 136 79 q 43 357 43 244 q 90 552 43 469 q 222 680 136 635 q 424 725 307 725 q 611 681 532 725 q 733 553 690 636 q 775 357 775 471 q 733 159 775 242 q 611 33 690 76 q 424 -11 532 -11 m 426 176 q 526 219 492 176 q 560 357 560 263 q 526 493 560 450 q 426 536 492 536 q 326 493 361 536 q 292 357 292 450 q 327 219 292 263 q 426 176 363 176 m 956 -11 q 697 85 789 -11 q 606 356 604 181 q 647 551 606 468 q 763 679 688 633 q 938 725 838 725 q 1097 678 1028 725 q 1206 550 1167 632 q 1246 361 1246 468 l 1246 304 l 796 304 l 799 424 l 1094 424 l 1035 404 q 1007 515 1033 476 q 931 553 981 553 q 841 510 872 553 q 810 382 810 467 q 844 221 810 268 q 958 174 878 174 q 1070 190 1015 174 q 1168 239 1125 207 l 1233 72 q 1106 10 1181 32 q 956 -11 1031 -11 z "},"p":{"ha":896,"x_min":64,"x_max":853,"o":"m 75 -300 l 75 503 q 73 604 75 553 q 64 706 71 656 l 300 706 l 317 574 l 308 582 q 394 685 331 646 q 540 725 458 725 q 702 678 632 725 q 813 547 772 631 q 853 351 853 463 q 813 160 853 242 q 702 33 772 78 q 540 -11 632 -11 q 394 26 458 -11 q 308 129 331 64 l 326 161 l 326 -300 l 75 -300 m 464 176 q 567 222 532 176 q 601 351 601 267 q 566 487 601 439 q 464 535 531 535 q 360 489 396 535 q 324 354 324 443 q 360 222 324 268 q 464 176 396 176 z "},"þ":{"ha":896,"x_min":75,"x_max":853,"o":"m 75 -300 l 75 1022 l 326 1022 l 326 553 l 308 582 q 394 685 331 646 q 540 725 458 725 q 702 677 632 725 q 813 545 772 629 q 853 351 853 461 q 813 161 853 243 q 702 34 772 79 q 540 -11 632 -11 q 394 26 458 -11 q 308 129 331 64 l 326 161 l 326 -300 l 75 -300 m 464 176 q 566 221 531 176 q 601 351 601 265 q 565 488 601 440 q 464 535 529 535 q 360 489 396 535 q 324 354 324 443 q 360 222 324 268 q 464 176 396 176 z "},"q":{"ha":893,"x_min":43,"x_max":832,"o":"m 818 -300 l 567 -300 l 567 161 l 588 129 q 499 26 564 64 q 354 -11 435 -11 q 193 33 264 -11 q 83 160 122 78 q 43 351 43 242 q 83 547 43 463 q 194 678 124 631 q 354 725 264 725 q 499 685 435 725 q 588 582 564 646 l 576 574 l 594 706 l 832 706 q 821 604 824 656 q 818 503 818 553 l 818 -300 m 432 176 q 534 222 497 176 q 571 354 571 268 q 535 489 571 443 q 432 535 499 535 q 329 487 367 535 q 292 351 292 439 q 328 222 292 267 q 432 176 364 176 z "},"r":{"ha":597,"x_min":64,"x_max":600,"o":"m 75 0 l 75 503 q 73 604 75 553 q 64 706 71 656 l 300 706 l 324 515 l 300 529 q 377 674 314 625 q 521 722 440 722 q 567 718 547 722 q 600 707 586 714 l 600 478 q 485 506 540 506 q 400 490 435 506 q 346 440 365 474 q 326 354 326 407 l 326 0 l 75 0 z "},"ŕ":{"ha":597,"x_min":64,"x_max":644,"o":"m 75 0 l 75 503 q 73 604 75 553 q 64 706 71 656 l 300 706 l 324 515 l 300 529 q 377 674 314 625 q 521 722 440 722 q 567 718 547 722 q 600 707 586 714 l 600 478 q 485 506 540 506 q 400 490 435 506 q 346 440 365 474 q 326 354 326 407 l 326 0 l 75 0 m 421 796 l 269 796 l 406 1085 l 644 1085 l 421 796 z "},"ř":{"ha":597,"x_min":64,"x_max":607,"o":"m 75 0 l 75 503 q 73 604 75 553 q 64 706 71 656 l 300 706 l 324 515 l 300 529 q 377 674 314 625 q 521 722 440 722 q 567 718 547 722 q 600 707 586 714 l 600 478 q 485 506 540 506 q 400 490 435 506 q 346 440 365 474 q 326 354 326 407 l 326 0 l 75 0 m 418 1085 l 607 1085 l 418 796 l 272 796 l 83 1085 l 272 1085 l 346 936 l 418 1085 z "},"ŗ":{"ha":597,"x_min":64,"x_max":600,"o":"m 75 0 l 75 503 q 73 604 75 553 q 64 706 71 656 l 300 706 l 324 515 l 300 529 q 377 674 314 625 q 521 722 440 722 q 567 718 547 722 q 600 707 586 714 l 600 478 q 485 506 540 506 q 400 490 435 506 q 346 440 365 474 q 326 354 326 407 l 326 0 l 75 0 m 318 -89 l 318 -182 q 299 -299 318 -247 q 229 -394 279 -350 l 143 -336 q 183 -284 172 -311 q 194 -226 194 -257 l 246 -267 l 79 -267 l 79 -89 l 318 -89 z "},"ȑ":{"ha":597,"x_min":64,"x_max":600,"o":"m 75 0 l 75 503 q 73 604 75 553 q 64 706 71 656 l 300 706 l 324 515 l 300 529 q 377 674 314 625 q 521 722 440 722 q 567 718 547 722 q 600 707 586 714 l 600 478 q 485 506 540 506 q 400 490 435 506 q 346 440 365 474 q 326 354 326 407 l 326 0 l 75 0 m 396 796 l 286 1085 l 458 1085 l 500 796 l 396 796 m 190 796 l 82 1085 l 254 1085 l 294 796 l 190 796 z "},"ṛ":{"ha":597,"x_min":64,"x_max":600,"o":"m 75 0 l 75 503 q 73 604 75 553 q 64 706 71 656 l 300 706 l 324 515 l 300 529 q 377 674 314 625 q 521 722 440 722 q 567 718 547 722 q 600 707 586 714 l 600 478 q 485 506 540 506 q 400 490 435 506 q 346 440 365 474 q 326 354 326 407 l 326 0 l 75 0 m 89 -79 l 310 -79 l 310 -289 l 89 -289 l 89 -79 z "},"ȓ":{"ha":597,"x_min":64,"x_max":617,"o":"m 75 0 l 75 503 q 73 604 75 553 q 64 706 71 656 l 300 706 l 324 515 l 300 529 q 377 674 314 625 q 521 722 440 722 q 567 718 547 722 q 600 707 586 714 l 600 478 q 485 506 540 506 q 400 490 435 506 q 346 440 365 474 q 326 354 326 407 l 326 0 l 75 0 m 346 1075 q 463 1051 407 1075 q 560 981 519 1028 q 617 861 601 933 l 510 817 q 434 898 476 872 q 346 924 392 924 q 256 898 299 924 q 181 817 214 872 l 74 863 q 131 981 89 933 q 228 1051 172 1028 q 346 1075 285 1075 z "},"ṟ":{"ha":597,"x_min":-24,"x_max":600,"o":"m 75 0 l 75 503 q 73 604 75 553 q 64 706 71 656 l 300 706 l 324 515 l 300 529 q 377 674 314 625 q 521 722 440 722 q 567 718 547 722 q 600 707 586 714 l 600 478 q 485 506 540 506 q 400 490 435 506 q 346 440 365 474 q 326 354 326 407 l 326 0 l 75 0 m -24 -254 l -24 -114 l 422 -114 l 422 -254 l -24 -254 z "},"s":{"ha":704,"x_min":26,"x_max":671,"o":"m 360 -11 q 26 74 149 -11 l 90 244 q 220 184 147 206 q 361 163 293 163 q 428 175 404 163 q 451 210 451 188 q 434 240 451 229 q 368 263 417 251 l 254 289 q 98 359 146 311 q 50 492 50 407 q 90 613 50 560 q 202 695 131 665 q 367 725 274 725 q 518 702 444 725 q 654 640 592 679 l 588 474 q 474 529 532 510 q 364 549 415 549 q 299 535 324 549 q 275 497 275 522 q 289 473 275 482 q 342 454 303 464 l 460 428 q 622 351 572 403 q 671 213 671 300 q 588 49 671 108 q 360 -11 506 -11 z "},"ś":{"ha":704,"x_min":26,"x_max":671,"o":"m 360 -11 q 26 74 149 -11 l 90 244 q 220 184 147 206 q 361 163 293 163 q 428 175 404 163 q 451 210 451 188 q 434 240 451 229 q 368 263 417 251 l 254 289 q 98 359 146 311 q 50 492 50 407 q 90 613 50 560 q 202 695 131 665 q 367 725 274 725 q 518 702 444 725 q 654 640 592 679 l 588 474 q 474 529 532 510 q 364 549 415 549 q 299 535 324 549 q 275 497 275 522 q 289 473 275 482 q 342 454 303 464 l 460 428 q 622 351 572 403 q 671 213 671 300 q 588 49 671 108 q 360 -11 506 -11 m 439 796 l 288 796 l 424 1085 l 663 1085 l 439 796 z "},"ṥ":{"ha":704,"x_min":26,"x_max":689,"o":"m 360 -11 q 26 74 149 -11 l 90 244 q 220 184 147 206 q 361 163 293 163 q 428 175 404 163 q 451 210 451 188 q 434 240 451 229 q 368 263 417 251 l 254 289 q 98 359 146 311 q 50 492 50 407 q 90 613 50 560 q 202 695 131 665 q 367 725 274 725 q 518 702 444 725 q 654 640 592 679 l 588 474 q 474 529 532 510 q 364 549 415 549 q 299 535 324 549 q 275 497 275 522 q 289 473 275 482 q 342 454 303 464 l 460 428 q 622 351 572 403 q 671 213 671 300 q 588 49 671 108 q 360 -11 506 -11 m 465 776 l 314 776 l 450 1065 l 689 1065 l 465 776 m 79 1068 l 342 1068 l 342 842 l 79 842 l 79 1068 z "},"š":{"ha":704,"x_min":26,"x_max":671,"o":"m 360 -11 q 26 74 149 -11 l 90 244 q 220 184 147 206 q 361 163 293 163 q 428 175 404 163 q 451 210 451 188 q 434 240 451 229 q 368 263 417 251 l 254 289 q 98 359 146 311 q 50 492 50 407 q 90 613 50 560 q 202 695 131 665 q 367 725 274 725 q 518 702 444 725 q 654 640 592 679 l 588 474 q 474 529 532 510 q 364 549 415 549 q 299 535 324 549 q 275 497 275 522 q 289 473 275 482 q 342 454 303 464 l 460 428 q 622 351 572 403 q 671 213 671 300 q 588 49 671 108 q 360 -11 506 -11 m 436 1085 l 625 1085 l 436 796 l 290 796 l 101 1085 l 290 1085 l 364 936 l 436 1085 z "},"ṧ":{"ha":704,"x_min":26,"x_max":671,"o":"m 360 -11 q 26 74 149 -11 l 90 244 q 220 184 147 206 q 361 163 293 163 q 428 175 404 163 q 451 210 451 188 q 434 240 451 229 q 368 263 417 251 l 254 289 q 98 359 146 311 q 50 492 50 407 q 90 613 50 560 q 202 695 131 665 q 367 725 274 725 q 518 702 444 725 q 654 640 592 679 l 588 474 q 474 529 532 510 q 364 549 415 549 q 299 535 324 549 q 275 497 275 522 q 289 473 275 482 q 342 454 303 464 l 460 428 q 622 351 572 403 q 671 213 671 300 q 588 49 671 108 q 360 -11 506 -11 m 436 1085 l 625 1085 l 436 796 l 290 796 l 101 1085 l 290 1085 l 364 936 l 436 1085 m 232 1317 l 494 1317 l 494 1090 l 232 1090 l 232 1317 z "},"ş":{"ha":704,"x_min":26,"x_max":671,"o":"m 360 -11 q 26 74 149 -11 l 90 244 q 220 184 147 206 q 361 163 293 163 q 428 175 404 163 q 451 210 451 188 q 434 240 451 229 q 368 263 417 251 l 254 289 q 98 359 146 311 q 50 492 50 407 q 90 613 50 560 q 202 695 131 665 q 367 725 274 725 q 518 702 444 725 q 654 640 592 679 l 588 474 q 474 529 532 510 q 364 549 415 549 q 299 535 324 549 q 275 497 275 522 q 289 473 275 482 q 342 454 303 464 l 460 428 q 622 351 572 403 q 671 213 671 300 q 588 49 671 108 q 360 -11 506 -11 m 325 -278 q 258 -272 296 -278 q 190 -254 221 -265 l 206 -164 q 268 -178 242 -174 q 317 -183 294 -183 q 358 -177 340 -183 q 376 -153 376 -171 q 332 -129 376 -129 q 308 -131 321 -129 q 288 -136 296 -133 l 260 -106 l 278 28 l 406 28 l 389 -79 l 329 -67 q 366 -58 343 -61 q 404 -56 389 -56 q 494 -83 463 -56 q 525 -153 525 -110 q 475 -242 525 -207 q 325 -278 425 -278 z "},"ŝ":{"ha":704,"x_min":26,"x_max":671,"o":"m 360 -11 q 26 74 149 -11 l 90 244 q 220 184 147 206 q 361 163 293 163 q 428 175 404 163 q 451 210 451 188 q 434 240 451 229 q 368 263 417 251 l 254 289 q 98 359 146 311 q 50 492 50 407 q 90 613 50 560 q 202 695 131 665 q 367 725 274 725 q 518 702 444 725 q 654 640 592 679 l 588 474 q 474 529 532 510 q 364 549 415 549 q 299 535 324 549 q 275 497 275 522 q 289 473 275 482 q 342 454 303 464 l 460 428 q 622 351 572 403 q 671 213 671 300 q 588 49 671 108 q 360 -11 506 -11 m 290 796 l 101 796 l 290 1085 l 436 1085 l 625 796 l 436 796 l 364 943 l 290 796 z "},"ș":{"ha":704,"x_min":26,"x_max":671,"o":"m 360 -11 q 26 74 149 -11 l 90 244 q 220 184 147 206 q 361 163 293 163 q 428 175 404 163 q 451 210 451 188 q 434 240 451 229 q 368 263 417 251 l 254 289 q 98 359 146 311 q 50 492 50 407 q 90 613 50 560 q 202 695 131 665 q 367 725 274 725 q 518 702 444 725 q 654 640 592 679 l 588 474 q 474 529 532 510 q 364 549 415 549 q 299 535 324 549 q 275 497 275 522 q 289 473 275 482 q 342 454 303 464 l 460 428 q 622 351 572 403 q 671 213 671 300 q 588 49 671 108 q 360 -11 506 -11 m 471 -89 l 471 -182 q 451 -299 471 -247 q 382 -394 432 -350 l 296 -336 q 336 -284 325 -311 q 347 -226 347 -257 l 399 -267 l 232 -267 l 232 -89 l 471 -89 z "},"ṡ":{"ha":704,"x_min":26,"x_max":671,"o":"m 360 -11 q 26 74 149 -11 l 90 244 q 220 184 147 206 q 361 163 293 163 q 428 175 404 163 q 451 210 451 188 q 434 240 451 229 q 368 263 417 251 l 254 289 q 98 359 146 311 q 50 492 50 407 q 90 613 50 560 q 202 695 131 665 q 367 725 274 725 q 518 702 444 725 q 654 640 592 679 l 588 474 q 474 529 532 510 q 364 549 415 549 q 299 535 324 549 q 275 497 275 522 q 289 473 275 482 q 342 454 303 464 l 460 428 q 622 351 572 403 q 671 213 671 300 q 588 49 671 108 q 360 -11 506 -11 m 232 1051 l 494 1051 l 494 825 l 232 825 l 232 1051 z "},"ṣ":{"ha":704,"x_min":26,"x_max":671,"o":"m 360 -11 q 26 74 149 -11 l 90 244 q 220 184 147 206 q 361 163 293 163 q 428 175 404 163 q 451 210 451 188 q 434 240 451 229 q 368 263 417 251 l 254 289 q 98 359 146 311 q 50 492 50 407 q 90 613 50 560 q 202 695 131 665 q 367 725 274 725 q 518 702 444 725 q 654 640 592 679 l 588 474 q 474 529 532 510 q 364 549 415 549 q 299 535 324 549 q 275 497 275 522 q 289 473 275 482 q 342 454 303 464 l 460 428 q 622 351 572 403 q 671 213 671 300 q 588 49 671 108 q 360 -11 506 -11 m 242 -79 l 463 -79 l 463 -289 l 242 -289 l 242 -79 z "},"ṩ":{"ha":704,"x_min":26,"x_max":671,"o":"m 360 -11 q 26 74 149 -11 l 90 244 q 220 184 147 206 q 361 163 293 163 q 428 175 404 163 q 451 210 451 188 q 434 240 451 229 q 368 263 417 251 l 254 289 q 98 359 146 311 q 50 492 50 407 q 90 613 50 560 q 202 695 131 665 q 367 725 274 725 q 518 702 444 725 q 654 640 592 679 l 588 474 q 474 529 532 510 q 364 549 415 549 q 299 535 324 549 q 275 497 275 522 q 289 473 275 482 q 342 454 303 464 l 460 428 q 622 351 572 403 q 671 213 671 300 q 588 49 671 108 q 360 -11 506 -11 m 242 -79 l 463 -79 l 463 -289 l 242 -289 l 242 -79 m 232 1051 l 494 1051 l 494 825 l 232 825 l 232 1051 z "},"ß":{"ha":1004,"x_min":75,"x_max":981,"o":"m 75 0 l 75 622 q 184 932 75 828 q 499 1036 293 1036 q 763 965 665 1036 q 860 761 860 893 q 840 662 860 710 q 766 572 821 614 q 606 497 711 531 l 606 542 q 817 476 733 515 q 940 378 900 436 q 981 233 981 319 q 942 105 981 160 q 833 19 903 50 q 668 -11 763 -11 q 504 10 579 -11 q 378 74 429 32 l 443 251 q 554 188 493 208 q 676 169 615 168 q 736 195 719 171 q 753 244 753 219 q 723 308 753 279 q 626 364 693 338 q 449 417 558 390 l 449 599 q 556 640 517 618 q 610 690 594 663 q 625 750 625 717 q 592 832 625 806 q 497 858 558 858 q 372 810 417 858 q 326 660 326 761 l 326 0 l 75 0 z "},"t":{"ha":578,"x_min":4,"x_max":558,"o":"m 4 521 l 4 706 l 557 706 l 557 521 l 4 521 m 558 200 l 558 10 q 494 -7 526 -3 q 428 -11 463 -11 q 209 71 282 -11 q 136 293 136 153 l 136 865 l 388 946 l 388 293 q 402 235 388 258 q 440 202 417 213 q 492 192 464 192 q 522 194 506 192 q 558 200 538 196 z "},"ŧ":{"ha":593,"x_min":11,"x_max":567,"o":"m 40 311 l 40 485 l 536 485 l 536 311 l 40 311 m 11 521 l 11 706 l 565 706 l 565 521 l 11 521 m 567 200 l 567 10 q 503 -7 536 -3 q 435 -11 469 -11 q 217 71 290 -11 q 143 293 143 153 l 143 865 l 397 946 l 397 293 q 411 235 397 258 q 448 202 425 213 q 499 192 471 192 q 528 194 513 192 q 567 200 544 196 z "},"ť":{"ha":578,"x_min":4,"x_max":558,"o":"m 4 521 l 4 706 l 557 706 l 557 521 l 4 521 m 558 200 l 558 10 q 494 -7 526 -3 q 428 -11 463 -11 q 209 71 282 -11 q 136 293 136 153 l 136 865 l 388 946 l 388 293 q 402 235 388 258 q 440 202 417 213 q 492 192 464 192 q 522 194 506 192 q 558 200 538 196 m 515 745 l 396 745 l 396 991 l 553 991 l 515 745 z "},"ţ":{"ha":578,"x_min":4,"x_max":558,"o":"m 4 521 l 4 706 l 557 706 l 557 521 l 4 521 m 558 200 l 558 10 q 494 -7 526 -3 q 428 -11 463 -11 q 209 71 282 -11 q 136 293 136 153 l 136 865 l 388 946 l 388 293 q 402 235 388 258 q 440 202 417 213 q 492 192 464 192 q 522 194 506 192 q 558 200 538 196 m 335 -278 q 268 -272 306 -278 q 200 -254 231 -265 l 215 -164 q 278 -178 251 -174 q 326 -183 304 -183 q 368 -177 350 -183 q 386 -153 386 -171 q 342 -129 386 -129 q 318 -131 331 -129 q 297 -136 306 -133 l 269 -106 l 288 28 l 415 28 l 399 -79 l 339 -67 q 376 -58 353 -61 q 414 -56 399 -56 q 503 -83 472 -56 q 535 -153 535 -110 q 485 -242 535 -207 q 335 -278 435 -278 z "},"ț":{"ha":578,"x_min":4,"x_max":558,"o":"m 4 521 l 4 706 l 557 706 l 557 521 l 4 521 m 558 200 l 558 10 q 494 -7 526 -3 q 428 -11 463 -11 q 209 71 282 -11 q 136 293 136 153 l 136 865 l 388 946 l 388 293 q 402 235 388 258 q 440 202 417 213 q 492 192 464 192 q 522 194 506 192 q 558 200 538 196 m 481 -89 l 481 -182 q 461 -299 481 -247 q 392 -394 442 -350 l 306 -336 q 346 -284 335 -311 q 357 -226 357 -257 l 408 -267 l 242 -267 l 242 -89 l 481 -89 z "},"ẗ":{"ha":578,"x_min":4,"x_max":558,"o":"m 4 521 l 4 706 l 557 706 l 557 521 l 4 521 m 558 200 l 558 10 q 494 -7 526 -3 q 428 -11 463 -11 q 209 71 282 -11 q 136 293 136 153 l 136 865 l 388 946 l 388 293 q 402 235 388 258 q 440 202 417 213 q 492 192 464 192 q 522 194 506 192 q 558 200 538 196 m 290 1211 l 513 1211 l 513 1001 l 290 1001 l 290 1211 m 11 1211 l 233 1211 l 233 1001 l 11 1001 l 11 1211 z "},"ṭ":{"ha":578,"x_min":4,"x_max":558,"o":"m 4 521 l 4 706 l 557 706 l 557 521 l 4 521 m 558 200 l 558 10 q 494 -7 526 -3 q 428 -11 463 -11 q 209 71 282 -11 q 136 293 136 153 l 136 865 l 388 946 l 388 293 q 402 235 388 258 q 440 202 417 213 q 492 192 464 192 q 522 194 506 192 q 558 200 538 196 m 251 -79 l 472 -79 l 472 -289 l 251 -289 l 251 -79 z "},"ṯ":{"ha":578,"x_min":4,"x_max":585,"o":"m 4 521 l 4 706 l 557 706 l 557 521 l 4 521 m 558 200 l 558 10 q 494 -7 526 -3 q 428 -11 463 -11 q 209 71 282 -11 q 136 293 136 153 l 136 865 l 388 946 l 388 293 q 402 235 388 258 q 440 202 417 213 q 492 192 464 192 q 522 194 506 192 q 558 200 538 196 m 139 -254 l 139 -114 l 585 -114 l 585 -254 l 139 -254 z "},"u":{"ha":860,"x_min":71,"x_max":785,"o":"m 338 -11 q 137 64 203 -11 q 71 293 71 139 l 71 706 l 322 706 l 322 286 q 344 208 322 233 q 413 182 367 182 q 498 219 465 182 q 531 319 531 257 l 531 706 l 785 706 l 785 0 l 539 0 l 539 136 l 558 129 q 470 25 526 61 q 338 -11 414 -11 z "},"ú":{"ha":860,"x_min":71,"x_max":785,"o":"m 338 -11 q 137 64 203 -11 q 71 293 71 139 l 71 706 l 322 706 l 322 286 q 344 208 322 233 q 413 182 367 182 q 498 219 465 182 q 531 319 531 257 l 531 706 l 785 706 l 785 0 l 539 0 l 539 136 l 558 129 q 470 25 526 61 q 338 -11 414 -11 m 504 796 l 353 796 l 489 1085 l 728 1085 l 504 796 z "},"ŭ":{"ha":860,"x_min":71,"x_max":785,"o":"m 338 -11 q 137 64 203 -11 q 71 293 71 139 l 71 706 l 322 706 l 322 286 q 344 208 322 233 q 413 182 367 182 q 498 219 465 182 q 531 319 531 257 l 531 706 l 785 706 l 785 0 l 539 0 l 539 136 l 558 129 q 470 25 526 61 q 338 -11 414 -11 m 429 824 q 311 847 368 824 q 213 917 254 869 q 157 1036 172 964 l 264 1083 q 340 1001 297 1025 q 429 976 382 976 q 517 1001 475 976 q 593 1083 560 1025 l 700 1036 q 644 917 685 964 q 547 847 603 869 q 429 824 490 824 z "},"û":{"ha":860,"x_min":71,"x_max":785,"o":"m 338 -11 q 137 64 203 -11 q 71 293 71 139 l 71 706 l 322 706 l 322 286 q 344 208 322 233 q 413 182 367 182 q 498 219 465 182 q 531 319 531 257 l 531 706 l 785 706 l 785 0 l 539 0 l 539 136 l 558 129 q 470 25 526 61 q 338 -11 414 -11 m 356 796 l 167 796 l 356 1085 l 501 1085 l 690 796 l 501 796 l 429 943 l 356 796 z "},"ȕ":{"ha":860,"x_min":71,"x_max":785,"o":"m 338 -11 q 137 64 203 -11 q 71 293 71 139 l 71 706 l 322 706 l 322 286 q 344 208 322 233 q 413 182 367 182 q 498 219 465 182 q 531 319 531 257 l 531 706 l 785 706 l 785 0 l 539 0 l 539 136 l 558 129 q 470 25 526 61 q 338 -11 414 -11 m 479 796 l 369 1085 l 542 1085 l 583 796 l 479 796 m 274 796 l 165 1085 l 338 1085 l 378 796 l 274 796 z "},"ü":{"ha":860,"x_min":71,"x_max":785,"o":"m 338 -11 q 137 64 203 -11 q 71 293 71 139 l 71 706 l 322 706 l 322 286 q 344 208 322 233 q 413 182 367 182 q 498 219 465 182 q 531 319 531 257 l 531 706 l 785 706 l 785 0 l 539 0 l 539 136 l 558 129 q 470 25 526 61 q 338 -11 414 -11 m 457 1043 l 679 1043 l 679 832 l 457 832 l 457 1043 m 178 1043 l 400 1043 l 400 832 l 178 832 l 178 1043 z "}}}
